<?xml version="1.0" encoding="utf-8"?>
<!-- Generator: Adobe Illustrator 21.0.0, SVG Export Plug-In . SVG Version: 6.00 Build 0)  -->
<svg version="1.1" id="Слой_1" xmlns="http://www.w3.org/2000/svg" xmlns:xlink="http://www.w3.org/1999/xlink" x="0px" y="0px"
	 viewBox="0 0 162.9 191" style="enable-background:new 0 0 162.9 191;" xml:space="preserve">
<style type="text/css">
	.st0{fill:#FDA700;}
</style>
<path id="Фигура_30" class="st0" d="M81.5,191c-37.7,0-68.3-30.6-68.3-68.3c0-37.7,30.6-68.3,68.3-68.3
	c37.7,0,68.3,30.6,68.3,68.3c0,0,0,0,0,0C149.7,160.4,119.2,190.9,81.5,191L81.5,191z M81.5,58.9c-35.2,0-63.8,28.5-63.8,63.8
	s28.5,63.8,63.8,63.8s63.8-28.5,63.8-63.8c0,0,0,0,0,0C145.2,87.5,116.7,59,81.5,58.9L81.5,58.9z M83.7,56.7h-4.5V25.3h4.5V56.7z
	 M151.6,56.7h-4.5V25.3h4.5V56.7z M15.8,56.7h-4.5V25.3h4.5V56.7z M81.5,27.2c-7.5,0-13.6-6.1-13.6-13.6S74,0,81.5,0
	s13.6,6.1,13.6,13.6C95,21.1,89,27.2,81.5,27.2L81.5,27.2z M81.5,2.3c-6.3,0-11.3,5.1-11.3,11.3s5.1,11.3,11.3,11.3
	s11.3-5.1,11.3-11.3l0,0C92.8,7.3,87.7,2.3,81.5,2.3L81.5,2.3z M81.5,21.6c-4.4,0-8-3.6-8-8c0-4.4,3.6-8,8-8c4.4,0,8,3.6,8,8
	C89.5,18,85.9,21.6,81.5,21.6L81.5,21.6z M81.5,7.8c-3.2,0-5.8,2.6-5.8,5.8c0,3.2,2.6,5.8,5.8,5.8s5.8-2.6,5.8-5.8l0,0
	C87.2,10.4,84.6,7.8,81.5,7.8L81.5,7.8z M149.4,27.2c-7.5,0-13.6-6.1-13.6-13.6S141.9,0,149.4,0c7.5,0,13.6,6.1,13.6,13.6
	C162.9,21.1,156.9,27.2,149.4,27.2L149.4,27.2z M149.4,2.3c-6.3,0-11.3,5.1-11.3,11.3s5.1,11.3,11.3,11.3s11.3-5.1,11.3-11.3l0,0
	C160.7,7.3,155.6,2.3,149.4,2.3L149.4,2.3z M149.4,21.6c-4.4,0-8-3.6-8-8c0-4.4,3.6-8,8-8c4.4,0,8,3.6,8,8
	C157.4,18,153.8,21.6,149.4,21.6L149.4,21.6z M149.4,7.8c-3.2,0-5.8,2.6-5.8,5.8c0,3.2,2.6,5.8,5.8,5.7c3.2,0,5.8-2.6,5.8-5.8
	C155.1,10.4,152.6,7.8,149.4,7.8L149.4,7.8z M13.6,27.2C6.1,27.2,0,21.1,0,13.6S6.1,0,13.6,0s13.6,6.1,13.6,13.6
	C27.1,21.1,21.1,27.2,13.6,27.2L13.6,27.2z M13.6,2.3C7.3,2.3,2.3,7.3,2.3,13.6s5.1,11.3,11.3,11.3s11.3-5.1,11.3-11.3l0,0
	C24.9,7.3,19.8,2.3,13.6,2.3L13.6,2.3z M13.6,21.6c-4.4,0-8-3.6-8-8c0-4.4,3.6-8,8-8c4.4,0,8,3.6,8,8c0,0,0,0,0,0
	C21.6,18,18,21.6,13.6,21.6L13.6,21.6z M13.6,7.8c-3.2,0-5.8,2.6-5.8,5.8c0,3.2,2.6,5.8,5.8,5.8s5.8-2.6,5.8-5.8l0,0
	C19.3,10.4,16.7,7.8,13.6,7.8L13.6,7.8z M129.2,77.2l-3.1-3.3l22.4-20.6l3.1,3.3L129.2,77.2z M33.7,77.2L11.3,56.6l3.1-3.3
	l22.4,20.6L33.7,77.2z"/>
<path class="st0" d="M87.8,65.1c-3.5-3.5-9.2-3.5-12.6,0c-3.1,3.1-3.4,8-1,11.5L61.4,89.4c-3.5-2.5-8.4-2.2-11.5,1
	c-3.1,3.1-3.4,8-1,11.5l-12.8,12.8c-3.5-2.5-8.4-2.2-11.5,1c-3.5,3.5-3.5,9.2,0,12.6c3.1,3.1,8,3.4,11.5,1l12.8,12.8
	c-2.5,3.5-2.2,8.4,1,11.5c3.1,3.1,8,3.4,11.5,1l12.8,12.8c-2.5,3.5-2.2,8.4,1,11.5c3.5,3.5,9.2,3.5,12.6,0c3.1-3.1,3.4-8,1-11.5
	l12.8-12.8c3.5,2.5,8.4,2.2,11.5-1c3.1-3.1,3.4-8,1-11.5l12.8-12.8c3.5,2.5,8.4,2.2,11.5-1c3.5-3.5,3.5-9.2,0-12.6
	c-3.1-3.1-8-3.4-11.5-1L114,101.9c2.5-3.5,2.2-8.4-1-11.5s-8-3.4-11.5-1L88.7,76.6C91.2,73.1,90.9,68.3,87.8,65.1z M99.5,101.9
	l-5.4,5.4l-1.1-1.1c-0.6-0.6-1.5-0.6-2.1,0l-2.6,2.6c-0.8-0.4-1.6-0.7-2.4-1l0-3.7c0-0.8-0.7-1.5-1.5-1.5H83V80.2
	c1.3-0.2,2.6-0.7,3.7-1.5l12.8,12.8C97.3,94.6,97.3,98.8,99.5,101.9z M123.2,120.5h-22.4V119c0-0.8-0.7-1.5-1.5-1.5l-3.7,0
	c-0.3-0.8-0.6-1.6-1-2.4l2.6-2.6c0.6-0.6,0.6-1.5,0-2.1l-1.1-1.1l5.4-5.4c3.1,2.2,7.3,2.2,10.3,0l12.8,12.8
	C123.9,117.9,123.4,119.2,123.2,120.5z M92,134.6l-2.3-2.3c-0.5-0.5-1.3-0.6-1.8-0.2c-1.1,0.7-2.4,1.2-3.7,1.5
	c-0.7,0.2-1.2,0.8-1.2,1.5v3.3h-3l0-3.3c0-0.7-0.5-1.3-1.2-1.5c-1.3-0.3-2.6-0.8-3.7-1.5c-0.6-0.4-1.4-0.3-1.8,0.2l-2.3,2.3
	l-2.1-2.1l2.3-2.3c0.5-0.5,0.6-1.3,0.2-1.8c-0.7-1.1-1.2-2.4-1.5-3.7c-0.2-0.7-0.8-1.2-1.5-1.2l-3.3,0v-3h3.3c0.7,0,1.3-0.5,1.5-1.2
	c0.3-1.3,0.8-2.6,1.5-3.7c0.4-0.6,0.3-1.4-0.2-1.8l-2.3-2.3l2.1-2.1l2.3,2.3c0.5,0.5,1.3,0.6,1.8,0.2c1.1-0.7,2.4-1.2,3.7-1.5
	c0.7-0.2,1.2-0.8,1.2-1.5v-3.3h3l0,3.3c0,0.7,0.5,1.3,1.2,1.5c1.3,0.3,2.6,0.8,3.7,1.5c0.6,0.4,1.4,0.3,1.8-0.2l2.3-2.3l2.1,2.1
	l-2.3,2.3c-0.5,0.5-0.6,1.3-0.2,1.8c0.7,1.1,1.2,2.4,1.5,3.7c0.2,0.7,0.8,1.2,1.5,1.2l3.3,0v3h-3.3c-0.7,0-1.3,0.5-1.5,1.2
	c-0.3,1.3-0.8,2.6-1.5,3.7c-0.4,0.6-0.3,1.4,0.2,1.8l2.3,2.3L92,134.6z M80,163.7c-1.3,0.2-2.6,0.7-3.7,1.5l-12.8-12.8
	c2.2-3.1,2.2-7.3,0-10.3l5.4-5.4l1.1,1.1c0.6,0.6,1.5,0.6,2.1,0l2.6-2.6c0.8,0.4,1.6,0.7,2.4,1l0,3.7c0,0.8,0.7,1.5,1.5,1.5H80
	L80,163.7z M39.7,123.5h22.4v1.5c0,0.8,0.7,1.5,1.5,1.5l3.7,0c0.3,0.8,0.6,1.6,1,2.4l-2.6,2.6c-0.6,0.6-0.6,1.5,0,2.1l1.1,1.1
	l-5.4,5.4c-3.1-2.2-7.3-2.2-10.3,0l-12.8-12.8C39,126.1,39.5,124.8,39.7,123.5z M77.3,67.2c2.3-2.3,6.1-2.3,8.4,0
	c2.3,2.3,2.3,6.1,0,8.4c-2.3,2.3-6.1,2.3-8.4,0C74.9,73.3,74.9,69.6,77.3,67.2z M63.5,91.6l12.8-12.8c1.1,0.8,2.4,1.3,3.7,1.5v22.4
	h-1.5c-0.8,0-1.5,0.7-1.5,1.5l0,3.7c-0.8,0.3-1.6,0.6-2.4,1l-2.6-2.6c-0.6-0.6-1.5-0.6-2.1,0l-1.1,1.1l-5.4-5.4
	C65.7,98.8,65.7,94.6,63.5,91.6z M52,92.5c2.3-2.3,6.1-2.3,8.4,0c2.3,2.3,2.3,6.1,0,8.4c-2.3,2.3-6.1,2.3-8.4,0
	C49.7,98.6,49.7,94.8,52,92.5z M61.4,104l5.4,5.4l-1.1,1.1c-0.6,0.6-0.6,1.5,0,2.1l2.6,2.6c-0.4,0.8-0.7,1.6-1,2.4h-3.7
	c-0.8,0-1.5,0.7-1.5,1.5v1.5H39.7c-0.2-1.3-0.7-2.6-1.5-3.7L51,104C54.1,106.2,58.3,106.2,61.4,104z M26.7,126.2
	c-2.3-2.3-2.3-6.1,0-8.4c2.3-2.3,6.1-2.3,8.4,0c2.3,2.3,2.3,6.1,0,8.4S29,128.5,26.7,126.2z M52,151.5c-2.3-2.3-2.3-6.1,0-8.4
	s6.1-2.3,8.4,0c2.3,2.3,2.3,6.1,0,8.4C58.1,153.8,54.3,153.8,52,151.5z M85.7,176.8c-2.3,2.3-6.1,2.3-8.4,0c-2.3-2.3-2.3-6.1,0-8.4
	c2.3-2.3,6.1-2.3,8.4,0C88,170.7,88,174.4,85.7,176.8z M99.5,152.4l-12.8,12.8c-1.1-0.8-2.4-1.3-3.7-1.5v-22.4h1.5
	c0.8,0,1.5-0.7,1.5-1.5v-3.7c0.8-0.3,1.6-0.6,2.4-1l2.6,2.6c0.6,0.6,1.5,0.6,2.1,0l1.1-1.1l5.4,5.4
	C97.3,145.2,97.3,149.4,99.5,152.4z M111,151.5c-2.3,2.3-6.1,2.3-8.4,0c-2.3-2.3-2.3-6.1,0-8.4s6.1-2.3,8.4,0
	C113.3,145.4,113.3,149.2,111,151.5z M101.6,140l-5.4-5.4l1.1-1.1c0.6-0.6,0.6-1.5,0-2.1l-2.6-2.6c0.4-0.8,0.7-1.6,1-2.4h3.7
	c0.8,0,1.5-0.7,1.5-1.5v-1.5h22.4c0.2,1.3,0.7,2.6,1.5,3.7L111.9,140C108.8,137.8,104.7,137.8,101.6,140z M136.2,117.8
	c2.3,2.3,2.3,6.1,0,8.4s-6.1,2.3-8.4,0c-2.3-2.3-2.3-6.1,0-8.4C130.1,115.5,133.9,115.5,136.2,117.8z M111,92.5
	c2.3,2.3,2.3,6.1,0,8.4c-2.3,2.3-6.1,2.3-8.4,0s-2.3-6.1,0-8.4C104.9,90.2,108.6,90.2,111,92.5z"/>
<path class="st0" d="M88.9,122c0-4.1-3.3-7.4-7.4-7.4S74,117.9,74,122s3.3,7.4,7.4,7.4S88.9,126.1,88.9,122z M81.5,126.5
	c-2.5,0-4.5-2-4.5-4.5s2-4.5,4.5-4.5s4.5,2,4.5,4.5S83.9,126.5,81.5,126.5z"/>
</svg>
