<svg 
 xmlns="http://www.w3.org/2000/svg"
 xmlns:xlink="http://www.w3.org/1999/xlink"
 width="82px" height="82px">
<path fill-rule="evenodd"  fill="rgb(253, 167, 0)"
 d="M75.692,82.000 C72.208,82.000 69.374,79.166 69.374,75.683 L69.374,72.566 C69.374,69.082 72.208,66.248 75.692,66.248 C79.176,66.248 82.010,69.082 82.010,72.566 L82.010,75.683 C82.010,79.166 79.176,82.000 75.692,82.000 ZM78.806,72.566 C78.806,70.849 77.409,69.452 75.692,69.452 C73.974,69.452 72.577,70.849 72.577,72.566 L72.577,75.683 C72.577,77.400 73.974,78.797 75.692,78.797 C77.409,78.797 78.806,77.400 78.806,75.683 L78.806,72.566 ZM75.692,61.259 C72.208,61.259 69.374,58.426 69.374,54.942 L69.374,51.825 C69.374,48.342 72.208,45.508 75.692,45.508 C79.176,45.508 82.010,48.342 82.010,51.825 L82.010,54.942 C82.010,58.426 79.176,61.259 75.692,61.259 ZM78.806,51.825 C78.806,50.108 77.409,48.711 75.692,48.711 C73.974,48.711 72.577,50.108 72.577,51.825 L72.577,54.942 C72.577,56.659 73.974,58.056 75.692,58.056 C77.409,58.056 78.806,56.659 78.806,54.942 L78.806,51.825 ZM80.408,38.849 L74.660,38.849 C73.775,38.849 73.058,38.132 73.058,37.248 C73.058,36.363 73.775,35.646 74.660,35.646 L75.932,35.646 L75.932,28.566 L75.651,28.847 C75.025,29.473 74.012,29.473 73.386,28.847 C72.760,28.222 72.760,27.208 73.386,26.582 L76.401,23.567 C76.859,23.109 77.548,22.972 78.147,23.220 C78.745,23.468 79.136,24.052 79.136,24.700 L79.136,35.646 L80.408,35.646 C81.293,35.646 82.010,36.363 82.010,37.248 C82.010,38.132 81.293,38.849 80.408,38.849 ZM75.692,15.752 C72.208,15.752 69.374,12.918 69.374,9.434 L69.374,6.318 C69.374,2.835 72.208,0.001 75.692,0.001 C79.176,0.001 82.010,2.835 82.010,6.319 L82.010,9.435 C82.010,12.918 79.176,15.752 75.692,15.752 ZM78.806,6.319 C78.806,4.601 77.409,3.204 75.692,3.204 C73.974,3.204 72.577,4.601 72.577,6.319 L72.577,9.435 C72.577,11.152 73.974,12.549 75.692,12.549 C77.409,12.549 78.806,11.152 78.806,9.435 L78.806,6.319 ZM61.532,38.849 C61.511,38.849 61.491,38.847 61.471,38.846 L61.471,49.228 C61.471,53.082 58.334,56.218 54.479,56.218 L52.511,56.218 C51.626,56.218 50.909,55.501 50.909,54.616 C50.909,53.732 51.626,53.015 52.511,53.015 L54.479,53.015 C56.568,53.015 58.267,51.316 58.267,49.228 L58.267,36.488 L23.744,36.488 L23.744,49.228 C23.744,51.316 25.443,53.015 27.531,53.015 L40.125,53.015 C41.010,53.015 41.727,53.732 41.727,54.616 C41.727,55.501 41.010,56.218 40.125,56.218 L35.437,56.218 L35.437,58.056 L36.710,58.056 C37.594,58.056 38.311,58.773 38.311,59.658 C38.311,60.542 37.594,61.259 36.710,61.259 L30.961,61.259 C30.077,61.259 29.360,60.542 29.360,59.658 C29.360,58.773 30.077,58.056 30.961,58.056 L32.234,58.056 L32.234,56.218 L27.531,56.218 C23.676,56.218 20.540,53.082 20.540,49.228 L20.540,25.673 C20.540,22.644 23.004,20.181 26.033,20.181 L26.277,20.181 L26.277,14.727 C26.277,9.496 29.098,4.610 33.638,1.978 C34.404,1.535 35.384,1.796 35.828,2.561 C36.271,3.326 36.010,4.306 35.245,4.750 C31.689,6.811 29.480,10.634 29.480,14.727 L29.480,20.181 L32.840,20.181 L32.840,14.727 C32.840,10.226 36.503,6.564 41.005,6.564 C45.508,6.564 49.170,10.226 49.170,14.727 L49.170,20.181 L52.530,20.181 L52.530,14.727 C52.530,10.634 50.321,6.810 46.765,4.750 C45.999,4.306 45.739,3.326 46.182,2.561 C46.626,1.795 47.606,1.534 48.371,1.978 C52.913,4.610 55.733,9.495 55.733,14.727 L55.733,20.181 L55.978,20.181 C58.129,20.181 59.995,21.424 60.895,23.230 C61.091,23.146 61.305,23.098 61.532,23.098 C65.015,23.098 67.850,25.932 67.850,29.416 L67.850,32.532 C67.850,36.015 65.015,38.849 61.532,38.849 ZM26.033,23.383 C24.771,23.383 23.744,24.410 23.744,25.673 L23.744,30.587 L30.948,23.383 L26.033,23.383 ZM35.383,23.479 L25.576,33.285 L33.304,33.285 L43.206,23.383 L35.469,23.383 C35.442,23.416 35.414,23.448 35.383,23.479 ZM45.967,14.727 C45.967,11.992 43.741,9.766 41.005,9.766 C38.270,9.766 36.044,11.992 36.044,14.727 L36.044,14.727 L36.044,20.181 L45.967,20.181 L45.967,14.727 ZM47.737,23.383 L37.834,33.285 L45.591,33.285 C45.661,33.157 45.750,33.037 45.858,32.928 L55.404,23.383 L47.737,23.383 ZM58.267,25.673 C58.267,25.482 58.241,25.298 58.197,25.121 L50.032,33.285 L58.267,33.285 L58.267,25.673 ZM64.646,29.416 C64.646,27.698 63.249,26.301 61.532,26.301 C61.511,26.301 61.491,26.299 61.471,26.298 L61.471,35.649 C61.491,35.649 61.511,35.646 61.532,35.646 C63.249,35.646 64.646,34.250 64.646,32.532 L64.646,29.416 ZM64.408,15.752 L58.659,15.752 C57.775,15.752 57.057,15.035 57.057,14.150 C57.057,13.266 57.775,12.549 58.659,12.549 L59.932,12.549 L59.932,5.469 L59.651,5.750 C59.025,6.376 58.011,6.376 57.386,5.750 C56.760,5.124 56.760,4.110 57.386,3.485 L60.401,0.470 C60.859,0.012 61.548,-0.125 62.147,0.123 C62.745,0.371 63.135,0.955 63.135,1.602 L63.135,12.549 L64.408,12.549 C65.292,12.549 66.010,13.266 66.010,14.150 C66.010,15.035 65.292,15.752 64.408,15.752 ZM21.721,15.752 L15.973,15.752 C15.089,15.752 14.371,15.035 14.371,14.150 C14.371,13.266 15.089,12.549 15.973,12.549 L17.245,12.549 L17.245,5.469 L16.964,5.750 C16.339,6.376 15.325,6.376 14.699,5.750 C14.073,5.124 14.073,4.110 14.699,3.485 L17.715,0.470 C18.173,0.012 18.862,-0.125 19.460,0.123 C20.059,0.371 20.449,0.955 20.449,1.602 L20.449,12.549 L21.721,12.549 C22.606,12.549 23.323,13.266 23.323,14.150 C23.323,15.035 22.606,15.752 21.721,15.752 ZM16.719,51.826 L16.719,54.942 C16.719,56.659 18.117,58.056 19.834,58.056 C20.719,58.056 21.436,58.773 21.436,59.658 C21.436,60.542 20.719,61.259 19.834,61.259 C16.350,61.259 13.516,58.426 13.516,54.942 L13.516,51.826 C13.516,50.941 14.233,50.224 15.118,50.224 C16.002,50.224 16.719,50.941 16.719,51.826 ZM6.319,38.849 C2.835,38.849 0.001,36.015 0.001,32.532 L0.001,29.416 C0.001,25.932 2.835,23.098 6.319,23.098 C9.803,23.098 12.637,25.932 12.637,29.416 L12.637,32.532 C12.637,36.015 9.803,38.849 6.319,38.849 ZM9.433,32.532 L9.433,29.416 C9.433,27.698 8.036,26.302 6.319,26.302 C4.601,26.302 3.204,27.698 3.204,29.416 L3.204,32.532 C3.204,34.250 4.601,35.646 6.319,35.646 C8.036,35.646 9.433,34.250 9.433,32.532 L9.433,32.532 ZM7.493,15.752 L1.744,15.752 C0.860,15.752 0.142,15.035 0.142,14.150 C0.142,13.266 0.860,12.549 1.744,12.549 L3.017,12.549 L3.017,5.469 L2.736,5.750 C2.110,6.376 1.096,6.376 0.470,5.750 C-0.155,5.124 -0.155,4.110 0.470,3.485 L3.486,0.470 C3.944,0.012 4.633,-0.125 5.231,0.123 C5.830,0.371 6.220,0.955 6.220,1.602 L6.220,12.549 L7.493,12.549 C8.377,12.549 9.094,13.266 9.094,14.150 C9.094,15.035 8.377,15.752 7.493,15.752 ZM3.486,45.977 C3.944,45.519 4.633,45.382 5.231,45.630 C5.830,45.878 6.220,46.462 6.220,47.110 L6.220,58.056 L7.493,58.056 C8.377,58.056 9.095,58.773 9.095,59.658 C9.095,60.542 8.377,61.259 7.493,61.259 L1.744,61.259 C0.860,61.259 0.143,60.542 0.143,59.658 C0.143,58.773 0.860,58.056 1.744,58.056 L3.017,58.056 L3.017,50.976 L2.736,51.257 C2.110,51.883 1.096,51.883 0.470,51.257 C-0.155,50.632 -0.155,49.617 0.470,48.992 L3.486,45.977 ZM2.736,71.998 C2.110,72.623 1.096,72.623 0.470,71.998 C-0.155,71.372 -0.155,70.358 0.470,69.733 L3.486,66.718 C3.944,66.259 4.633,66.123 5.231,66.371 C5.830,66.618 6.220,67.202 6.220,67.850 L6.220,78.797 L7.493,78.797 C8.377,78.797 9.095,79.514 9.095,80.398 C9.095,81.283 8.377,82.000 7.493,82.000 L1.744,82.000 C0.860,82.000 0.143,81.283 0.143,80.398 C0.143,79.514 0.860,78.797 1.744,78.797 L3.017,78.797 L3.017,71.717 L2.736,71.998 ZM16.965,71.998 C16.339,72.623 15.325,72.623 14.699,71.998 C14.074,71.372 14.074,70.358 14.699,69.733 L17.715,66.718 C18.173,66.259 18.862,66.123 19.460,66.371 C20.059,66.618 20.449,67.202 20.449,67.850 L20.449,78.797 L21.721,78.797 C22.606,78.797 23.324,79.514 23.324,80.398 C23.324,81.283 22.606,82.000 21.722,82.000 L15.973,82.000 C15.089,82.000 14.371,81.283 14.371,80.398 C14.371,79.514 15.089,78.797 15.973,78.797 L17.246,78.797 L17.246,71.717 L16.965,71.998 ZM33.005,66.248 C36.489,66.248 39.323,69.082 39.323,72.566 L39.323,75.683 C39.323,79.166 36.489,82.000 33.005,82.000 C29.522,82.000 26.687,79.166 26.687,75.683 L26.687,72.566 C26.687,69.082 29.522,66.248 33.005,66.248 ZM29.891,75.683 C29.891,77.400 31.288,78.797 33.005,78.797 C34.723,78.797 36.120,77.400 36.120,75.683 L36.120,72.566 C36.120,70.849 34.723,69.452 33.005,69.452 C31.288,69.452 29.891,70.849 29.891,72.566 L29.891,75.683 ZM41.005,42.602 C40.584,42.602 40.171,42.431 39.873,42.132 C39.575,41.835 39.403,41.421 39.403,41.000 C39.403,40.579 39.575,40.166 39.873,39.868 C40.171,39.570 40.584,39.399 41.005,39.399 C41.427,39.399 41.840,39.570 42.137,39.868 C42.436,40.166 42.607,40.579 42.607,41.000 C42.607,41.421 42.436,41.835 42.137,42.132 C41.840,42.431 41.427,42.602 41.005,42.602 ZM39.403,48.488 L39.403,46.081 C39.403,45.197 40.121,44.480 41.005,44.480 C41.890,44.480 42.607,45.197 42.607,46.081 L42.607,48.488 C42.607,49.372 41.890,50.089 41.005,50.089 C40.121,50.089 39.403,49.372 39.403,48.488 ZM46.991,56.218 C46.568,56.218 46.157,56.047 45.857,55.749 C45.559,55.451 45.389,55.038 45.389,54.616 C45.389,54.195 45.559,53.782 45.857,53.484 C46.157,53.187 46.568,53.015 46.991,53.015 C47.412,53.015 47.826,53.187 48.123,53.484 C48.421,53.782 48.593,54.195 48.593,54.616 C48.593,55.038 48.421,55.451 48.123,55.749 C47.824,56.047 47.412,56.218 46.991,56.218 ZM45.422,71.998 C44.797,72.623 43.783,72.623 43.157,71.998 C42.531,71.372 42.531,70.358 43.157,69.733 L46.172,66.718 C46.630,66.259 47.319,66.123 47.918,66.371 C48.516,66.618 48.907,67.202 48.907,67.850 L48.907,78.797 L50.179,78.797 C51.064,78.797 51.781,79.514 51.781,80.398 C51.781,81.283 51.064,82.000 50.179,82.000 L44.431,82.000 C43.546,82.000 42.829,81.283 42.829,80.398 C42.829,79.514 43.546,78.797 44.431,78.797 L45.703,78.797 L45.703,71.717 L45.422,71.998 ZM59.651,71.998 C59.025,72.623 58.011,72.623 57.386,71.998 C56.760,71.372 56.760,70.358 57.386,69.733 L60.401,66.718 C60.859,66.259 61.548,66.123 62.147,66.371 C62.745,66.618 63.135,67.202 63.135,67.850 L63.135,78.797 L64.408,78.797 C65.292,78.797 66.010,79.514 66.010,80.398 C66.010,81.283 65.293,82.000 64.408,82.000 L58.660,82.000 C57.775,82.000 57.058,81.283 57.058,80.398 C57.058,79.514 57.775,78.797 58.660,78.797 L59.932,78.797 L59.932,71.717 L59.651,71.998 ZM61.507,52.585 C62.392,52.585 63.109,53.302 63.109,54.186 L63.109,58.056 L64.572,58.056 C65.457,58.056 66.174,58.773 66.174,59.658 C66.174,60.542 65.456,61.259 64.572,61.259 L58.824,61.259 C57.939,61.259 57.222,60.542 57.222,59.658 C57.222,58.773 57.939,58.056 58.824,58.056 L59.906,58.056 L59.906,54.186 C59.906,53.302 60.623,52.585 61.507,52.585 Z"/>
</svg>