<svg 
 xmlns="http://www.w3.org/2000/svg"
 xmlns:xlink="http://www.w3.org/1999/xlink"
 width="83px" height="83px">
<path fill-rule="evenodd"  fill="rgb(253, 167, 0)"
 d="M81.617,58.100 L77.468,58.100 L77.468,81.617 C77.468,82.380 76.848,83.000 76.085,83.000 L49.806,83.000 C49.042,83.000 48.423,82.380 48.423,81.617 L48.423,58.100 L35.939,58.100 C36.272,58.349 36.594,58.613 36.903,58.891 C42.575,63.992 43.038,72.726 37.939,78.398 C32.839,84.070 24.107,84.534 18.436,79.434 C14.058,80.991 9.190,80.240 5.485,77.435 C-0.593,72.836 -1.792,64.179 2.807,58.100 L1.397,58.100 C0.634,58.100 0.014,57.480 0.014,56.717 L0.014,1.383 C0.014,0.619 0.634,-0.000 1.397,-0.000 L81.617,-0.000 C82.381,-0.000 83.000,0.619 83.000,1.383 L83.000,56.717 C83.000,57.480 82.381,58.100 81.617,58.100 ZM51.189,80.233 L74.701,80.233 L74.701,44.266 L51.189,44.266 L51.189,80.233 ZM27.676,80.233 C33.787,80.233 38.741,75.278 38.741,69.166 C38.734,63.057 33.784,58.107 27.676,58.100 C21.565,58.100 16.611,63.055 16.611,69.166 C16.611,75.278 21.565,80.233 27.676,80.233 ZM2.780,66.400 C2.778,67.286 2.882,68.169 3.090,69.031 C4.524,74.953 10.486,78.590 16.407,77.156 C15.858,76.388 15.389,75.565 15.008,74.700 L12.462,74.700 L12.462,73.062 C10.810,72.478 9.703,70.919 9.696,69.166 L12.462,69.166 C12.462,69.930 13.081,70.550 13.845,70.550 C13.869,70.550 13.891,70.539 13.914,70.539 C13.870,70.088 13.845,69.630 13.845,69.166 C13.845,68.703 13.870,68.245 13.914,67.793 C13.891,67.793 13.869,67.783 13.845,67.783 C12.086,67.786 10.517,66.678 9.933,65.018 C9.173,62.861 10.306,60.497 12.462,59.738 L12.462,58.100 L15.228,58.100 L15.228,59.738 C15.805,59.938 16.329,60.265 16.765,60.692 C17.761,59.413 18.973,58.318 20.346,57.456 C18.461,56.073 16.183,55.329 13.845,55.333 C7.737,55.340 2.787,60.291 2.780,66.400 ZM15.163,63.312 C15.023,62.695 14.478,62.256 13.845,62.250 C13.081,62.250 12.462,62.869 12.462,63.633 C12.462,64.397 13.081,65.017 13.845,65.017 C14.055,65.016 14.265,65.032 14.472,65.064 C14.662,64.464 14.893,63.879 15.163,63.312 ZM80.234,2.767 L2.780,2.767 L2.780,55.333 L5.583,55.333 C10.479,51.644 17.226,51.644 22.122,55.333 L48.423,55.333 L48.423,42.883 C48.423,42.119 49.042,41.500 49.806,41.500 L76.085,41.500 C76.848,41.500 77.468,42.119 77.468,42.883 L77.468,55.333 L80.234,55.333 L80.234,2.767 ZM45.656,26.283 L45.656,5.533 L48.423,5.533 L48.423,16.027 L51.594,12.855 C52.134,12.315 53.010,12.315 53.550,12.855 L60.871,20.178 L65.425,15.622 C65.965,15.082 66.841,15.082 67.381,15.622 L69.169,17.411 L75.107,11.472 L77.062,13.428 L70.147,20.344 C69.607,20.885 68.731,20.885 68.191,20.344 L66.403,18.556 L61.848,23.111 C61.308,23.651 60.433,23.651 59.893,23.111 L52.572,15.789 L48.423,19.940 L48.423,24.900 L77.468,24.900 L77.468,27.666 L47.039,27.666 C46.276,27.666 45.656,27.047 45.656,26.283 ZM37.358,47.033 L42.890,47.033 L42.890,49.800 L37.358,49.800 L37.358,47.033 ZM37.358,38.733 L42.890,38.733 L42.890,41.500 L37.358,41.500 L37.358,38.733 ZM37.358,30.433 L42.890,30.433 L42.890,33.200 L37.358,33.200 L37.358,30.433 ZM37.358,22.133 L42.890,22.133 L42.890,24.900 L37.358,24.900 L37.358,22.133 ZM37.358,13.833 L42.890,13.833 L42.890,16.600 L37.358,16.600 L37.358,13.833 ZM37.358,5.533 L42.890,5.533 L42.890,8.300 L37.358,8.300 L37.358,5.533 ZM26.293,47.033 L34.592,47.033 L34.592,49.800 L26.293,49.800 L26.293,47.033 ZM26.293,38.733 L34.592,38.733 L34.592,41.500 L26.293,41.500 L26.293,38.733 ZM26.293,30.433 L34.592,30.433 L34.592,33.200 L26.293,33.200 L26.293,30.433 ZM26.293,22.133 L34.592,22.133 L34.592,24.900 L26.293,24.900 L26.293,22.133 ZM26.293,13.833 L34.592,13.833 L34.592,16.600 L26.293,16.600 L26.293,13.833 ZM26.293,5.533 L34.592,5.533 L34.592,8.300 L26.293,8.300 L26.293,5.533 ZM5.547,30.433 L23.527,30.433 L23.527,33.200 L5.547,33.200 L5.547,30.433 ZM5.547,13.833 L23.527,13.833 L23.527,16.600 L5.547,16.600 L5.547,13.833 ZM5.547,5.533 L20.761,5.533 L20.761,8.300 L5.547,8.300 L5.547,5.533 ZM20.761,24.900 L5.547,24.900 L5.547,22.133 L20.761,22.133 L20.761,24.900 ZM17.994,41.500 L5.547,41.500 L5.547,38.733 L17.994,38.733 L17.994,41.500 ZM20.761,49.800 L5.547,49.800 L5.547,47.033 L20.761,47.033 L20.761,49.800 ZM51.189,38.733 L48.423,38.733 L48.423,30.433 L51.189,30.433 L51.189,38.733 ZM59.487,38.733 L56.721,38.733 L56.721,30.433 L59.487,30.433 L59.487,38.733 ZM67.786,38.733 L65.020,38.733 L65.020,30.433 L67.786,30.433 L67.786,38.733 ZM76.085,38.733 L73.318,38.733 L73.318,30.433 L76.085,30.433 L76.085,38.733 ZM27.676,73.316 C28.440,73.316 29.059,72.697 29.059,71.933 C29.059,71.169 28.440,70.550 27.676,70.550 C25.917,70.553 24.348,69.444 23.764,67.785 C23.004,65.628 24.137,63.264 26.293,62.505 L26.293,60.866 L29.059,60.866 L29.059,62.505 C30.711,63.088 31.818,64.647 31.826,66.400 L29.059,66.400 C29.059,65.636 28.440,65.017 27.676,65.017 C26.912,65.017 26.293,65.636 26.293,66.400 C26.293,67.164 26.912,67.783 27.676,67.783 C29.435,67.780 31.004,68.888 31.589,70.548 C32.348,72.705 31.216,75.069 29.059,75.828 L29.059,77.467 L26.293,77.467 L26.293,75.828 C24.641,75.244 23.534,73.686 23.527,71.933 L26.293,71.933 C26.293,72.697 26.912,73.316 27.676,73.316 ZM67.786,69.166 L71.935,69.166 L71.935,71.933 L67.786,71.933 L67.786,69.166 ZM67.786,63.633 L71.935,63.633 L71.935,66.400 L67.786,66.400 L67.786,63.633 ZM67.786,58.100 L71.935,58.100 L71.935,60.866 L67.786,60.866 L67.786,58.100 ZM70.552,55.333 L55.338,55.333 C54.574,55.333 53.955,54.714 53.955,53.950 L53.955,48.416 C53.955,47.653 54.574,47.033 55.338,47.033 L70.552,47.033 C71.316,47.033 71.935,47.653 71.935,48.416 L71.935,53.950 C71.935,54.714 71.316,55.333 70.552,55.333 ZM69.169,49.800 L56.721,49.800 L56.721,52.566 L69.169,52.566 L69.169,49.800 ZM58.104,60.866 L53.955,60.866 L53.955,58.100 L58.104,58.100 L58.104,60.866 ZM58.104,66.400 L53.955,66.400 L53.955,63.633 L58.104,63.633 L58.104,66.400 ZM58.104,71.933 L53.955,71.933 L53.955,69.166 L58.104,69.166 L58.104,71.933 ZM65.020,60.866 L60.871,60.866 L60.871,58.100 L65.020,58.100 L65.020,60.866 ZM65.020,66.400 L60.871,66.400 L60.871,63.633 L65.020,63.633 L65.020,66.400 ZM65.020,71.933 L60.871,71.933 L60.871,69.166 L65.020,69.166 L65.020,71.933 Z"/>
</svg>