<svg 
 xmlns="http://www.w3.org/2000/svg"
 xmlns:xlink="http://www.w3.org/1999/xlink"
 width="227px" height="194px">
<path fill-rule="evenodd"  fill="rgb(253, 167, 0)"
 d="M226.652,130.861 L226.993,133.337 L202.139,136.763 L200.369,145.694 L211.257,153.878 L209.733,155.872 L199.827,148.427 L194.302,176.355 L191.538,176.736 L186.241,138.216 L173.052,128.304 L159.790,140.542 L159.790,156.519 L158.527,156.519 L157.508,157.266 L152.623,150.609 L151.923,190.655 L150.659,190.632 L149.843,191.596 L121.779,167.829 L106.581,194.004 L105.487,193.370 L104.225,193.432 L102.606,160.487 L77.757,151.776 L41.579,168.614 L41.047,167.469 L40.146,166.583 L68.407,137.866 L52.349,116.235 L32.901,113.341 L1.514,136.560 L0.009,134.546 L20.070,119.707 L17.268,111.015 L3.765,109.006 L4.126,106.528 L16.411,108.356 L7.643,81.184 L9.873,79.535 L33.261,110.863 L49.699,113.309 L29.381,91.429 L30.306,90.569 L30.511,89.322 L65.215,95.017 L74.341,80.314 L51.294,35.337 L52.419,34.761 L53.323,33.879 L101.653,83.457 L101.381,63.883 L102.645,63.866 L101.703,63.023 L122.632,39.649 L123.573,40.492 L124.784,40.128 L137.989,84.044 L152.641,58.189 L152.727,58.238 L163.526,38.192 L152.244,0.814 L154.914,0.008 L171.604,23.200 L177.493,12.269 L179.711,13.453 L173.238,25.468 L178.578,32.884 L202.591,25.638 L203.316,28.043 L165.744,39.379 L155.271,58.818 L164.341,72.213 L163.295,72.921 L164.491,73.328 L159.937,86.682 L184.262,87.452 L184.222,88.714 L185.168,87.876 L204.870,110.092 L203.924,110.930 L203.902,112.193 L154.592,111.316 L173.839,125.535 L173.734,125.676 L187.764,136.221 L226.652,130.861 ZM199.556,137.119 L190.601,138.353 L198.182,144.051 L199.556,137.119 ZM193.104,169.671 L197.640,146.784 L189.071,140.343 L193.104,169.671 ZM22.154,118.164 L29.382,112.818 L19.980,111.419 L22.154,118.164 ZM11.945,86.488 L19.123,108.760 L29.751,110.341 L11.945,86.488 ZM176.083,33.637 L171.938,27.882 L167.431,36.247 L176.083,33.637 ZM170.304,25.613 L156.619,6.611 L165.209,35.069 L170.304,25.613 ZM157.263,152.660 L157.263,140.154 L150.286,113.542 L141.460,131.125 L157.263,152.660 ZM139.518,129.364 L148.977,110.518 L126.372,98.520 L126.740,120.246 L139.518,129.364 ZM126.793,123.390 L126.962,133.347 L138.721,152.120 L138.721,131.901 L126.793,123.390 ZM150.153,147.244 L141.248,135.108 L141.248,156.327 L149.532,182.800 L150.153,147.244 ZM106.540,189.040 L119.950,165.945 L104.283,143.116 L106.540,189.040 ZM102.960,136.986 L123.264,120.871 L102.946,106.373 L88.789,120.758 L102.960,136.986 ZM100.307,105.451 L69.338,98.482 L87.123,118.849 L100.307,105.451 ZM102.472,157.763 L101.633,140.663 L81.038,150.249 L102.472,157.763 ZM46.847,163.376 L100.745,138.290 L87.013,122.563 L46.847,163.376 ZM70.201,136.044 L84.450,121.564 L55.930,116.820 L70.201,136.044 ZM65.191,97.573 L33.742,92.413 L53.683,113.885 L54.624,114.041 L60.613,114.933 L60.555,115.028 L83.812,118.897 L65.191,97.573 ZM67.854,95.557 L98.370,102.425 L76.067,82.324 L67.854,95.557 ZM102.056,87.490 L57.366,41.646 L76.807,79.588 L103.099,103.282 L122.548,96.663 L102.448,87.763 L102.960,86.608 L102.056,87.490 ZM122.395,43.702 L104.771,63.385 L123.128,71.052 L122.395,43.702 ZM123.202,73.822 L103.935,65.774 L104.213,85.781 L123.755,94.435 L123.202,73.822 ZM123.851,98.889 L105.542,105.119 L124.182,118.420 L123.851,98.889 ZM124.264,123.304 L104.511,138.983 L120.623,162.463 L124.439,133.650 L124.264,123.304 ZM122.787,165.372 L148.153,186.854 L138.828,157.054 L126.496,137.365 L122.787,165.372 ZM125.091,49.928 L126.309,95.383 L127.506,94.976 L136.194,86.853 L125.091,49.928 ZM129.033,97.007 L128.171,96.084 L128.392,96.732 L149.942,108.172 L156.445,89.099 L138.112,88.519 L129.033,97.007 ZM161.896,73.109 L153.919,61.328 L153.134,62.784 L152.952,62.767 L139.761,86.044 L157.297,86.599 L161.896,73.109 ZM201.070,109.615 L183.991,90.357 L154.896,108.794 L201.070,109.615 ZM180.075,89.847 L159.085,89.182 L153.013,106.995 L180.075,89.847 ZM164.257,121.600 L152.792,113.129 L159.216,137.633 L170.998,126.760 L164.186,121.641 L164.257,121.600 Z"/>
</svg>