<svg 
 xmlns="http://www.w3.org/2000/svg"
 xmlns:xlink="http://www.w3.org/1999/xlink"
 width="41px" height="41px">
<path fill-rule="evenodd"  fill="rgb(253, 167, 0)"
 d="M20.500,-0.000 C31.822,-0.000 41.000,9.178 41.000,20.500 C41.000,31.822 31.822,41.000 20.500,41.000 C9.178,41.000 0.000,31.822 0.000,20.500 C0.000,9.178 9.178,-0.000 20.500,-0.000 Z"/>
<path fill-rule="evenodd"  fill="rgb(16, 23, 31)"
 d="M28.156,33.563 L12.844,33.563 C12.136,33.563 11.563,32.989 11.563,32.281 C11.563,31.574 12.136,31.000 12.844,31.000 L28.156,31.000 C28.864,31.000 29.437,31.574 29.437,32.281 C29.437,32.989 28.864,33.563 28.156,33.563 ZM26.437,27.079 C26.094,27.079 25.785,27.029 25.510,26.931 C25.235,26.831 24.978,26.675 24.737,26.460 C24.497,26.245 24.274,25.994 24.068,25.706 C23.862,25.419 23.656,25.125 23.450,24.824 L16.277,13.822 L16.277,24.889 C16.277,25.610 16.110,26.155 15.775,26.524 C15.440,26.893 15.011,27.079 14.487,27.079 C13.947,27.079 13.513,26.891 13.187,26.518 C12.860,26.144 12.697,25.601 12.697,24.889 L12.697,10.318 C12.697,9.700 12.766,9.214 12.903,8.862 C13.066,8.476 13.337,8.161 13.715,7.915 C14.092,7.671 14.500,7.548 14.938,7.548 C15.281,7.548 15.575,7.604 15.820,7.716 C16.065,7.828 16.279,7.978 16.464,8.167 C16.648,8.356 16.837,8.601 17.031,8.902 C17.224,9.202 17.423,9.515 17.629,9.842 L24.982,20.972 L24.982,9.739 C24.982,9.009 25.139,8.461 25.452,8.096 C25.765,7.731 26.188,7.548 26.720,7.548 C27.270,7.548 27.703,7.731 28.021,8.096 C28.339,8.461 28.497,9.009 28.497,9.739 L28.497,24.592 C28.497,26.250 27.811,27.079 26.437,27.079 Z"/>
</svg>