<svg 
 xmlns="http://www.w3.org/2000/svg"
 xmlns:xlink="http://www.w3.org/1999/xlink"
 width="2572px" height="1505px">
<path fill-rule="evenodd"  fill="rgb(33, 46, 61)"
 d="M185.919,476.135 C194.004,472.027 255.908,464.624 255.908,464.624 L320.911,472.621 L349.897,455.636 L364.902,462.513 L439.891,451.340 C439.891,451.340 468.435,475.384 478.909,476.074 C489.383,476.764 602.873,435.284 602.873,435.284 L657.890,460.196 L786.906,486.498 L855.830,469.602 L934.904,489.275 L1015.819,453.120 L1148.828,463.371 L1229.794,418.076 C1229.794,418.076 1310.745,452.406 1308.822,452.600 C1295.667,453.926 1453.799,421.780 1453.799,421.780 L1532.810,434.729 L1601.789,406.392 L1688.807,429.400 L1758.787,403.034 L1847.766,374.777 L1901.780,391.750 L1982.727,321.707 L2018.714,305.102 L2059.814,293.073 C2059.814,293.073 2172.737,223.193 2170.980,221.000 C2169.676,219.371 2292.987,263.000 2292.987,263.000 L2572.000,28.000 L2572.000,587.000 C2572.000,587.000 2475.364,599.110 2345.040,611.342 C2184.572,626.402 1974.547,641.645 1836.208,634.690 C1200.867,602.750 -1.154,565.359 11.875,562.000 C30.045,557.316 177.833,480.243 185.919,476.135 Z"/>
<path fill-rule="evenodd"  opacity="0.361" fill="rgb(123, 130, 137)"
 d="M333.387,462.554 C340.909,458.329 398.497,450.052 398.497,450.052 L458.970,457.139 L485.935,439.737 L499.894,446.405 L569.655,434.171 C569.655,434.171 596.209,457.826 605.953,458.369 C615.697,458.912 721.276,415.814 721.276,415.814 L772.458,439.965 L892.480,464.464 L956.599,446.589 L1030.161,465.159 L1105.436,427.848 L1229.173,436.232 L1304.494,389.774 C1304.494,389.774 1379.802,422.983 1378.013,423.204 C1365.775,424.716 1512.884,390.327 1512.884,390.327 L1586.387,402.171 L1650.557,372.848 L1731.509,394.644 L1796.611,367.279 L1879.387,337.756 L1929.636,353.977 L2004.939,282.759 L2038.418,265.638 L2076.654,253.026 L2133.000,207.000 L2193.000,200.000 L2276.000,168.000 L2346.000,190.000 L2390.000,136.000 L2572.000,0.000 L2572.000,593.000 C2572.000,593.000 2101.850,607.047 1868.635,597.965 C1277.584,574.950 10.000,616.000 10.000,616.000 C10.000,616.000 325.866,466.778 333.387,462.554 Z"/>
<path fill-rule="evenodd"  fill="rgb(16, 23, 31)"
 d="M2572.000,656.000 L2572.000,656.000 L2572.000,1505.000 L5.875,1505.000 L5.875,602.683 C5.879,602.683 5.885,602.684 5.889,602.684 L5.889,601.000 C5.889,601.000 5.882,601.000 5.875,601.001 L5.875,543.000 L5.889,543.000 L5.889,527.000 L5.889,509.000 L362.760,457.379 L427.916,465.377 L456.970,448.392 L472.010,455.268 C472.010,455.268 497.813,451.432 519.183,448.256 C534.286,446.011 547.174,444.095 547.174,444.095 C547.174,444.095 575.785,468.139 586.283,468.830 C596.782,469.520 710.537,428.040 710.537,428.040 L765.683,452.952 L895.001,479.253 L964.086,462.358 L1043.345,482.030 L1124.449,445.876 L1257.769,456.127 L1338.924,410.832 C1338.924,410.832 1412.945,442.150 1417.903,445.127 C1417.149,445.366 1417.167,445.453 1418.137,445.356 C1418.223,445.347 1418.136,445.267 1417.903,445.127 C1427.419,442.126 1563.453,414.536 1563.453,414.536 L1642.649,427.485 L1711.789,399.148 L1799.011,422.155 L1869.155,395.789 L1958.342,367.533 L2012.482,384.506 L2093.617,314.463 L2129.689,297.857 L2166.749,263.552 C2166.749,263.552 2205.579,244.130 2203.819,241.937 C2202.512,240.308 2260.913,190.579 2260.913,190.579 L2339.136,239.631 L2568.993,95.000 L2570.556,527.000 C2571.496,527.000 2572.000,527.000 2572.000,527.000 L2572.000,656.000 ZM5.875,601.001 L5.875,602.683 C-7.100,601.784 5.447,601.026 5.875,601.001 Z"/>
</svg>