<svg xmlns="http://www.w3.org/2000/svg" width="24.406" height="24.688"><path id="Фигура_8" data-name="Фигура 8" d="M838.756 702.072a12.37 12.37 0 0 0-4.435-4.6 11.877 11.877 0 0 0-12.236 0 12.378 12.378 0 0 0-4.435 4.6 12.742 12.742 0 0 0-1.635 6.351 12.613 12.613 0 0 0 2.325 7.437 11.971 11.971 0 0 0 6.007 4.571.687.687 0 0 0 .634-.114.656.656 0 0 0 .206-.5c0-.032 0-.328-.007-.89s-.009-1.048-.009-1.466l-.364.067a4.468 4.468 0 0 1-.881.057 6.41 6.41 0 0 1-1.1-.115 2.41 2.41 0 0 1-1.063-.494 2.08 2.08 0 0 1-.7-1.013l-.159-.379a4.138 4.138 0 0 0-.5-.84 1.945 1.945 0 0 0-.69-.626l-.112-.082a1.2 1.2 0 0 1-.206-.2.855.855 0 0 1-.142-.23.14.14 0 0 1 .078-.189.981.981 0 0 1 .461-.074l.317.049a2.27 2.27 0 0 1 .786.395 2.618 2.618 0 0 1 .769.857 2.888 2.888 0 0 0 .881 1.03 1.824 1.824 0 0 0 1.04.353 4.392 4.392 0 0 0 .9-.082 3.059 3.059 0 0 0 .714-.247 2.714 2.714 0 0 1 .778-1.7 10.469 10.469 0 0 1-1.627-.3 6.285 6.285 0 0 1-1.491-.643 4.3 4.3 0 0 1-1.278-1.1 5.378 5.378 0 0 1-.833-1.729 8.524 8.524 0 0 1-.325-2.471 4.91 4.91 0 0 1 1.254-3.395 4.579 4.579 0 0 1 .111-3.36 2.153 2.153 0 0 1 1.365.223 9.486 9.486 0 0 1 1.325.633q.42.264.674.446a11.035 11.035 0 0 1 6.094 0l.6-.4a8.332 8.332 0 0 1 1.459-.725 2.014 2.014 0 0 1 1.286-.181 4.539 4.539 0 0 1 .127 3.361 4.9 4.9 0 0 1 1.253 3.394 8.605 8.605 0 0 1-.325 2.479 5.144 5.144 0 0 1-.841 1.729 4.468 4.468 0 0 1-1.285 1.1 6.345 6.345 0 0 1-1.492.642 10.477 10.477 0 0 1-1.626.3 3 3 0 0 1 .824 2.339v3.476a.607.607 0 0 0 .826.609 11.97 11.97 0 0 0 6.006-4.571 12.615 12.615 0 0 0 2.326-7.438 12.762 12.762 0 0 0-1.636-6.35zm0 0" transform="translate(-816 -695.781)" fill="#6e6e6e" fill-rule="evenodd"/></svg>