<svg xmlns="http://www.w3.org/2000/svg" width="32" height="26.219"><path id="Фигура_12" data-name="Фигура 12" d="M996.684 707.105a4.013 4.013 0 0 0-3.982-4.035 3.9 3.9 0 0 0-2.393.817 16.582 16.582 0 0 0-8.228-2.732l1.67-3.97 4.86 1.15a3 3 0 1 0 .462-1.963l-5.68-1.346a.992.992 0 0 0-1.145.587l-2.309 5.488a16.905 16.905 0 0 0-8.933 2.734 3.868 3.868 0 0 0-2.334-.765 4.036 4.036 0 0 0-1.972 7.53 6.057 6.057 0 0 0-.021.543c0 5.562 6.251 10.087 13.936 10.087s13.936-4.525 13.936-10.087c0-.158-.006-.314-.016-.469a4 4 0 0 0 2.149-3.569zm-5.117-10.088a1.009 1.009 0 1 1-1 1.009 1 1 0 0 1 1-1.009zm-17.917 13.114a1.991 1.991 0 1 1 1.99 2.018 2.007 2.007 0 0 1-1.99-2.018zm11.565 6.693a7.748 7.748 0 0 1-9.194 0 1.016 1.016 0 0 1-.223-1.408.988.988 0 0 1 1.389-.226 5.777 5.777 0 0 0 6.861 0 .986.986 0 0 1 1.39.226 1.018 1.018 0 0 1-.223 1.408zm.38-4.675a2.018 2.018 0 1 1 1.991-2.018 2.005 2.005 0 0 1-1.986 2.018z" transform="translate(-964.688 -695)" fill="#6e6e6e" fill-rule="evenodd"/></svg>