<svg xmlns="http://www.w3.org/2000/svg" width="25.906" height="20.812"><path id="Фигура_7" data-name="Фигура 7" d="M886.846 700.546a10.687 10.687 0 0 1-3.051.832 5.313 5.313 0 0 0 2.339-2.913 10.669 10.669 0 0 1-3.383 1.276 5.323 5.323 0 0 0-9.184 3.6 5.41 5.41 0 0 0 .135 1.2 15.133 15.133 0 0 1-10.954-5.5 5.184 5.184 0 0 0-.721 2.646 5.236 5.236 0 0 0 2.364 4.373 5.268 5.268 0 0 1-2.4-.657v.065a5.287 5.287 0 0 0 4.259 5.164 5.539 5.539 0 0 1-1.4.178 5.417 5.417 0 0 1-1-.092 5.324 5.324 0 0 0 4.963 3.654 10.75 10.75 0 0 1-6.6 2.246 11.547 11.547 0 0 1-1.265-.07 15.149 15.149 0 0 0 8.148 2.362 14.931 14.931 0 0 0 15.112-14.961l-.016-.681a10.653 10.653 0 0 0 2.657-2.725zm0 0" transform="translate(-860.938 -698.094)" fill="#6e6e6e" fill-rule="evenodd"/></svg>