<?xml version="1.0" encoding="utf-8"?>
<!-- Generator: Adobe Illustrator 21.0.0, SVG Export Plug-In . SVG Version: 6.00 Build 0)  -->
<svg version="1.1" id="Слой_1" xmlns="http://www.w3.org/2000/svg" xmlns:xlink="http://www.w3.org/1999/xlink" x="0px" y="0px"
	 viewBox="0 0 162.9 191" style="enable-background:new 0 0 162.9 191;" xml:space="preserve">
<style type="text/css">
	.st0{fill:#FDA700;}
</style>
<path id="Фигура_30" class="st0" d="M81.5,191c-37.7,0-68.3-30.6-68.3-68.3s30.6-68.3,68.3-68.3s68.3,30.6,68.3,68.3l0,0
	C149.7,160.4,119.2,190.9,81.5,191L81.5,191z M81.5,58.9c-35.2,0-63.8,28.5-63.8,63.8s28.5,63.8,63.8,63.8s63.8-28.5,63.8-63.8l0,0
	C145.2,87.5,116.7,59,81.5,58.9L81.5,58.9z M81.5,176.6c-29.8,0-54-24.2-54-53.9c0-29.8,24.2-54,53.9-54c29.8,0,54,24.2,54,54l0,0
	C135.4,152.5,111.3,176.6,81.5,176.6z M81.5,73.3C54.2,73.3,32,95.4,32,122.7s22.1,49.4,49.4,49.4s49.4-22.1,49.4-49.4l0,0
	C130.9,95.4,108.8,73.3,81.5,73.3z M83.7,56.7h-4.5V25.3h4.5V56.7z M151.6,56.7h-4.5V25.3h4.5V56.7z M15.8,56.7h-4.5V27l4.5,0V56.7z
	 M81.5,27.2c-7.5,0-13.6-6.1-13.6-13.6S74,0,81.5,0s13.6,6.1,13.6,13.6C95,21.1,89,27.2,81.5,27.2L81.5,27.2z M81.5,2.3
	c-6.3,0-11.3,5.1-11.3,11.3s5.1,11.3,11.3,11.3s11.3-5.1,11.3-11.3l0,0C92.8,7.3,87.7,2.3,81.5,2.3L81.5,2.3z M81.5,21.6
	c-4.4,0-8-3.6-8-8s3.6-8,8-8s8,3.6,8,8S85.9,21.6,81.5,21.6L81.5,21.6z M81.5,7.8c-3.2,0-5.8,2.6-5.8,5.8s2.6,5.8,5.8,5.8
	s5.8-2.6,5.8-5.8l0,0C87.2,10.4,84.6,7.8,81.5,7.8L81.5,7.8z M149.4,27.2c-7.5,0-13.6-6.1-13.6-13.6S141.9,0,149.4,0
	S163,6.1,163,13.6C162.9,21.1,156.9,27.2,149.4,27.2L149.4,27.2z M149.4,2.3c-6.3,0-11.3,5.1-11.3,11.3s5.1,11.3,11.3,11.3
	s11.3-5.1,11.3-11.3l0,0C160.7,7.3,155.6,2.3,149.4,2.3L149.4,2.3z M149.4,21.6c-4.4,0-8-3.6-8-8s3.6-8,8-8s8,3.6,8,8
	S153.8,21.6,149.4,21.6L149.4,21.6z M149.4,7.8c-3.2,0-5.8,2.6-5.8,5.8s2.6,5.8,5.8,5.7c3.2,0,5.8-2.6,5.8-5.8
	C155.1,10.4,152.6,7.8,149.4,7.8L149.4,7.8z M13.6,27.2C6.1,27.2,0,21.1,0,13.6S6.1,0,13.6,0s13.6,6.1,13.6,13.6
	C27.1,21.1,21.1,27.2,13.6,27.2L13.6,27.2z M13.6,2.3c-6.3,0-11.3,5-11.3,11.3s5.1,11.3,11.3,11.3s11.3-5.1,11.3-11.3l0,0
	C24.9,7.3,19.8,2.3,13.6,2.3L13.6,2.3z M13.6,21.6c-4.4,0-8-3.6-8-8s3.6-8,8-8s8,3.6,8,8l0,0C21.6,18,18,21.6,13.6,21.6L13.6,21.6z
	 M13.6,7.8c-3.2,0-5.8,2.6-5.8,5.8s2.6,5.8,5.8,5.8s5.8-2.6,5.8-5.8l0,0C19.3,10.4,16.7,7.8,13.6,7.8L13.6,7.8z M129.2,77.2
	l-3.1-3.3l22.4-20.6l3.1,3.3L129.2,77.2z M33.7,77.2L11.3,56.6l4.4-2l21.1,19.3L33.7,77.2z"/>
<path class="st0" d="M81.5,162.5l-0.7-0.2c-2.6-0.8-25.8-7.7-25.8-19.9V91.1l26.4-3l26.4,3v51.3c0,4.8-4.3,9.4-13.3,14.3
	c-6.1,3.3-12.2,5.5-12.4,5.6L81.5,162.5z M59.5,95.2v47.3c0,7.2,15.5,13.4,21.9,15.4c9.4-3.4,22-10.2,22-15.4V95.2l-21.9-2.5
	L59.5,95.2z"/>
<polygon class="st0" points="98.4,115.1 95,112.3 80.4,129.8 68,119.6 65.1,123 77.5,133.3 77.5,133.3 80.9,136.2 80.9,136.2 
	81,136.2 83.8,132.7 83.8,132.7 "/>
</svg>
