<svg 
 xmlns="http://www.w3.org/2000/svg"
 xmlns:xlink="http://www.w3.org/1999/xlink"
 width="86px" height="86px">
<path fill-rule="evenodd"  fill="rgb(253, 167, 0)"
 d="M78.833,70.233 L53.320,70.233 L55.662,83.133 L60.200,83.133 L60.200,86.000 L25.800,86.000 L25.800,83.133 L30.335,83.133 L32.680,70.233 L7.167,70.233 C3.211,70.229 0.005,67.023 -0.000,63.067 L-0.000,7.167 C0.005,3.210 3.211,0.004 7.167,0.000 L78.833,0.000 C82.789,0.004 85.995,3.210 86.000,7.167 L86.000,63.067 C85.995,67.023 82.789,70.229 78.833,70.233 ZM52.747,83.133 L50.406,70.233 L35.600,70.233 L33.253,83.133 L52.747,83.133 ZM83.133,7.167 C83.133,4.792 81.208,2.867 78.833,2.867 L7.167,2.867 C4.792,2.867 2.867,4.792 2.867,7.167 L2.867,57.333 L83.133,57.333 L83.133,7.167 ZM83.133,60.200 L2.867,60.200 L2.867,63.067 C2.867,65.441 4.792,67.367 7.167,67.367 L78.833,67.367 C81.208,67.367 83.133,65.441 83.133,63.067 L83.133,60.200 ZM10.033,7.167 C12.408,7.167 14.333,9.092 14.333,11.467 C14.331,12.105 14.184,12.735 13.903,13.308 L19.227,18.633 L25.800,18.633 C26.180,18.633 26.545,18.784 26.813,19.053 L28.247,20.487 L26.220,22.513 L25.206,21.500 L18.633,21.500 C18.253,21.500 17.889,21.350 17.620,21.081 L11.875,15.336 C11.301,15.617 10.672,15.764 10.033,15.767 C7.659,15.767 5.733,13.841 5.733,11.467 C5.733,9.092 7.659,7.167 10.033,7.167 ZM10.033,12.900 C10.825,12.900 11.467,12.259 11.467,11.467 C11.467,10.675 10.825,10.033 10.033,10.033 C9.242,10.033 8.600,10.675 8.600,11.467 C8.600,12.259 9.242,12.900 10.033,12.900 ZM11.467,21.500 L14.333,21.500 L14.333,24.366 L11.467,24.366 L11.467,21.500 ZM24.367,24.366 L24.367,27.233 L21.500,27.233 L21.500,24.366 L24.367,24.366 ZM24.367,32.967 L18.370,32.967 C17.764,34.686 16.138,35.835 14.315,35.831 C11.946,35.827 10.029,33.902 10.033,31.533 C10.030,29.711 11.179,28.084 12.898,27.479 C15.133,26.692 17.582,27.865 18.370,30.100 L24.367,30.100 L24.367,32.967 ZM14.333,30.100 C13.542,30.100 12.900,30.742 12.900,31.533 C12.900,32.325 13.542,32.967 14.333,32.967 C15.125,32.967 15.767,32.325 15.767,31.533 C15.767,30.742 15.125,30.100 14.333,30.100 ZM8.585,38.963 C10.818,38.168 13.274,39.334 14.070,41.566 L18.040,41.566 L21.920,37.687 C22.189,37.418 22.553,37.267 22.933,37.267 L27.233,37.267 L27.233,40.133 L23.527,40.133 L19.647,44.013 C19.378,44.282 19.013,44.433 18.633,44.433 L14.070,44.433 C13.464,46.145 11.849,47.292 10.033,47.300 C8.215,47.303 6.592,46.160 5.982,44.447 C5.186,42.214 6.352,39.759 8.585,38.963 ZM10.033,44.433 C10.825,44.433 11.467,43.791 11.467,43.000 C11.467,42.208 10.825,41.566 10.033,41.566 C9.242,41.566 8.600,42.208 8.600,43.000 C8.600,43.791 9.242,44.433 10.033,44.433 ZM18.633,51.600 L12.900,51.600 L12.900,48.733 L18.633,48.733 L18.633,51.600 ZM25.068,45.179 C27.419,44.791 29.639,46.382 30.027,48.733 L32.373,48.733 L33.387,47.720 L35.413,49.746 L33.980,51.180 C33.711,51.449 33.347,51.600 32.967,51.600 L29.502,51.600 C28.856,52.715 27.744,53.482 26.472,53.692 C24.122,54.080 21.901,52.489 21.513,50.138 C21.125,47.787 22.717,45.567 25.068,45.179 ZM25.800,50.883 C26.592,50.883 27.233,50.241 27.233,49.450 C27.233,48.659 26.592,48.017 25.800,48.017 C25.008,48.017 24.367,48.659 24.367,49.450 C24.367,50.241 25.008,50.883 25.800,50.883 ZM32.782,42.055 L53.255,42.055 L53.255,45.745 L32.782,45.745 L32.782,42.055 ZM57.927,47.300 L60.464,47.300 C61.069,45.588 62.684,44.441 64.500,44.433 C66.318,44.430 67.941,45.573 68.552,47.286 C69.347,49.519 68.182,51.974 65.948,52.770 C63.715,53.565 61.259,52.400 60.464,50.167 L57.333,50.167 C56.953,50.167 56.589,50.016 56.320,49.746 L53.453,46.879 L55.480,44.853 L57.927,47.300 ZM64.500,50.167 C65.292,50.167 65.933,49.525 65.933,48.733 C65.933,47.941 65.292,47.300 64.500,47.300 C63.708,47.300 63.067,47.941 63.067,48.733 C63.067,49.525 63.708,50.167 64.500,50.167 ZM66.773,41.566 L60.200,41.566 C59.820,41.566 59.455,41.416 59.187,41.147 L57.753,39.713 L59.780,37.687 L60.793,38.700 L67.367,38.700 C67.747,38.699 68.111,38.850 68.380,39.118 L74.125,44.863 C74.698,44.583 75.328,44.436 75.967,44.433 C78.342,44.433 80.267,46.358 80.267,48.733 C80.267,51.108 78.342,53.033 75.967,53.033 C73.592,53.033 71.667,51.108 71.667,48.733 C71.669,48.095 71.816,47.465 72.097,46.892 L66.773,41.566 ZM75.967,50.167 C76.758,50.167 77.400,49.525 77.400,48.733 C77.400,47.941 76.758,47.300 75.967,47.300 C75.175,47.300 74.533,47.941 74.533,48.733 C74.533,49.525 75.175,50.167 75.967,50.167 ZM74.533,38.700 L71.667,38.700 L71.667,35.833 L74.533,35.833 L74.533,38.700 ZM61.633,35.833 L61.633,32.967 L64.500,32.967 L64.500,35.833 L61.633,35.833 ZM61.633,27.233 L67.630,27.233 C68.236,25.514 69.862,24.365 71.685,24.368 C74.054,24.373 75.971,26.297 75.967,28.666 C75.970,30.489 74.821,32.115 73.102,32.721 C70.867,33.508 68.418,32.335 67.630,30.100 L61.633,30.100 L61.633,27.233 ZM71.667,30.100 C72.458,30.100 73.100,29.458 73.100,28.666 C73.100,27.875 72.458,27.233 71.667,27.233 C70.875,27.233 70.233,27.875 70.233,28.666 C70.233,29.458 70.875,30.100 71.667,30.100 ZM77.418,21.254 C75.179,22.046 72.722,20.872 71.930,18.633 L67.960,18.633 L64.080,22.513 C63.811,22.782 63.447,22.933 63.067,22.933 L58.767,22.933 L58.767,20.067 L62.473,20.067 L66.353,16.186 C66.622,15.917 66.986,15.767 67.367,15.767 L71.930,15.767 C72.363,14.542 73.327,13.579 74.551,13.146 C76.790,12.354 79.247,13.528 80.038,15.767 C80.830,18.006 79.657,20.462 77.418,21.254 ZM75.967,15.767 C75.175,15.767 74.533,16.408 74.533,17.200 C74.533,17.991 75.175,18.633 75.967,18.633 C76.758,18.633 77.400,17.991 77.400,17.200 C77.400,16.408 76.758,15.767 75.967,15.767 ZM67.367,8.600 L73.100,8.600 L73.100,11.467 L67.367,11.467 L67.367,8.600 ZM60.932,15.021 C58.581,15.409 56.361,13.817 55.973,11.467 L53.627,11.467 L52.613,12.480 L50.587,10.453 L52.020,9.020 C52.289,8.751 52.653,8.600 53.033,8.600 L56.498,8.600 C57.144,7.485 58.256,6.718 59.528,6.508 C61.878,6.120 64.099,7.711 64.487,10.062 C64.875,12.413 63.283,14.633 60.932,15.021 ZM60.200,9.317 C59.408,9.317 58.767,9.958 58.767,10.750 C58.767,11.541 59.408,12.183 60.200,12.183 C60.992,12.183 61.633,11.541 61.633,10.750 C61.633,9.958 60.992,9.317 60.200,9.317 ZM52.638,14.863 C53.049,15.336 53.255,16.046 53.255,16.991 L53.255,36.230 C53.255,38.376 52.365,39.450 50.586,39.450 C50.141,39.450 49.740,39.386 49.384,39.258 C49.028,39.130 48.694,38.927 48.383,38.649 C48.072,38.371 47.783,38.046 47.516,37.673 C47.249,37.300 46.982,36.919 46.715,36.530 L37.420,22.280 L37.420,36.613 C37.420,37.548 37.204,38.254 36.770,38.733 C36.336,39.211 35.779,39.450 35.101,39.450 C34.400,39.450 33.838,39.208 33.416,38.724 C32.993,38.240 32.782,37.537 32.782,36.613 L32.782,17.741 C32.782,16.941 32.870,16.312 33.049,15.856 C33.260,15.356 33.610,14.947 34.100,14.629 C34.589,14.313 35.118,14.154 35.685,14.154 C36.130,14.154 36.511,14.227 36.828,14.371 C37.145,14.516 37.423,14.711 37.662,14.955 C37.901,15.200 38.146,15.517 38.397,15.906 C38.647,16.295 38.905,16.701 39.172,17.124 L48.700,31.541 L48.700,16.991 C48.700,16.046 48.903,15.336 49.309,14.863 C49.715,14.390 50.263,14.154 50.953,14.154 C51.665,14.154 52.226,14.390 52.638,14.863 ZM28.073,12.900 L25.536,12.900 C24.931,14.612 23.316,15.759 21.500,15.767 C19.682,15.770 18.059,14.627 17.448,12.914 C16.653,10.681 17.818,8.226 20.052,7.430 C22.285,6.634 24.741,7.800 25.536,10.033 L28.667,10.033 C29.047,10.033 29.411,10.184 29.680,10.453 L32.547,13.320 L30.520,15.346 L28.073,12.900 ZM21.500,10.033 C20.708,10.033 20.067,10.675 20.067,11.467 C20.067,12.259 20.708,12.900 21.500,12.900 C22.292,12.900 22.933,12.259 22.933,11.467 C22.933,10.675 22.292,10.033 21.500,10.033 Z"/>
</svg>