<svg 
 xmlns="http://www.w3.org/2000/svg"
 xmlns:xlink="http://www.w3.org/1999/xlink"
 width="559px" height="210px">
<path fill-rule="evenodd"  fill="rgb(255, 255, 255)"
 d="M47.790,54.985 L48.996,52.931 L35.279,34.236 L40.280,0.320 L38.124,-0.004 L34.928,21.672 L27.126,23.126 L20.084,13.529 L18.333,14.839 L24.739,23.570 L0.345,28.106 L-0.010,30.516 L33.526,35.546 L47.790,54.985 ZM28.540,25.053 L34.595,23.925 L33.444,31.735 L28.540,25.053 ZM6.163,29.222 L26.153,25.498 L31.696,33.051 L6.163,29.222 Z"/>
<path fill-rule="evenodd"  fill="rgb(255, 255, 255)"
 d="M304.925,91.571 L307.242,91.997 L319.828,72.771 L352.942,65.860 L352.500,63.731 L331.337,68.148 L327.309,61.345 L333.770,51.475 L331.954,50.284 L326.076,59.263 L313.489,37.985 L311.135,38.477 L318.013,71.579 L304.925,91.571 ZM326.011,63.327 L329.137,68.608 L321.512,70.199 L326.011,63.327 ZM314.456,43.811 L324.778,61.245 L319.693,69.013 L314.456,43.811 Z"/>
<path fill-rule="evenodd"  fill="rgb(76, 76, 76)"
 d="M383.003,104.971 L385.000,105.985 L401.735,92.146 L433.834,94.950 L434.013,92.919 L413.497,91.127 L411.680,83.922 L420.271,76.818 L418.940,75.255 L411.124,81.718 L405.451,59.188 L403.170,58.988 L400.405,90.582 L383.003,104.971 ZM409.955,85.348 L411.365,90.940 L403.973,90.295 L409.955,85.348 ZM404.743,64.681 L409.399,83.144 L402.637,88.736 L404.743,64.681 Z"/>
<path fill-rule="evenodd"  fill="rgb(255, 255, 255)"
 d="M456.498,199.958 L457.393,201.201 L471.909,198.031 L490.531,209.808 L491.278,208.628 L479.376,201.101 L480.536,196.147 L487.988,194.519 L487.670,193.150 L480.891,194.631 L484.523,179.142 L483.199,178.305 L471.592,196.661 L456.498,199.958 ZM479.039,196.474 L478.139,200.319 L473.851,197.607 L479.039,196.474 ZM482.366,182.262 L479.394,194.958 L473.529,196.239 L482.366,182.262 Z"/>
<path fill-rule="evenodd"  fill="rgb(255, 255, 255)"
 d="M349.177,167.565 L351.037,169.029 L371.121,157.738 L403.728,167.046 L404.323,164.939 L383.482,158.989 L383.057,151.028 L393.367,145.232 L392.307,143.319 L382.927,148.592 L381.606,123.698 L379.288,123.037 L370.061,155.825 L349.177,167.565 ZM380.986,152.192 L381.316,158.371 L373.808,156.227 L380.986,152.192 ZM379.766,129.354 L380.856,149.756 L372.741,154.318 L379.766,129.354 Z"/>
<path fill-rule="evenodd"  fill="rgb(253, 167, 0)"
 d="M477.441,90.206 L480.196,92.342 L509.854,75.686 L558.113,89.163 L558.984,86.070 L528.140,77.457 L527.479,65.787 L542.704,57.237 L541.128,54.438 L527.277,62.217 L525.226,25.731 L521.796,24.774 L508.280,72.886 L477.441,90.206 ZM524.422,67.505 L524.934,76.562 L513.821,73.458 L524.422,67.505 ZM522.527,34.033 L524.220,63.934 L512.237,70.664 L522.527,34.033 Z"/>
</svg>