<svg id="Oduvan_Parts" data-name="Oduvan Parts" xmlns="http://www.w3.org/2000/svg" width="631.411" height="406.563" viewBox="0 0 631.411 406.563">
  <metadata><?xpacket begin="﻿" id="W5M0MpCehiHzreSzNTczkc9d"?>
<x:xmpmeta xmlns:x="adobe:ns:meta/" x:xmptk="Adobe XMP Core 5.6-c138 79.159824, 2016/09/14-01:09:01        ">
   <rdf:RDF xmlns:rdf="http://www.w3.org/1999/02/22-rdf-syntax-ns#">
      <rdf:Description rdf:about=""/>
   </rdf:RDF>
</x:xmpmeta>
                                                                                                    
                                                                                                    
                                                                                                    
                                                                                                    
                                                                                                    
                                                                                                    
                                                                                                    
                                                                                                    
                                                                                                    
                                                                                                    
                                                                                                    
                                                                                                    
                                                                                                    
                                                                                                    
                                                                                                    
                                                                                                    
                                                                                                    
                                                                                                    
                                                                                                    
                                                                                                    
                           
<?xpacket end="w"?></metadata>
<defs>
    <style>
      .cls-1 {
        fill: #4c4c4c;
      }

      .cls-1, .cls-2, .cls-3, .cls-4 {
        fill-rule: evenodd;
      }

      .cls-2 {
        fill: #4b4b4b;
      }

      .cls-3 {
        fill: #fff;
      }

      .cls-4 {
        fill: #fda700;
      }
    </style>
  </defs>
  <path id="Фигура_657" data-name="Фигура 657" class="cls-1" d="M1236,250.342l1.46,1.651L1276,219.1l-1.46-1.651Zm38.54-32.893-22.01-1.461-0.16,2.2,19.77,1.313ZM1276,219.1l-1.62,21.621-2.23-.147,1.45-19.426Z" transform="translate(-779.969 -144.906)"/>
  <path id="Фигура_657_копия_3" data-name="Фигура 657 копия 3" class="cls-2" d="M799.579,343.444l1.909,3.138,1.573,2.586-5.226-1.294h0l-1.354-.335-11.73-19.286-1.2.754,7.5,12.331,1.908,3.137,1.57,2.58-5.7-1.412v0.006L787.8,345.4l-7.5-1.858-0.317,1.409,31.395,7.772-0.264-1.553-5.249-1.3,0,0-0.842-.208-11.734-19.293-1.2.754Z" transform="translate(-779.969 -144.906)"/>
  <path id="Фигура_658" data-name="Фигура 658" class="cls-1" d="M970.008,170.333l-11.561,9.452-0.462-1.339L969.547,169Zm-1.551-.419,1.247-.463,5.615,16.268-1.247.462Zm-16.216-8.108,1.247-.463,6.056,17.545-1.246.462Z" transform="translate(-779.969 -144.906)"/>
  <path id="Фигура_658_копия" data-name="Фигура 658 копия" class="cls-1" d="M1255.08,534.472l-12.06,10.821-0.57-1.431,12.06-10.818Zm-1.7-.38,1.32-.562,6.87,17.39-1.32.562Zm-17.96-8.019,1.33-.562,7.41,18.755-1.33.562Z" transform="translate(-779.969 -144.906)"/>
  <path id="Фигура_660" data-name="Фигура 660" class="cls-1" d="M834.469,528.018l0-.007-2.094.82-0.033-.014-2.885,1.129-3.566,1.4-3.064,1.2-0.374-.941-1.4-3.531-1.134-2.856-0.021-.009-0.83-2.091-1.407.549L821.4,533.1l-9.53,3.73,0.553,1.393,2.1-.821,0.032,0.014,2.885-1.129,3.567-1.4,0.96-.376,1.2,3.025,1.4,3.531,1.134,2.856,0.021,0.009,0.83,2.091,0.008,0,0,0.007,11.625-4.55,3.74,9.418,1.406-.55-0.27-.682,0.01,0-3.473-8.745,8.832-3.457-0.023-.01,0.707-.276-0.554-1.393-9.521,3.728-4.568-11.5Zm3.161,12.052-10.226,4-4.017-10.117,10.226-4Z" transform="translate(-779.969 -144.906)"/>
  <path id="Фигура_658-2" data-name="Фигура 658" class="cls-3" d="M1202.47,312.228l1.12,1.983,45.6-25.3-1.12-1.983Zm45.6-25.3-21.8-6.109-0.62,2.195,19.58,5.489Zm1.12,1.983-6.15,21.613-2.21-.62,5.52-19.418Z" transform="translate(-779.969 -144.906)"/>
  <path id="Фигура_657_копия_2" data-name="Фигура 657 копия 2" class="cls-3" d="M1167.1,189.936l-1.16-5.709-2.11.479,6.65,32.707-13.11,20.065,2.3,0.381,12.61-19.3,32.94-7.452-0.43-2.1-21.05,4.762-5.36,1.212-4.41,1,4.5-6.9h0l1.3-1.989,6.48-9.906-1.8-1.149-12.28,18.8Z" transform="translate(-779.969 -144.906)"/>
  <path id="Фигура_657-2" data-name="Фигура 657" class="cls-3" d="M895.888,177.572l-0.832,5.561-0.687,4.583-5-6.627h0l-1.3-1.717,5.12-34.181-2.2-.286-3.273,21.853-0.833,5.561-0.685,4.573-5.453-7.234-0.006.005-0.98-1.3-7.176-9.519-1.787,1.35,30.018,39.82,1.232-2.088-5.019-6.657,0.006,0-0.8-1.067,5.121-34.192-2.2-.286Z" transform="translate(-779.969 -144.906)"/>
  <path id="Фигура_657-3" data-name="Фигура 657" class="cls-4" d="M1375.1,179.563l2.35-8.265-3.08-.81-13.45,47.372-30.68,17.376,2.75,2.062,29.5-16.711,48.01,12.62,0.86-3.046-30.68-8.065-7.81-2.053-6.43-1.691,10.54-5.974h0l3.04-1.723,15.15-8.578-1.57-2.726-28.74,16.279Z" transform="translate(-779.969 -144.906)"/>
  <path id="Фигура_657_копия" data-name="Фигура 657 копия" class="cls-3" d="M1338.74,324.163l2.37-3.735-1.41-.851-13.56,21.417-17.73,4.094,1.06,1.418,17.05-3.937,21.97,13.245,0.87-1.377-14.04-8.465-3.57-2.154-2.94-1.776,6.09-1.407h0l1.76-.406,8.76-2.021-0.38-1.574-16.62,3.835Z" transform="translate(-779.969 -144.906)"/>
</svg>
