<svg 
 xmlns="http://www.w3.org/2000/svg"
 xmlns:xlink="http://www.w3.org/1999/xlink"
 width="403px" height="403px">
<path fill-rule="evenodd"  fill="rgb(253, 167, 0)"
 d="M211.366,201.341 L211.646,201.093 L205.809,194.508 L205.529,194.756 L205.541,194.382 L198.335,194.153 L199.684,190.195 L199.330,190.075 L199.640,189.865 L196.809,185.682 L196.499,185.892 L196.174,185.708 L191.833,193.372 L187.921,180.354 L187.563,180.462 L187.284,180.212 L181.084,187.141 L181.363,187.390 L180.989,187.395 L181.069,193.197 L166.752,178.502 L166.484,178.763 L166.151,178.934 L172.978,192.266 L170.275,196.624 L159.994,194.936 L159.933,195.306 L159.659,195.561 L166.383,202.806 L171.220,209.326 L162.848,217.838 L163.115,218.100 L163.273,218.440 L173.990,213.449 L181.352,216.031 L181.831,225.796 L182.205,225.778 L182.529,225.966 L187.031,218.207 L195.345,225.252 L195.587,224.966 L195.961,224.973 L196.168,213.103 L197.616,215.076 L197.917,214.855 L198.292,214.855 L198.292,210.119 L202.485,206.247 L202.231,205.971 L202.453,205.670 L196.752,201.455 L211.359,201.715 L211.366,201.341 ZM210.520,200.951 L196.842,200.708 L205.461,195.243 L210.520,200.951 ZM166.858,202.217 L160.951,195.852 L170.268,197.382 L175.784,203.703 L166.858,202.217 ZM181.456,194.132 L181.305,194.474 L187.259,197.112 L181.497,199.074 L173.709,192.051 L167.950,180.804 L181.188,194.393 L181.456,194.132 ZM188.567,207.986 L188.517,205.034 L192.050,207.557 L192.050,213.551 L188.567,207.986 ZM181.452,199.990 L187.471,204.288 L181.456,209.065 L177.258,204.254 L181.452,199.990 ZM176.765,203.688 L171.496,197.651 L180.671,199.717 L176.765,203.688 ZM182.221,199.619 L187.645,197.772 L187.743,203.561 L182.221,199.619 ZM187.768,205.009 L187.819,208.076 L186.689,216.616 L181.916,209.657 L187.768,205.009 ZM192.286,206.805 L188.501,204.102 L188.392,197.663 L195.088,201.219 L192.286,206.805 ZM188.990,197.132 L188.925,196.941 L189.180,197.214 L191.870,194.698 L197.301,194.870 L195.374,200.523 L188.990,197.132 ZM188.728,196.612 L188.373,196.733 L188.012,183.259 L191.302,194.204 L188.728,196.612 ZM187.431,189.520 L181.993,187.248 L187.214,181.414 L187.431,189.520 ZM187.453,190.342 L187.617,196.452 L181.827,193.886 L181.745,187.956 L187.453,190.342 ZM173.489,192.862 L180.097,198.820 L171.056,196.784 L173.489,192.862 ZM180.800,209.451 L164.833,216.887 L176.732,204.789 L180.800,209.451 ZM186.489,217.649 L182.517,224.495 L181.848,210.882 L186.489,217.649 ZM188.429,209.177 L192.082,215.013 L194.844,223.847 L187.330,217.479 L188.429,209.177 ZM195.476,202.116 L197.543,210.004 L197.543,213.711 L192.862,207.327 L195.476,202.116 ZM198.122,209.256 L196.218,201.993 L201.644,206.004 L198.122,209.256 ZM204.301,195.091 L196.284,200.175 L198.083,194.895 L204.301,195.091 ZM196.528,186.602 L198.915,190.130 L197.553,194.129 L192.358,193.964 L196.528,186.602 ZM167.524,203.087 L175.973,204.493 L171.752,208.785 L167.524,203.087 ZM174.962,212.996 L181.063,210.155 L181.312,215.223 L174.962,212.996 ZM195.253,222.645 L192.799,214.798 L192.799,208.508 L195.437,212.106 L195.253,222.645 Z"/>
<path fill-rule="evenodd"  fill="rgb(76, 76, 76)"
 d="M382.972,229.926 L382.601,229.991 L382.644,229.617 L327.556,223.311 L361.599,206.052 L378.648,209.722 L378.728,209.354 L379.082,209.482 L383.709,196.619 L383.354,196.491 L383.713,196.378 L374.461,166.929 L374.101,167.041 L373.726,167.010 L371.056,199.209 L358.269,170.445 L400.000,160.765 L399.916,160.399 L399.997,160.031 L348.913,148.672 L374.442,111.584 L374.133,111.371 L374.475,111.214 L370.335,102.195 L369.992,102.352 L369.804,102.027 L355.442,110.345 L337.914,106.322 L334.793,90.345 L334.423,90.417 L334.364,90.045 L327.342,91.161 L308.589,72.973 L308.327,73.243 L308.303,72.867 L277.934,74.811 L302.745,36.543 L302.430,36.339 L302.430,35.962 L274.952,35.962 L274.952,36.339 L274.623,36.156 L263.384,56.387 L254.464,61.469 L258.461,50.988 L258.109,50.854 L257.894,50.546 L236.877,65.257 L255.363,6.589 L255.004,6.476 L255.188,6.147 L244.178,-0.000 L243.995,0.328 L243.631,0.233 L240.517,12.132 L225.424,16.150 L225.520,16.514 L225.163,16.395 L222.779,23.547 L223.136,23.666 L222.776,23.776 L225.570,32.885 L216.090,45.040 L207.372,27.184 L213.811,14.648 L213.476,14.476 L213.389,14.110 L204.985,16.088 L194.340,0.368 L194.029,0.579 L193.974,0.207 L179.420,2.340 L179.475,2.712 L179.101,2.757 L180.650,15.674 L170.708,32.801 L165.569,23.868 L164.795,8.089 L164.419,8.108 L164.261,7.766 L154.799,12.157 L154.958,12.499 L154.599,12.384 L151.389,22.422 L151.747,22.537 L151.384,22.636 L154.511,34.091 L135.027,43.149 L135.027,43.150 L112.666,53.311 L112.822,53.654 L112.446,53.631 L110.146,92.470 L106.757,92.610 L106.325,89.857 L105.953,89.915 L106.283,89.735 L97.532,73.706 L97.202,73.886 L97.378,73.553 L88.208,68.700 L81.726,44.272 L81.362,44.369 L81.383,43.993 L65.794,43.115 L65.773,43.491 L65.396,43.491 L65.396,56.627 L58.202,52.819 L58.026,53.152 L57.663,53.252 L61.872,68.466 L49.911,67.144 L49.870,67.518 L49.515,67.642 L56.286,87.104 L29.727,81.078 L29.644,81.446 L29.281,81.344 L26.548,91.036 L26.910,91.138 L26.591,91.338 L38.282,109.997 L11.369,104.183 L11.290,104.550 L10.921,104.476 L8.851,114.714 L9.220,114.789 L9.087,115.141 L51.400,131.065 L52.517,147.831 L40.248,139.572 L40.038,139.884 L39.932,139.523 L25.111,143.866 L25.217,144.228 L24.841,144.246 L25.217,151.854 L25.593,151.835 L25.545,152.209 L47.185,154.972 L8.542,167.187 L8.655,167.546 L8.655,167.546 L8.315,167.386 L4.362,175.797 L4.703,175.957 L4.667,176.332 L16.933,177.514 L41.485,195.024 L26.200,202.525 L10.953,190.934 L10.725,191.233 L10.349,191.230 L10.161,212.413 L10.537,212.416 L10.397,212.765 L33.712,222.146 L1.100,224.531 L1.127,224.906 L0.752,224.876 L-0.001,234.366 L0.375,234.395 L0.462,234.762 L55.949,221.544 L13.692,254.866 L13.925,255.161 L13.911,255.538 L33.442,256.251 L29.173,285.785 L29.545,285.839 L29.596,286.212 L47.068,283.836 L56.272,294.188 L37.609,307.319 L37.826,307.627 L37.961,307.978 L68.637,296.165 L68.502,295.814 L68.876,295.851 L69.903,285.519 L77.941,279.864 L82.624,302.728 L82.993,302.652 L82.821,302.987 L101.821,312.715 L73.346,344.496 L73.627,344.748 L73.291,344.918 L79.462,357.151 L79.798,356.981 L80.119,357.178 L105.067,316.594 L120.013,333.423 L112.006,352.092 L112.351,352.240 L112.426,352.609 L133.806,348.274 L123.119,372.640 L123.464,372.791 L123.187,373.046 L132.400,383.048 L132.677,382.792 L133.040,382.891 L143.595,343.964 L153.823,338.252 L149.427,394.029 L149.802,394.058 L149.857,394.431 L160.151,392.925 L160.096,392.553 L160.347,392.833 L181.450,373.963 L179.728,390.444 L180.102,390.482 L179.855,390.767 L193.970,403.001 L194.217,402.716 L194.593,402.698 L192.367,357.984 L199.885,354.962 L197.457,365.934 L197.825,366.015 L197.784,366.390 L211.663,367.895 L211.718,367.381 L213.795,379.442 L214.166,379.378 L214.524,379.492 L228.916,334.162 L236.010,359.905 L236.373,359.805 L236.616,360.092 L255.369,344.227 L259.420,354.485 L259.770,354.347 L260.057,354.590 L270.688,342.056 L290.478,356.159 L290.696,355.852 L290.779,356.220 L304.300,353.208 L304.218,352.841 L304.591,352.797 L301.188,324.189 L300.814,324.233 L301.175,324.125 L295.395,304.976 L323.290,307.166 L323.319,306.791 L323.572,307.070 L331.734,299.706 L356.606,287.684 L356.442,287.345 L356.608,287.007 L319.587,268.816 L354.398,260.146 L372.549,268.408 L372.705,268.065 L373.007,268.290 L381.022,257.519 L380.719,257.294 L380.848,256.940 L367.157,251.945 L384.334,238.899 L384.107,238.599 L384.478,238.534 L382.972,229.926 ZM383.635,238.087 L331.531,224.524 L382.279,230.333 L383.635,238.087 ZM306.852,271.987 L306.938,271.966 L322.214,305.283 L298.956,284.240 L302.360,261.981 L306.737,271.527 L306.852,271.987 ZM246.788,292.847 L259.484,301.845 L289.523,354.554 L270.920,341.297 L246.788,292.847 ZM261.989,304.720 L303.520,352.611 L290.886,355.424 L261.989,304.720 ZM270.834,285.671 L284.974,304.151 L260.424,301.283 L270.834,285.671 ZM271.558,285.378 L288.536,284.861 L299.856,322.363 L271.558,285.378 ZM285.867,273.413 L297.677,284.099 L289.093,284.099 L285.867,273.413 ZM302.962,261.486 L317.405,268.584 L307.362,271.084 L302.962,261.486 ZM302.179,260.682 L301.807,260.625 L298.287,283.634 L285.368,271.946 L285.116,272.226 L284.755,272.334 L288.311,284.114 L270.801,284.647 L270.813,285.023 L270.500,284.815 L259.672,301.055 L246.000,291.366 L245.783,291.673 L245.411,291.612 L242.265,310.585 L224.501,316.512 L209.271,315.258 L209.240,315.633 L208.874,315.546 L205.403,330.056 L186.584,329.320 L168.145,315.832 L167.923,316.136 L167.552,316.070 L164.962,330.824 L149.807,321.052 L155.059,301.684 L154.695,301.586 L154.351,301.435 L146.642,319.011 L131.031,308.944 L117.507,295.795 L117.245,296.065 L116.964,295.813 L103.088,311.300 L106.697,294.261 L106.329,294.183 L106.393,293.811 L95.478,291.929 L95.414,292.300 L95.173,292.012 L83.734,301.545 L91.489,276.762 L91.129,276.649 L91.056,276.280 L78.129,278.854 L70.461,279.897 L72.703,257.331 L72.328,257.294 L72.342,256.917 L61.067,256.506 L56.414,242.600 L63.876,219.913 L63.519,219.795 L63.881,219.695 L58.687,200.780 L71.727,182.607 L71.421,182.388 L71.508,182.021 L60.195,179.346 L79.866,165.876 L79.653,165.565 L80.002,165.423 L70.090,141.141 L76.482,136.380 L76.257,136.078 L76.631,136.041 L75.090,120.442 L87.504,127.879 L87.698,127.557 L88.066,127.481 L81.317,94.413 L110.517,93.208 L110.501,92.832 L110.733,93.129 L125.224,81.823 L125.330,82.056 L125.673,81.901 L125.954,82.150 L133.684,73.402 L143.281,116.440 L143.648,116.358 L144.024,116.376 L146.028,74.909 L163.310,66.330 L167.694,82.392 L168.057,82.293 L168.043,82.669 L191.595,83.593 L191.609,83.217 L191.879,83.480 L207.221,67.718 L206.951,67.456 L207.328,67.456 L207.328,49.256 L212.504,48.062 L218.053,67.558 L218.415,67.456 L218.761,67.604 L222.278,59.430 L226.154,67.370 L226.493,67.205 L226.857,67.300 L231.125,50.991 L235.821,66.299 L237.055,71.696 L237.421,71.612 L237.608,71.939 L253.012,63.163 L241.855,92.416 L242.207,92.550 L242.530,92.743 L247.914,83.736 L267.753,78.926 L271.212,84.413 L278.725,119.305 L279.093,119.226 L279.267,119.560 L295.719,110.993 L301.571,118.592 L304.818,139.941 L305.190,139.884 L304.837,140.014 L312.313,160.387 L294.804,201.060 L295.150,201.208 L295.152,201.585 L311.571,201.477 L301.599,219.344 L301.928,219.527 L301.621,219.745 L310.236,231.909 L310.543,231.692 L310.414,232.045 L331.072,239.582 L318.882,243.258 L318.991,243.618 L318.835,243.961 L335.652,251.615 L302.084,260.317 L302.179,260.682 ZM209.490,350.014 L206.081,330.456 L209.467,316.300 L228.133,331.319 L228.354,332.123 L209.490,350.014 ZM224.255,317.247 L227.790,330.077 L210.431,316.109 L224.255,317.247 ZM229.405,331.377 L228.794,330.885 L225.005,317.138 L242.380,311.341 L249.781,330.080 L229.405,331.377 ZM191.603,357.781 L193.797,401.854 L180.497,390.326 L186.569,332.219 L191.603,357.781 ZM168.189,316.796 L186.058,329.868 L181.709,371.483 L165.624,331.408 L168.189,316.796 ZM130.054,309.044 L105.822,315.365 L117.319,296.662 L130.054,309.044 ZM146.202,319.622 L113.417,350.711 L130.965,309.797 L146.202,319.622 ZM149.144,320.624 L147.283,319.424 L153.009,306.369 L149.144,320.624 ZM95.521,292.701 L105.880,294.488 L102.161,312.042 L83.671,302.576 L95.521,292.701 ZM69.694,280.001 L31.111,285.247 L71.875,258.049 L69.694,280.001 ZM48.026,202.000 L56.943,220.447 L34.575,222.083 L26.707,203.303 L48.436,201.775 L48.365,201.836 L48.026,202.000 ZM62.702,218.244 L48.786,201.751 L57.995,201.103 L62.702,218.244 ZM58.298,200.031 L45.967,180.312 L70.734,182.700 L58.298,200.031 ZM57.625,200.375 L28.052,202.455 L51.676,190.861 L57.625,200.375 ZM33.391,221.205 L10.916,212.162 L11.095,191.987 L25.849,203.204 L33.391,221.205 ZM34.882,222.815 L52.894,221.498 L36.014,225.519 L34.882,222.815 ZM35.272,225.696 L0.791,233.910 L1.477,225.258 L34.090,222.873 L35.272,225.696 ZM50.004,204.362 L63.095,219.877 L55.722,242.296 L15.705,254.237 L57.757,221.078 L57.523,220.782 L57.862,220.618 L50.004,204.362 ZM55.777,243.065 L60.264,256.477 L16.224,254.868 L55.777,243.065 ZM62.002,135.181 L69.001,140.981 L50.222,153.502 L62.002,135.181 ZM52.012,130.491 L28.061,92.267 L46.943,103.579 L61.181,133.942 L52.012,130.491 ZM74.286,119.960 L75.671,133.977 L66.859,115.510 L74.286,119.960 ZM65.691,114.811 L75.784,135.961 L69.643,140.535 L62.220,134.384 L48.100,104.272 L65.691,114.811 ZM78.989,164.934 L49.767,154.709 L69.456,141.582 L78.989,164.934 ZM46.900,164.983 L27.361,171.582 L10.070,167.494 L48.460,155.358 L46.900,164.983 ZM46.764,165.823 L45.170,175.658 L45.913,175.779 L49.229,155.319 L78.827,165.675 L59.205,179.112 L28.744,171.909 L46.764,165.823 ZM64.611,108.738 L57.443,88.139 L67.564,90.435 L74.008,116.202 L64.611,108.738 ZM74.976,116.971 L65.020,77.162 L80.512,94.232 L87.122,126.619 L74.976,116.971 ZM191.821,82.460 L186.971,61.490 L206.257,67.629 L191.821,82.460 ZM206.575,66.941 L186.867,60.667 L187.732,53.774 L206.575,49.429 L206.575,66.941 ZM186.464,57.840 L179.892,3.031 L193.594,1.023 L186.464,57.840 ZM191.132,82.822 L168.417,81.930 L166.587,44.625 L186.116,61.138 L191.132,82.822 ZM167.513,78.866 L155.640,35.369 L165.801,43.960 L167.513,78.866 ZM163.109,65.590 L146.314,73.927 L156.910,42.879 L163.109,65.590 ZM143.407,113.548 L134.300,72.705 L141.766,64.256 L145.283,74.723 L143.407,113.548 ZM141.489,63.433 L133.860,72.066 L113.501,53.758 L134.962,44.006 L141.489,63.433 ZM135.650,43.690 L146.086,38.838 L141.809,62.021 L135.650,43.690 ZM133.362,72.630 L125.775,81.216 L113.911,55.139 L133.362,72.630 ZM218.487,66.334 L208.475,31.158 L221.842,58.537 L218.487,66.334 ZM207.328,29.877 L212.297,47.337 L207.328,48.483 L207.328,29.877 ZM274.948,78.145 L271.564,83.561 L268.252,78.307 L260.104,63.346 L263.646,57.421 L274.948,78.145 ZM277.428,75.598 L307.437,73.677 L286.318,97.421 L275.820,78.171 L277.428,75.598 ZM317.145,142.775 L312.665,159.163 L305.777,140.392 L317.145,142.775 ZM306.229,139.717 L320.192,131.630 L317.344,142.047 L306.229,139.717 ZM325.279,177.093 L319.821,169.561 L335.231,153.527 L347.211,149.661 L325.279,177.093 ZM313.326,160.598 L333.717,154.016 L319.372,168.942 L313.326,160.598 ZM313.264,159.827 L317.884,142.930 L346.822,148.995 L313.264,159.827 ZM312.802,161.156 L324.819,177.740 L311.993,200.721 L295.723,200.828 L312.802,161.156 ZM320.878,186.346 L350.115,200.470 L312.858,200.715 L320.878,186.346 ZM349.625,201.226 L302.757,218.814 L312.436,201.471 L349.625,201.226 ZM351.807,201.212 L369.714,201.093 L326.785,222.858 L329.366,209.633 L351.807,201.212 ZM351.822,200.459 L321.245,185.688 L325.418,178.211 L369.734,200.340 L351.822,200.459 ZM336.367,164.430 L356.242,170.142 L326.235,177.102 L336.367,164.430 ZM336.876,163.793 L348.194,149.637 L357.067,169.596 L336.876,163.793 ZM346.422,148.143 L318.082,142.202 L321.024,131.444 L346.422,148.143 ZM342.547,144.694 L371.225,114.930 L348.186,148.401 L342.547,144.694 ZM305.479,139.282 L302.427,119.218 L320.081,130.825 L305.479,139.282 ZM296.397,110.640 L331.727,92.245 L301.984,117.894 L296.397,110.640 ZM295.931,110.034 L286.928,98.343 L332.197,91.151 L295.931,110.034 ZM286.375,98.858 L295.253,110.387 L279.749,118.460 L286.375,98.858 ZM285.834,98.106 L279.173,117.812 L271.966,84.339 L275.362,78.904 L285.834,98.106 ZM259.656,64.096 L267.362,78.247 L248.456,82.831 L259.656,64.096 ZM320.057,243.690 L332.034,240.078 L336.106,250.994 L320.057,243.690 ZM310.783,231.378 L302.518,219.708 L328.538,209.944 L325.898,223.470 L326.268,223.542 L325.915,223.674 L331.626,238.982 L310.783,231.378 ZM374.318,168.986 L382.957,196.483 L378.485,208.917 L362.665,205.511 L371.480,201.042 L371.310,200.706 L371.310,200.706 L371.685,200.738 L374.318,168.986 ZM370.540,199.901 L326.368,177.844 L357.522,170.618 L370.540,199.901 ZM348.934,149.448 L398.216,160.406 L357.957,169.744 L348.934,149.448 ZM373.683,111.294 L341.907,144.273 L321.513,130.865 L369.823,102.885 L373.683,111.294 ZM322.067,129.674 L337.755,107.058 L354.487,110.898 L322.067,129.674 ZM337.191,106.550 L320.697,130.329 L302.552,118.398 L334.178,91.125 L337.191,106.550 ZM287.225,97.534 L308.347,73.786 L326.413,91.308 L287.225,97.534 ZM275.174,36.715 L301.737,36.715 L276.896,75.030 L277.211,75.235 L276.892,75.035 L275.406,77.413 L264.091,56.664 L275.174,36.715 ZM262.603,57.698 L244.092,88.662 L254.042,62.576 L262.603,57.698 ZM237.676,71.034 L236.608,66.364 L257.321,51.866 L253.434,62.055 L237.676,71.034 ZM244.236,0.894 L254.553,6.655 L236.189,64.933 L231.487,49.606 L244.236,0.894 ZM225.813,16.826 L240.297,12.969 L231.068,48.236 L223.531,23.671 L225.813,16.826 ZM225.840,33.763 L230.705,49.622 L226.385,66.128 L216.458,45.793 L225.840,33.763 ZM204.819,16.514 L204.905,16.880 L212.768,15.030 L206.616,27.007 L206.951,27.179 L206.575,27.179 L206.575,48.657 L187.832,52.979 L194.278,1.618 L204.507,16.725 L204.819,16.514 ZM180.799,16.917 L185.861,59.144 L171.141,33.555 L180.799,16.917 ZM185.057,59.256 L166.536,43.596 L165.650,25.519 L185.057,59.256 ZM155.266,12.771 L164.070,8.684 L165.750,42.931 L155.290,34.087 L152.140,22.545 L155.266,12.771 ZM156.608,41.773 L156.504,41.737 L145.665,73.497 L142.303,63.491 L146.924,38.449 L154.712,34.828 L156.608,41.773 ZM113.108,55.191 L124.903,81.119 L110.926,92.023 L113.108,55.191 ZM81.020,93.672 L65.546,76.622 L105.616,90.198 L106.000,92.641 L81.020,93.672 ZM105.160,89.249 L64.601,75.507 L58.621,53.893 L96.925,74.166 L105.160,89.249 ZM66.149,43.889 L81.068,44.729 L87.301,68.220 L66.149,57.025 L66.149,43.889 ZM50.422,67.958 L62.088,69.248 L63.928,75.900 L63.928,75.900 L67.359,89.617 L57.152,87.301 L50.422,67.958 ZM63.509,107.863 L31.171,82.178 L56.578,87.943 L63.509,107.863 ZM29.852,82.092 L82.987,124.296 L27.351,90.964 L29.852,82.092 ZM11.583,104.999 L38.841,110.888 L50.849,130.054 L9.652,114.550 L11.583,104.999 ZM61.346,134.809 L53.244,147.409 L52.175,131.357 L61.346,134.809 ZM52.428,148.678 L48.741,154.412 L25.953,151.502 L25.607,144.505 L39.975,140.295 L52.428,148.678 ZM8.866,167.983 L65.959,181.483 L5.271,175.634 L8.866,167.983 ZM18.433,177.659 L45.022,180.221 L51.274,190.219 L42.253,194.647 L18.433,177.659 ZM71.150,257.628 L30.038,285.058 L34.198,256.278 L71.150,257.628 ZM47.967,283.714 L69.618,280.771 L69.188,285.102 L56.892,293.753 L47.967,283.714 ZM68.150,295.546 L40.538,306.179 L69.089,286.091 L68.150,295.546 ZM70.385,280.667 L76.714,279.806 L70.001,284.529 L70.385,280.667 ZM78.639,279.520 L90.581,277.142 L83.069,301.148 L78.639,279.520 ZM74.079,344.808 L114.732,299.433 L79.831,356.210 L74.079,344.808 ZM105.701,316.174 L130.146,309.797 L120.341,332.659 L105.701,316.174 ZM113.563,351.610 L145.715,321.123 L134.176,347.430 L113.563,351.610 ZM132.492,382.036 L123.907,372.717 L146.977,320.122 L148.937,321.386 L132.492,382.036 ZM149.601,321.814 L164.504,331.424 L143.870,342.948 L149.601,321.814 ZM164.662,332.199 L150.540,389.494 L154.613,337.811 L164.662,332.199 ZM159.930,392.196 L150.302,393.605 L165.320,332.672 L181.478,372.927 L159.930,392.196 ZM192.260,357.215 L186.916,330.086 L205.232,330.803 L200.082,354.072 L192.260,357.215 ZM198.283,365.687 L205.653,332.385 L208.869,350.835 L208.869,350.835 L211.677,367.140 L198.283,365.687 ZM209.645,350.906 L228.482,333.041 L214.275,377.792 L209.645,350.906 ZM236.579,359.137 L229.334,332.845 L229.564,332.121 L250.008,330.820 L249.996,330.623 L255.077,343.488 L236.579,359.137 ZM242.987,310.830 L245.964,292.882 L270.177,341.494 L259.889,353.624 L242.987,310.830 ZM303.699,351.669 L260.690,302.073 L285.611,304.984 L300.452,324.380 L303.699,351.669 ZM289.320,284.852 L298.509,284.852 L322.248,306.330 L295.161,304.203 L289.320,284.852 ZM319.580,269.652 L355.582,287.342 L331.717,298.878 L319.580,269.652 ZM318.827,269.282 L318.643,269.359 L331.072,299.289 L323.448,306.168 L307.682,271.781 L318.453,269.098 L318.827,269.282 ZM318.539,268.301 L303.256,260.791 L336.742,252.110 L353.296,259.645 L318.539,268.301 ZM372.584,267.597 L337.074,251.434 L332.901,240.249 L380.116,257.474 L372.584,267.597 ZM332.555,239.321 L326.873,224.089 L383.262,238.768 L366.316,251.638 L332.555,239.321 Z"/>
<path fill-rule="evenodd"  fill="rgb(167, 167, 167)"
 d="M311.567,231.589 L326.929,223.630 L326.756,223.296 L326.817,222.924 L302.659,218.941 L296.042,201.065 L325.983,177.715 L325.751,177.417 L325.667,177.050 L305.423,181.704 L291.361,176.362 L294.290,166.136 L306.257,162.423 L313.288,160.446 L313.084,159.721 L306.149,161.671 L297.297,159.262 L305.992,139.700 L305.648,139.547 L305.479,139.210 L290.811,146.535 L302.729,118.225 L302.381,118.078 L302.212,117.742 L291.370,123.213 L272.959,115.832 L286.971,97.920 L286.674,97.688 L286.547,97.333 L262.848,105.825 L259.646,102.580 L272.286,84.084 L271.975,83.871 L271.873,83.508 L242.854,91.691 L236.911,65.699 L236.544,65.783 L236.212,65.604 L223.927,88.315 L227.211,66.845 L226.904,66.798 L226.904,66.788 L226.835,66.788 L226.466,66.731 L226.457,66.785 L207.272,66.662 L207.269,67.039 L206.894,67.003 L205.665,79.601 L187.165,83.409 L187.120,60.507 L186.743,60.508 L186.458,60.262 L168.200,81.454 L146.014,73.905 L145.892,74.262 L145.516,74.246 L143.808,115.052 L125.872,80.682 L125.538,80.856 L125.163,80.817 L123.154,99.993 L106.330,89.206 L106.126,89.523 L105.754,89.582 L108.218,105.278 L88.090,102.251 L88.047,102.534 L81.300,93.444 L80.998,93.668 L80.628,93.744 L87.428,127.046 L69.527,140.375 L69.753,140.677 L69.435,140.880 L87.000,168.306 L79.953,164.916 L79.789,165.256 L79.451,165.090 L71.206,181.931 L71.545,182.097 L71.419,182.452 L85.932,187.604 L58.227,200.092 L58.382,200.435 L58.107,200.693 L73.869,217.478 L57.567,220.161 L57.628,220.533 L57.252,220.507 L55.744,242.349 L56.120,242.375 L55.868,242.655 L72.202,257.364 L72.454,257.084 L72.285,257.421 L86.875,264.747 L78.009,278.838 L78.328,279.040 L78.401,279.409 L91.011,276.899 L95.208,292.228 L95.572,292.129 L95.508,292.501 L117.370,296.269 L117.434,295.897 L117.741,296.116 L129.553,279.558 L130.627,309.100 L131.004,309.086 L131.128,309.442 L154.965,301.141 L165.135,331.439 L165.493,331.319 L165.864,331.384 L171.193,301.036 L171.387,301.036 L186.408,330.485 L186.743,330.314 L187.120,330.314 L187.120,307.695 L205.720,330.552 L206.013,330.314 L206.384,330.378 L211.157,302.250 L224.612,317.002 L224.891,316.748 L225.249,316.634 L214.489,283.099 L225.373,275.017 L225.427,275.059 L242.628,310.883 L242.968,310.719 L243.340,310.778 L246.428,291.287 L259.932,301.722 L260.163,301.424 L260.540,301.424 L260.540,284.010 L271.179,285.219 L271.222,284.844 L271.473,285.125 L285.796,272.313 L285.545,272.032 L285.911,271.942 L282.372,257.622 L302.573,260.848 L302.632,260.476 L302.957,260.284 L294.269,245.537 L319.495,243.769 L319.469,243.394 L319.777,243.176 L311.567,231.589 ZM213.870,249.247 L244.078,280.027 L258.295,299.505 L226.030,274.573 L213.870,249.247 ZM129.806,277.990 L115.537,271.696 L137.105,255.535 L137.105,270.399 L137.393,270.399 L129.806,277.990 ZM123.248,100.948 L143.830,116.724 L151.363,131.158 L146.404,132.073 L108.456,91.465 L123.248,100.948 ZM150.010,114.956 L159.735,118.828 L163.618,128.896 L152.139,131.015 L149.432,125.828 L150.010,114.956 ZM266.072,225.246 L263.149,213.418 L290.077,217.701 L285.770,231.794 L266.072,225.246 ZM197.491,231.621 L186.974,223.500 L186.743,223.798 L186.382,223.693 L182.996,235.341 L177.241,226.613 L179.237,219.249 L178.874,219.151 L178.721,218.807 L160.409,226.952 L157.881,218.334 L165.740,211.522 L165.493,211.237 L165.869,211.218 L165.648,206.928 L165.272,206.947 L165.502,206.649 L155.451,198.895 L150.280,193.652 L167.511,194.092 L167.520,193.715 L167.866,193.566 L157.652,169.911 L163.069,169.244 L176.790,186.227 L177.083,185.990 L177.452,185.912 L174.742,173.103 L173.922,155.612 L182.857,178.777 L183.209,178.642 L183.511,178.867 L193.733,165.134 L190.938,186.821 L191.312,186.869 L191.643,187.049 L208.727,155.662 L200.189,181.539 L200.547,181.657 L200.694,182.004 L211.301,177.513 L200.651,188.746 L200.924,189.005 L201.084,189.346 L215.561,182.578 L211.277,191.224 L211.615,191.391 L211.615,191.392 L211.326,191.633 L218.315,200.001 L214.935,208.331 L203.965,207.595 L203.940,207.971 L203.588,208.106 L210.077,225.038 L199.320,217.461 L199.103,217.769 L198.727,217.736 L197.491,231.621 ZM119.186,268.019 L159.957,228.206 L161.835,236.063 L119.186,268.019 ZM136.794,236.044 L114.603,271.379 L91.791,268.696 L97.668,249.080 L136.794,236.044 ZM157.255,218.877 L159.706,227.235 L139.410,234.346 L157.255,218.877 ZM137.920,235.666 L158.689,228.389 L116.802,269.295 L137.920,235.666 ZM160.608,227.689 L178.027,219.940 L164.729,244.923 L160.608,227.689 ZM177.634,222.282 L172.763,240.244 L172.763,240.244 L167.691,257.311 L164.994,246.030 L177.634,222.282 ZM167.106,258.106 L147.883,278.176 L164.459,247.035 L167.106,258.106 ZM167.142,259.158 L158.149,289.416 L146.827,280.369 L167.142,259.158 ZM173.355,240.901 L180.140,244.497 L168.753,256.386 L173.355,240.901 ZM180.524,243.848 L173.567,240.160 L176.977,227.584 L182.720,236.292 L180.524,243.848 ZM111.977,211.207 L76.146,217.104 L90.173,206.981 L111.977,211.207 ZM108.041,174.172 L88.484,150.920 L163.852,192.138 L108.041,174.172 ZM145.705,132.705 L145.752,132.960 L151.728,131.857 L156.749,141.478 L162.464,167.134 L135.457,129.620 L145.705,132.705 ZM134.734,128.615 L109.879,94.091 L145.040,131.717 L134.734,128.615 ZM202.219,105.189 L222.518,91.341 L205.197,143.701 L199.636,125.232 L202.219,105.189 ZM226.826,122.409 L251.965,110.823 L219.744,154.811 L218.435,137.826 L226.826,122.409 ZM258.862,103.571 L260.775,126.072 L256.052,130.392 L253.523,109.987 L258.862,103.571 ZM277.908,185.200 L303.123,182.701 L284.614,190.978 L277.908,185.200 ZM294.563,200.548 L220.316,199.576 L242.168,188.742 L276.942,185.295 L276.909,185.334 L294.563,200.548 ZM211.182,225.817 L204.647,208.766 L214.325,213.812 L215.127,220.825 L214.881,221.010 L226.677,236.733 L211.182,225.817 ZM215.132,214.233 L243.089,228.812 L215.859,220.594 L215.132,214.233 ZM205.707,208.468 L215.109,209.098 L232.710,214.949 L245.184,229.054 L205.707,208.468 ZM218.960,200.414 L245.904,210.441 L232.932,214.229 L215.682,208.495 L218.960,200.414 ZM247.125,210.869 L262.340,213.289 L265.226,224.964 L234.189,214.647 L247.125,210.869 ZM247.198,210.118 L220.919,200.338 L293.534,201.288 L262.609,212.569 L247.198,210.118 ZM218.848,199.463 L212.361,191.696 L240.048,188.952 L218.848,199.463 ZM226.859,177.295 L233.611,179.638 L212.462,190.531 L216.657,182.066 L226.859,177.295 ZM215.277,190.650 L272.313,172.955 L241.957,188.005 L215.277,190.650 ZM215.611,189.757 L234.738,179.906 L234.565,179.571 L234.689,179.215 L227.838,176.838 L245.122,168.757 L274.769,171.404 L215.611,189.757 ZM204.378,186.974 L247.015,156.159 L247.414,156.053 L244.727,168.110 L204.378,186.974 ZM163.580,168.677 L161.365,158.734 L174.019,173.325 L176.390,184.532 L163.580,168.677 ZM161.020,157.186 L157.692,142.245 L173.068,153.504 L173.940,172.083 L161.020,157.186 ZM199.400,127.064 L204.784,144.947 L199.985,159.454 L195.879,154.382 L199.400,127.064 ZM196.093,146.823 L187.106,142.598 L187.118,131.403 L198.790,125.898 L196.093,146.823 ZM175.259,125.467 L186.364,131.387 L186.352,142.615 L178.540,146.408 L175.259,125.467 ZM175.113,124.535 L171.450,101.157 L186.386,109.489 L186.365,130.534 L175.113,124.535 ZM182.289,175.213 L173.810,153.228 L171.660,107.365 L182.289,175.213 ZM183.442,177.697 L178.662,147.186 L186.351,143.453 L186.321,173.830 L183.442,177.697 ZM187.105,143.431 L195.992,147.608 L193.930,163.607 L187.075,172.816 L187.105,143.431 ZM195.746,155.416 L199.704,160.304 L192.188,183.021 L195.746,155.416 ZM200.450,160.450 L209.141,153.325 L192.989,183.001 L200.450,160.450 ZM217.773,139.042 L219.060,155.745 L201.652,179.511 L210.742,151.960 L217.773,139.042 ZM247.733,146.949 L246.565,141.415 L255.899,131.571 L268.510,133.989 L247.733,146.949 ZM246.072,140.841 L234.880,135.423 L252.872,110.861 L255.372,131.032 L246.072,140.841 ZM234.427,136.041 L245.528,141.414 L228.091,159.805 L229.566,150.818 L229.194,150.757 L229.019,150.423 L220.709,154.770 L234.427,136.041 ZM219.699,156.149 L228.700,151.441 L227.168,160.779 L212.597,176.146 L201.659,180.777 L219.699,156.149 ZM227.721,161.291 L244.979,156.701 L203.974,186.336 L227.721,161.291 ZM246.687,155.467 L228.710,160.247 L245.935,142.080 L247.106,147.632 L247.475,147.554 L247.675,147.874 L269.707,134.131 L287.965,125.634 L246.687,155.467 ZM256.576,130.933 L261.167,126.735 L268.276,133.177 L256.576,130.933 ZM210.099,151.566 L200.892,159.112 L205.492,145.210 L217.096,138.711 L210.099,151.566 ZM187.119,130.569 L187.140,109.909 L195.667,114.666 L198.797,125.061 L187.119,130.569 ZM187.141,109.047 L187.164,86.422 L195.355,113.629 L187.141,109.047 ZM186.387,108.627 L171.567,100.359 L186.411,84.813 L186.387,108.627 ZM172.951,151.001 L160.445,118.576 L170.640,101.707 L172.951,151.001 ZM172.623,152.243 L157.400,141.097 L152.503,131.714 L163.894,129.611 L172.623,152.243 ZM162.554,168.548 L157.118,169.217 L141.568,166.395 L119.219,124.733 L134.272,129.264 L162.554,168.548 ZM139.227,165.680 L88.847,149.843 L114.452,147.714 L139.227,165.680 ZM141.064,167.048 L150.210,183.819 L90.448,151.137 L141.064,167.048 ZM142.030,167.245 L156.588,169.887 L151.100,183.876 L142.030,167.245 ZM157.123,170.588 L166.740,192.859 L151.627,184.595 L157.123,170.588 ZM118.199,124.426 L139.417,163.978 L113.174,133.921 L111.665,122.459 L118.199,124.426 ZM138.852,164.477 L114.913,147.117 L113.352,135.270 L138.852,164.477 ZM114.072,146.508 L106.644,141.122 L101.443,121.629 L112.457,134.245 L114.072,146.508 ZM106.190,141.723 L113.516,147.036 L86.981,149.242 L71.346,141.083 L106.190,141.723 ZM119.400,178.620 L164.912,193.272 L149.387,192.875 L120.311,188.707 L119.400,178.620 ZM119.544,188.597 L74.875,182.193 L118.631,178.494 L119.544,188.597 ZM149.177,193.607 L154.312,198.814 L121.262,199.243 L120.380,189.478 L149.177,193.607 ZM96.243,241.798 L92.792,230.868 L136.499,216.682 L96.243,241.798 ZM114.113,211.619 L137.716,215.495 L93.313,229.907 L105.685,213.006 L114.113,211.619 ZM139.277,214.988 L115.805,211.134 L154.464,199.788 L151.247,206.041 L151.582,206.214 L151.562,206.590 L163.226,207.215 L139.277,214.988 ZM152.184,205.868 L155.329,199.754 L164.082,206.506 L152.184,205.868 ZM152.457,199.592 L114.918,210.608 L121.136,199.998 L152.457,199.592 ZM104.623,213.181 L92.088,230.305 L76.217,235.456 L93.713,215.126 L93.566,215.001 L104.623,213.181 ZM92.075,231.101 L95.583,242.210 L72.926,256.346 L75.398,236.514 L92.075,231.101 ZM139.467,215.719 L164.920,207.457 L165.103,211.009 L79.042,253.418 L139.467,215.719 ZM228.129,238.677 L228.132,238.672 L240.606,255.296 L223.507,250.565 L200.756,219.395 L228.129,238.677 ZM241.012,275.826 L212.909,247.191 L211.851,235.875 L241.012,275.826 ZM224.222,251.545 L241.225,256.249 L243.824,278.400 L224.222,251.545 ZM216.992,222.568 L243.994,242.235 L241.368,255.058 L216.992,222.568 ZM217.198,221.785 L246.377,230.591 L244.160,241.423 L217.198,221.785 ZM234.134,215.423 L264.414,225.489 L246.945,229.908 L234.134,215.423 ZM264.140,212.813 L295.012,201.551 L290.299,216.973 L264.140,212.813 ZM295.628,202.116 L301.805,218.803 L291.051,217.093 L295.628,202.116 ZM295.605,200.451 L285.245,191.522 L305.517,182.455 L324.179,178.165 L295.605,200.451 ZM244.077,187.796 L276.724,171.608 L303.765,181.880 L244.077,187.796 ZM285.221,156.756 L304.802,162.086 L277.495,170.558 L285.221,156.756 ZM276.495,170.801 L246.481,168.122 L289.167,148.164 L276.495,170.801 ZM289.777,147.047 L245.589,167.707 L248.235,155.835 L278.857,147.692 L278.760,147.327 L279.054,147.564 L301.000,120.389 L289.777,147.047 ZM278.545,146.995 L248.723,154.925 L291.585,123.948 L300.988,119.203 L278.545,146.995 ZM269.593,133.353 L261.726,126.224 L272.432,116.433 L290.439,123.652 L269.593,133.353 ZM261.477,125.430 L259.624,103.630 L271.809,115.981 L261.477,125.430 ZM258.859,102.396 L252.894,109.565 L246.444,112.538 L243.004,92.432 L271.079,84.516 L258.859,102.396 ZM245.736,112.864 L227.417,121.306 L242.389,93.308 L245.736,112.864 ZM217.772,137.468 L205.842,144.150 L223.034,92.183 L226.169,122.041 L217.772,137.468 ZM202.382,104.165 L206.356,80.146 L226.282,67.930 L222.878,90.183 L202.382,104.165 ZM201.495,104.911 L201.867,104.973 L201.493,104.925 L199.104,123.463 L187.269,84.157 L205.552,80.394 L201.495,104.911 ZM186.412,83.720 L171.222,99.629 L168.717,82.009 L186.368,61.521 L186.412,83.720 ZM170.566,100.371 L160.134,117.634 L146.479,74.859 L167.979,82.174 L170.566,100.371 ZM133.548,128.259 L111.551,121.637 L106.744,91.026 L133.548,128.259 ZM110.842,121.989 L110.842,121.989 L112.279,132.896 L101.284,120.302 L109.986,116.534 L110.842,121.989 ZM100.315,120.328 L105.665,140.377 L88.186,126.992 L81.706,95.255 L100.315,120.328 ZM87.842,127.678 L105.175,140.950 L70.862,140.321 L87.842,127.678 ZM86.662,149.926 L106.765,173.825 L88.272,168.895 L70.833,141.667 L86.662,149.926 ZM88.118,169.634 L107.711,174.858 L117.069,177.870 L72.775,181.614 L88.118,169.634 ZM119.614,189.368 L120.490,199.072 L75.234,183.006 L119.614,189.368 ZM113.922,210.817 L62.060,200.764 L120.255,200.009 L113.922,210.817 ZM89.158,206.785 L74.676,217.236 L59.455,201.027 L89.158,206.785 ZM92.704,215.142 L74.837,235.904 L69.030,237.789 L74.921,218.069 L92.704,215.142 ZM74.607,236.771 L72.169,256.321 L56.857,242.532 L74.607,236.771 ZM163.036,212.868 L137.481,235.021 L77.576,254.980 L163.036,212.868 ZM90.939,268.909 L91.300,269.017 L91.256,269.392 L112.385,271.876 L79.113,278.499 L96.206,251.331 L90.939,268.909 ZM137.859,254.970 L154.424,242.558 L148.397,259.391 L137.859,269.933 L137.859,254.970 ZM155.518,241.738 L162.026,236.862 L164.194,245.928 L133.105,304.336 L155.518,241.738 ZM146.389,280.984 L157.918,290.196 L154.895,300.367 L131.789,308.414 L146.389,280.984 ZM158.553,290.704 L170.543,300.283 L155.707,300.283 L158.553,290.704 ZM158.785,289.924 L168.283,257.967 L180.171,245.555 L170.706,299.449 L158.785,289.924 ZM186.366,226.445 L186.366,319.479 L181.137,244.438 L186.366,226.445 ZM187.120,228.000 L197.621,286.043 L187.120,281.088 L187.120,228.000 ZM187.289,224.696 L197.431,232.526 L198.045,284.152 L187.289,224.696 ZM199.389,218.801 L210.982,234.684 L212.072,246.338 L198.197,232.200 L199.389,218.801 ZM244.728,279.639 L242.068,256.966 L259.786,274.229 L259.786,300.269 L244.728,279.639 ZM241.980,255.828 L244.663,242.722 L259.786,253.737 L259.786,273.176 L241.980,255.828 ZM260.540,254.286 L284.946,272.062 L271.233,284.328 L260.540,273.910 L260.540,254.286 ZM244.829,241.911 L247.083,230.903 L300.503,259.754 L260.571,253.376 L244.829,241.911 ZM247.846,230.458 L265.742,225.930 L285.765,232.586 L301.621,259.501 L247.846,230.458 ZM290.828,217.820 L301.866,219.576 L295.999,235.194 L286.486,232.031 L290.828,217.820 ZM302.484,220.074 L318.496,242.673 L296.715,235.432 L302.484,220.074 ZM303.211,219.795 L325.576,223.483 L311.127,230.968 L303.211,219.795 ZM290.654,176.094 L277.860,171.234 L293.430,166.403 L290.654,176.094 ZM285.601,156.079 L290.340,147.613 L304.877,140.353 L296.561,159.062 L285.601,156.079 ZM285.574,98.482 L272.320,115.426 L263.431,106.416 L285.574,98.482 ZM242.176,92.107 L226.802,120.858 L223.613,90.479 L236.400,66.842 L242.176,92.107 ZM207.611,67.418 L225.488,67.533 L206.461,79.197 L207.611,67.418 ZM146.180,76.403 L159.425,117.894 L149.801,114.062 L149.662,114.411 L149.285,114.392 L148.747,124.515 L144.507,116.390 L146.180,76.403 ZM125.783,82.139 L143.004,115.141 L123.862,100.469 L125.783,82.139 ZM108.341,106.058 L109.865,115.765 L100.785,119.696 L88.442,103.066 L108.341,106.058 ZM79.963,165.758 L87.323,169.298 L72.603,180.792 L79.963,165.758 ZM118.807,199.274 L60.187,200.035 L86.849,188.018 L86.801,187.913 L118.807,199.274 ZM57.983,220.856 L74.094,218.205 L68.159,238.071 L56.535,241.844 L57.983,220.856 ZM73.435,257.155 L96.483,249.475 L87.278,264.105 L73.435,257.155 ZM91.752,276.751 L113.710,272.381 L95.759,291.383 L91.752,276.751 ZM117.265,295.485 L96.329,291.877 L114.887,272.233 L129.314,278.596 L117.265,295.485 ZM130.272,278.589 L147.802,261.052 L131.309,307.115 L130.272,278.589 ZM165.378,329.792 L155.725,301.036 L170.428,301.036 L165.378,329.792 ZM171.618,300.660 L171.853,300.365 L171.378,299.986 L180.595,247.500 L186.238,328.495 L171.953,300.488 L171.618,300.660 ZM187.120,281.922 L197.786,286.955 L205.381,328.941 L187.120,306.502 L187.120,281.922 ZM206.001,328.130 L198.533,286.853 L198.831,286.849 L198.212,234.841 L213.660,282.984 L206.001,328.130 ZM214.161,284.544 L224.003,315.216 L211.317,301.306 L214.161,284.544 ZM198.650,233.739 L212.233,247.578 L225.066,274.306 L214.246,282.341 L198.650,233.739 ZM242.785,309.467 L226.757,276.086 L245.749,290.762 L242.785,309.467 ZM260.540,274.963 L270.169,284.345 L260.540,283.251 L260.540,274.963 ZM284.931,271.119 L261.914,254.354 L281.564,257.493 L284.931,271.119 ZM286.853,232.948 L317.543,243.150 L293.841,244.811 L286.853,232.948 Z"/>
<path fill-rule="evenodd"  fill="rgb(253, 167, 0)"
 d="M370.185,202.841 C368.695,202.841 367.488,201.632 367.488,200.140 C367.488,198.647 368.695,197.438 370.185,197.438 C371.674,197.438 372.881,198.647 372.881,200.140 C372.881,201.632 371.674,202.841 370.185,202.841 ZM356.979,172.567 C355.489,172.567 354.282,171.357 354.282,169.865 C354.282,168.373 355.489,167.164 356.979,167.164 C358.468,167.164 359.675,168.373 359.675,169.865 C359.675,171.357 358.468,172.567 356.979,172.567 ZM331.644,242.112 C330.155,242.112 328.948,240.903 328.948,239.410 C328.948,237.918 330.155,236.709 331.644,236.709 C333.134,236.709 334.341,237.918 334.341,239.410 C334.341,240.903 333.134,242.112 331.644,242.112 ZM323.120,308.787 C321.630,308.787 320.423,307.578 320.423,306.085 C320.423,304.594 321.630,303.384 323.120,303.384 C324.609,303.384 325.816,304.594 325.816,306.085 C325.816,307.578 324.609,308.787 323.120,308.787 ZM296.075,113.133 C294.585,113.133 293.378,111.923 293.378,110.431 C293.378,108.939 294.585,107.730 296.075,107.730 C297.564,107.730 298.772,108.939 298.772,110.431 C298.772,111.923 297.564,113.133 296.075,113.133 ZM263.479,59.627 C261.990,59.627 260.783,58.417 260.783,56.925 C260.783,55.433 261.990,54.223 263.479,54.223 C264.969,54.223 266.176,55.433 266.176,56.925 C266.176,58.417 264.969,59.627 263.479,59.627 ZM250.363,332.853 C248.874,332.853 247.667,331.643 247.667,330.151 C247.667,328.659 248.874,327.449 250.363,327.449 C251.853,327.449 253.060,328.659 253.060,330.151 C253.060,331.643 251.853,332.853 250.363,332.853 ZM206.787,29.509 C205.297,29.509 204.090,28.299 204.090,26.807 C204.090,25.315 205.297,24.105 206.787,24.105 C208.276,24.105 209.483,25.315 209.483,26.807 C209.483,28.299 208.276,29.509 206.787,29.509 ZM181.769,375.881 C180.279,375.881 179.072,374.672 179.072,373.180 C179.072,371.687 180.279,370.478 181.769,370.478 C183.258,370.478 184.465,371.687 184.465,373.180 C184.465,374.672 183.258,375.881 181.769,375.881 ZM141.908,65.746 C140.419,65.746 139.212,64.537 139.212,63.044 C139.212,61.552 140.419,60.343 141.908,60.343 C143.398,60.343 144.605,61.552 144.605,63.044 C144.605,64.537 143.398,65.746 141.908,65.746 ZM120.314,336.142 C118.825,336.142 117.617,334.932 117.617,333.440 C117.617,331.948 118.825,330.738 120.314,330.738 C121.803,330.738 123.011,331.948 123.011,333.440 C123.011,334.932 121.803,336.142 120.314,336.142 ZM64.976,78.476 C63.487,78.476 62.280,77.266 62.280,75.774 C62.280,74.282 63.487,73.072 64.976,73.072 C66.466,73.072 67.673,74.282 67.673,75.774 C67.673,77.266 66.466,78.476 64.976,78.476 ZM48.641,157.315 C47.152,157.315 45.944,156.105 45.944,154.613 C45.944,153.121 47.152,151.911 48.641,151.911 C50.130,151.911 51.338,153.121 51.338,154.613 C51.338,156.105 50.130,157.315 48.641,157.315 ZM30.335,287.955 C28.846,287.955 27.639,286.745 27.639,285.253 C27.639,283.761 28.846,282.551 30.335,282.551 C31.825,282.551 33.032,283.761 33.032,285.253 C33.032,286.745 31.825,287.955 30.335,287.955 ZM26.047,205.559 C24.558,205.559 23.351,204.349 23.351,202.857 C23.351,201.365 24.558,200.155 26.047,200.155 C27.537,200.155 28.744,201.365 28.744,202.857 C28.744,204.349 27.537,205.559 26.047,205.559 Z"/>
</svg>