<svg xmlns="http://www.w3.org/2000/svg" width="50" height="27" viewBox="0 0 50 27">
  <metadata><?xpacket begin="﻿" id="W5M0MpCehiHzreSzNTczkc9d"?>
<x:xmpmeta xmlns:x="adobe:ns:meta/" x:xmptk="Adobe XMP Core 5.6-c140 79.160451, 2017/05/06-01:08:21        ">
   <rdf:RDF xmlns:rdf="http://www.w3.org/1999/02/22-rdf-syntax-ns#">
      <rdf:Description rdf:about=""/>
   </rdf:RDF>
</x:xmpmeta>
                                                                                                    
                                                                                                    
                                                                                                    
                                                                                                    
                                                                                                    
                                                                                                    
                                                                                                    
                                                                                                    
                                                                                                    
                                                                                                    
                                                                                                    
                                                                                                    
                                                                                                    
                                                                                                    
                                                                                                    
                                                                                                    
                                                                                                    
                                                                                                    
                                                                                                    
                                                                                                    
                           
<?xpacket end="w"?></metadata>
<defs>
    <style>
      .cls-1 {
        fill: #212121;
        fill-rule: evenodd;
      }
    </style>
  </defs>
  <path id="Фигура_44_копия_3" data-name="Фигура 44 копия 3" class="cls-1" d="M1058.05,846.434a2.818,2.818,0,0,0-.25-2.178,5.715,5.715,0,0,0-2.16-1.58,7.84,7.84,0,0,1-3.31-2.16,4.1,4.1,0,0,1-.53-3.5,4.91,4.91,0,0,1,1.92-3.172,5.916,5.916,0,0,1,3.6-1.1,4.079,4.079,0,0,1,4.29,5.361h-2.44a3.432,3.432,0,0,0-.29-2.549,2.132,2.132,0,0,0-1.93-.946,2.516,2.516,0,0,0-1.72.7,3.01,3.01,0,0,0-.98,1.682,2.756,2.756,0,0,0,.23,2.166,6.112,6.112,0,0,0,2.32,1.58,7.4,7.4,0,0,1,3.19,2.177,4.248,4.248,0,0,1,.49,3.5,4.919,4.919,0,0,1-1.95,3.2,6.2,6.2,0,0,1-3.68,1.065,5.6,5.6,0,0,1-3.78-1.286q-1.5-1.287-.9-3.991l0.02-.06h2.35c-0.27,1.308-.12,2.218.44,2.728a3.217,3.217,0,0,0,2.24.766,2.759,2.759,0,0,0,1.78-.688A2.819,2.819,0,0,0,1058.05,846.434Zm4.09,3.7a7.712,7.712,0,0,1,1.33-3.311,2.735,2.735,0,0,1,2.23-1.109,1.992,1.992,0,0,1,1.07.295,2.053,2.053,0,0,1,.74.838l0.31-.973h1.4l-1.72,8.48a4.842,4.842,0,0,1-1.4,2.713,3.744,3.744,0,0,1-2.6.925,3.834,3.834,0,0,1-1.08-.171,3.461,3.461,0,0,1-.99-0.451l0.59-1.212a2.813,2.813,0,0,0,.78.386,3.159,3.159,0,0,0,.95.14,1.731,1.731,0,0,0,1.34-.626,3.755,3.755,0,0,0,.79-1.712l0.09-.439a2.918,2.918,0,0,1-.86.575,2.554,2.554,0,0,1-.98.191,1.929,1.929,0,0,1-1.82-1.256,4.973,4.973,0,0,1-.21-3.115Zm1.59,0.168a5.044,5.044,0,0,0-.05,2.277,1.019,1.019,0,0,0,1.05.842,1.39,1.39,0,0,0,.86-0.3,2.85,2.85,0,0,0,.71-0.842l0.86-4.276a1.517,1.517,0,0,0-.45-0.754,1.141,1.141,0,0,0-.8-0.276,1.564,1.564,0,0,0-1.3.862,7.074,7.074,0,0,0-.84,2.3Zm11.72-6.942a21.367,21.367,0,0,1,2.8-7.988A12.325,12.325,0,0,1,1082.3,831l0.07,0.012,0.22,1.28a12.417,12.417,0,0,0-2.88,4.118,24.747,24.747,0,0,0-2.06,6.928l-0.04.24a21.847,21.847,0,0,0-.22,6.976,8.851,8.851,0,0,0,1.57,4.117l-0.63,1.233h-0.08q-1.62-1.113-2.6-4.44a17.9,17.9,0,0,1-.23-7.91Zm14.8-9.107-0.65,3.219h1.93l-0.35,1.736h-1.93l-1.56,7.706a2.624,2.624,0,0,0-.02,1.467,0.686,0.686,0,0,0,.67.389,3.644,3.644,0,0,0,.51-0.036c0.17-.024.36-0.06,0.58-0.108l-0.1,1.676a5.814,5.814,0,0,1-.95.268,5.24,5.24,0,0,1-1.04.1,2.091,2.091,0,0,1-1.88-.915,3.822,3.822,0,0,1-.2-2.843l1.56-7.706h-1.62l0.35-1.736h1.62l0.66-3.219h2.42Zm9.43,9.311a21,21,0,0,1-2.84,7.976,12.523,12.523,0,0,1-4.08,4.362h-0.08l-0.25-1.221a12.83,12.83,0,0,0,2.88-4.146,25,25,0,0,0,2.09-6.947l0.03-.24a21.152,21.152,0,0,0,.17-6.989,9.248,9.248,0,0,0-1.53-4.129l0.66-1.22h0.07c1.08,0.726,1.95,2.22,2.63,4.482a17.646,17.646,0,0,1,.27,7.88Z" transform="translate(-1050 -831)"/>
</svg>
