<svg xmlns="http://www.w3.org/2000/svg" width="37.94" height="31.938" viewBox="0 0 37.94 31.938">
  <metadata><?xpacket begin="﻿" id="W5M0MpCehiHzreSzNTczkc9d"?>
<x:xmpmeta xmlns:x="adobe:ns:meta/" x:xmptk="Adobe XMP Core 5.6-c140 79.160451, 2017/05/06-01:08:21        ">
   <rdf:RDF xmlns:rdf="http://www.w3.org/1999/02/22-rdf-syntax-ns#">
      <rdf:Description rdf:about=""/>
   </rdf:RDF>
</x:xmpmeta>
                                                                                                    
                                                                                                    
                                                                                                    
                                                                                                    
                                                                                                    
                                                                                                    
                                                                                                    
                                                                                                    
                                                                                                    
                                                                                                    
                                                                                                    
                                                                                                    
                                                                                                    
                                                                                                    
                                                                                                    
                                                                                                    
                                                                                                    
                                                                                                    
                                                                                                    
                                                                                                    
                           
<?xpacket end="w"?></metadata>
<defs>
    <style>
      .cls-1 {
        fill: #212121;
        fill-rule: evenodd;
      }
    </style>
  </defs>
  <path id="Фигура_38" data-name="Фигура 38" class="cls-1" d="M1023.82,766.149c-0.02-.3-0.03-0.588-0.03-0.847a6.488,6.488,0,0,1,.05-0.768,5.82,5.82,0,0,1-1.5,1.341,3.247,3.247,0,0,1-1.72.515,2.419,2.419,0,0,1-2.12-1.008,3.264,3.264,0,0,1-.38-2.636,4.432,4.432,0,0,1,1.72-2.846,5.839,5.839,0,0,1,3.48-.957h1.62l0.25-1.272a2.786,2.786,0,0,0-.1-1.8,1.26,1.26,0,0,0-1.22-.6,1.927,1.927,0,0,0-1.34.579,2.637,2.637,0,0,0-.77,1.426l-2.21-.011-0.02-.069a4.13,4.13,0,0,1,1.61-2.6,5.064,5.064,0,0,1,3.23-1.071,3.225,3.225,0,0,1,2.6,1.1,3.5,3.5,0,0,1,.54,3.07l-1.16,5.751a11.373,11.373,0,0,0-.2,1.4,8.149,8.149,0,0,0,.01,1.306h-2.34Zm-2.31-1.547a2.594,2.594,0,0,0,1.43-.481,3.941,3.941,0,0,0,1.19-1.191l0.51-2.544H1023a2.264,2.264,0,0,0-1.64.7,3.126,3.126,0,0,0-.91,1.65,2.038,2.038,0,0,0,.09,1.381A1,1,0,0,0,1021.51,764.6Zm11.59,9.368h-1.54l1.67-8.264h1.54Zm2.1-10.433h-1.54l0.3-1.481h1.54Zm3.03-13.626a13.681,13.681,0,0,1,1.78-5.1,7.912,7.912,0,0,1,2.56-2.792l0.05,0.008,0.14,0.817a8.018,8.018,0,0,0-1.83,2.627,16.371,16.371,0,0,0-1.31,4.423l-0.02.152a14,14,0,0,0-.14,4.454,5.559,5.559,0,0,0,1,2.627l-0.4.787h-0.05a5.025,5.025,0,0,1-1.65-2.834,11.346,11.346,0,0,1-.14-5.049Zm10.4-3.758-1.78,8.83a3.986,3.986,0,0,1-1,2.093,2.4,2.4,0,0,1-1.76.679,2.043,2.043,0,0,1-.38-0.034,2.64,2.64,0,0,1-.38-0.1l0.32-1.184a1.428,1.428,0,0,0,.26.076,1.164,1.164,0,0,0,.26.031,0.84,0.84,0,0,0,.67-0.393,2.8,2.8,0,0,0,.47-1.165l1.78-8.83h1.54Zm0.41-2.192h-1.55l0.3-1.459h1.54Zm6.73,6.08a13.55,13.55,0,0,1-1.8,5.091,7.937,7.937,0,0,1-2.59,2.784h-0.04l-0.17-.779a8.072,8.072,0,0,0,1.83-2.647,15.468,15.468,0,0,0,1.32-4.434l0.03-.152a13.867,13.867,0,0,0,.1-4.461,5.9,5.9,0,0,0-.97-2.635l0.42-.779h0.05a5.153,5.153,0,0,1,1.66,2.86,11.556,11.556,0,0,1,.18,5.029Z" transform="translate(-1018.03 -742.031)"/>
</svg>
