<svg xmlns="http://www.w3.org/2000/svg" width="223" height="29" viewBox="0 0 223 29">
  <metadata><?xpacket begin="﻿" id="W5M0MpCehiHzreSzNTczkc9d"?>
<x:xmpmeta xmlns:x="adobe:ns:meta/" x:xmptk="Adobe XMP Core 5.6-c140 79.160451, 2017/05/06-01:08:21        ">
   <rdf:RDF xmlns:rdf="http://www.w3.org/1999/02/22-rdf-syntax-ns#">
      <rdf:Description rdf:about=""/>
   </rdf:RDF>
</x:xmpmeta>
                                                                                                    
                                                                                                    
                                                                                                    
                                                                                                    
                                                                                                    
                                                                                                    
                                                                                                    
                                                                                                    
                                                                                                    
                                                                                                    
                                                                                                    
                                                                                                    
                                                                                                    
                                                                                                    
                                                                                                    
                                                                                                    
                                                                                                    
                                                                                                    
                                                                                                    
                                                                                                    
                           
<?xpacket end="w"?></metadata>
<defs>
    <style>
      .cls-1 {
        fill: #212121;
        fill-rule: evenodd;
      }
    </style>
  </defs>
  <path id="Фигура_39" data-name="Фигура 39" class="cls-1" d="M1242.88,789.424a2.851,2.851,0,0,0-.25-2.174,5.541,5.541,0,0,0-2.11-1.578,7.64,7.64,0,0,1-3.23-2.156,4.162,4.162,0,0,1-.52-3.5,4.964,4.964,0,0,1,1.87-3.166,5.733,5.733,0,0,1,3.53-1.1,4.272,4.272,0,0,1,3.45,1.433,4.444,4.444,0,0,1,.73,3.919h-2.38a3.472,3.472,0,0,0-.29-2.545,2.049,2.049,0,0,0-1.88-.944,2.44,2.44,0,0,0-1.68.7,2.958,2.958,0,0,0-.95,1.679,2.8,2.8,0,0,0,.22,2.163,5.912,5.912,0,0,0,2.27,1.577,7.2,7.2,0,0,1,3.11,2.175,4.35,4.35,0,0,1,.48,3.488,4.978,4.978,0,0,1-1.9,3.191,6.019,6.019,0,0,1-3.6,1.063,5.4,5.4,0,0,1-3.69-1.285q-1.47-1.284-.88-3.984l0.03-.06h2.28c-0.26,1.307-.11,2.215.44,2.724a3.093,3.093,0,0,0,2.19.765,2.678,2.678,0,0,0,1.73-.687A2.928,2.928,0,0,0,1242.88,789.424Zm3.37,5.732a7.833,7.833,0,0,1,1.3-3.306,2.64,2.64,0,0,1,2.17-1.107,1.923,1.923,0,0,1,1.05.294,2.081,2.081,0,0,1,.72.837l0.3-.972h1.37l-1.67,8.467a4.876,4.876,0,0,1-1.38,2.708,3.585,3.585,0,0,1-2.53.925,3.676,3.676,0,0,1-1.05-.171,3.187,3.187,0,0,1-.97-0.451l0.57-1.21a2.753,2.753,0,0,0,.77.386,2.919,2.919,0,0,0,.92.139,1.674,1.674,0,0,0,1.31-.625,3.737,3.737,0,0,0,.77-1.708l0.08-.439a2.578,2.578,0,0,1-.83.574,2.437,2.437,0,0,1-.96.191,1.866,1.866,0,0,1-1.77-1.255,5.028,5.028,0,0,1-.21-3.11Zm1.55,0.167a5.031,5.031,0,0,0-.05,2.274,1.006,1.006,0,0,0,1.03.84,1.355,1.355,0,0,0,.84-0.3,2.962,2.962,0,0,0,.69-0.841l0.84-4.269a1.564,1.564,0,0,0-.43-0.753,1.154,1.154,0,0,0-.79-0.275,1.522,1.522,0,0,0-1.27.86,7.081,7.081,0,0,0-.82,2.295Zm12.06-8.97a21.469,21.469,0,0,1,2.74-7.975,12.19,12.19,0,0,1,3.94-4.367l0.08,0.012,0.21,1.278a12.382,12.382,0,0,0-2.81,4.111,25.389,25.389,0,0,0-2.02,6.918l-0.03.239a22.382,22.382,0,0,0-.22,6.966,8.971,8.971,0,0,0,1.53,4.11l-0.61,1.231h-0.07q-1.59-1.111-2.55-4.433a18.319,18.319,0,0,1-.22-7.9Zm11.87-9.092-0.64,3.214h1.88l-0.34,1.733h-1.89l-1.52,7.694a2.613,2.613,0,0,0-.02,1.464,0.666,0.666,0,0,0,.65.388,3.5,3.5,0,0,0,.5-0.036q0.255-.036.57-0.107l-0.1,1.673a5.544,5.544,0,0,1-.92.268,5.041,5.041,0,0,1-1.02.1,2.017,2.017,0,0,1-1.83-.914,3.91,3.91,0,0,1-.2-2.838l1.52-7.694h-1.58l0.35-1.733h1.57l0.64-3.214h2.38Zm16.95,9.3a21.268,21.268,0,0,1-2.77,7.964,12.406,12.406,0,0,1-3.99,4.355h-0.07l-0.25-1.219a12.833,12.833,0,0,0,2.82-4.14,24.971,24.971,0,0,0,2.03-6.936l0.04-.24a21.886,21.886,0,0,0,.16-6.977,9.37,9.37,0,0,0-1.49-4.122l0.64-1.219h0.07c1.05,0.725,1.91,2.216,2.56,4.475a17.887,17.887,0,0,1,.27,7.868Zm16,2.186h-8.29l0.38-1.911h8.29Zm0.99-4.994h-8.29l0.38-1.912h8.29Zm10.61,5.2,0.02,0.717,0.07,0.012,4.1-9.2h2.58l-7.23,14.936a8.837,8.837,0,0,1-1.61,2.27,3.114,3.114,0,0,1-2.31.944,3.163,3.163,0,0,1-.6-0.066c-0.22-.044-0.43-0.094-0.64-0.15l0.62-1.792c0.09,0.016.2,0.032,0.34,0.048a3.116,3.116,0,0,0,.32.024,1.524,1.524,0,0,0,1.15-.628,5.682,5.682,0,0,0,.89-1.4l0.66-1.291-1.21-12.892h2.58Zm-38.57,10.575h-1.59l1.71-8.619h1.58Zm2.15-10.881h-1.58l0.31-1.546h1.58Zm41.27,6.516a7.709,7.709,0,0,1,1.29-3.306,2.658,2.658,0,0,1,2.18-1.107,1.89,1.89,0,0,1,1.04.294,2.029,2.029,0,0,1,.73.837l0.3-.972h1.36l-1.67,8.467a4.868,4.868,0,0,1-1.37,2.708,3.61,3.61,0,0,1-2.54.925,3.676,3.676,0,0,1-1.05-.171,3.3,3.3,0,0,1-.97-0.451l0.58-1.21a2.565,2.565,0,0,0,.76.386,2.964,2.964,0,0,0,.92.139,1.674,1.674,0,0,0,1.31-.625,3.636,3.636,0,0,0,.77-1.708l0.09-.439a2.729,2.729,0,0,1-.84.574,2.437,2.437,0,0,1-.96.191,1.884,1.884,0,0,1-1.77-1.255,5.034,5.034,0,0,1-.2-3.11Zm1.55,0.167a5.207,5.207,0,0,0-.06,2.274,1.009,1.009,0,0,0,1.04.84,1.328,1.328,0,0,0,.83-0.3,2.8,2.8,0,0,0,.69-0.841l0.85-4.269a1.576,1.576,0,0,0-.44-0.753,1.154,1.154,0,0,0-.79-0.275,1.508,1.508,0,0,0-1.26.86,6.847,6.847,0,0,0-.83,2.295Zm11-8.97a21.649,21.649,0,0,1,2.74-7.975,12.2,12.2,0,0,1,3.95-4.367l0.07,0.012,0.21,1.278a12.382,12.382,0,0,0-2.81,4.111,25.389,25.389,0,0,0-2.02,6.918l-0.03.239a22.037,22.037,0,0,0-.21,6.966,8.864,8.864,0,0,0,1.52,4.11l-0.61,1.231h-0.07q-1.59-1.111-2.55-4.433a18.319,18.319,0,0,1-.22-7.9Zm11.87-9.092-0.64,3.214h1.88l-0.34,1.733h-1.89l-1.51,7.694a2.643,2.643,0,0,0-.03,1.464,0.675,0.675,0,0,0,.65.388,3.4,3.4,0,0,0,.5-0.036q0.255-.036.57-0.107l-0.09,1.673a5.967,5.967,0,0,1-.93.268,5.041,5.041,0,0,1-1.02.1,2.017,2.017,0,0,1-1.83-.914,3.91,3.91,0,0,1-.2-2.838l1.52-7.694h-1.58l0.35-1.733h1.58l0.64-3.214h2.37Zm16.95,9.3a21.268,21.268,0,0,1-2.77,7.964,12.406,12.406,0,0,1-3.99,4.355h-0.07l-0.25-1.219a12.833,12.833,0,0,0,2.82-4.14,24.971,24.971,0,0,0,2.03-6.936l0.04-.24a21.886,21.886,0,0,0,.16-6.977,9.37,9.37,0,0,0-1.49-4.122l0.64-1.219h0.07c1.05,0.725,1.91,2.216,2.56,4.475a18.026,18.026,0,0,1,.28,7.868Zm-10.97,12.964h-1.58l1.7-8.619h1.58Zm2.15-10.881h-1.58l0.31-1.546h1.58Zm21.68,4.763h-2.37l2.56-12.928h2.37Zm3.24-16.321h-2.38l0.47-2.318h2.37Zm14.19,11.661h-8.29l0.38-1.911h8.29Zm0.99-4.994h-8.28l0.38-1.912h8.28Zm12.12,9.678h-2.37l2.98-15-3.24.227,0.31-1.565,5.77-1.1Zm7.8-.31-2.18,3.524h-1.41l1.39-3.608,0.44-2.187h2.22Zm10.23,0.286h-2.39l0.49-2.425h2.38Zm5.79,0h-2.38l0.49-2.425h2.38Zm5.8,0h-2.38l0.48-2.425h2.39Zm5.4-.286-2.19,3.524h-1.41l1.39-3.608,0.44-2.187h2.22Zm13.62,0.286h-2.37l-3.57-12.773-0.07.012L1446,793.4h-2.38l3.45-17.4h2.38l3.58,12.725,0.08-.012,2.51-12.713h2.37Z" transform="translate(-1235 -774)"/>
</svg>
