<svg xmlns="http://www.w3.org/2000/svg" width="53" height="28" viewBox="0 0 53 28">
  <metadata><?xpacket begin="﻿" id="W5M0MpCehiHzreSzNTczkc9d"?>
<x:xmpmeta xmlns:x="adobe:ns:meta/" x:xmptk="Adobe XMP Core 5.6-c140 79.160451, 2017/05/06-01:08:21        ">
   <rdf:RDF xmlns:rdf="http://www.w3.org/1999/02/22-rdf-syntax-ns#">
      <rdf:Description rdf:about=""/>
   </rdf:RDF>
</x:xmpmeta>
                                                                                                    
                                                                                                    
                                                                                                    
                                                                                                    
                                                                                                    
                                                                                                    
                                                                                                    
                                                                                                    
                                                                                                    
                                                                                                    
                                                                                                    
                                                                                                    
                                                                                                    
                                                                                                    
                                                                                                    
                                                                                                    
                                                                                                    
                                                                                                    
                                                                                                    
                                                                                                    
                           
<?xpacket end="w"?></metadata>
<defs>
    <style>
      .cls-1 {
        fill: #212121;
        fill-rule: evenodd;
      }
    </style>
  </defs>
  <path id="Фигура_41" data-name="Фигура 41" class="cls-1" d="M1333.71,821.137h-2.72l6.48-13.044-0.23-1.687a4.12,4.12,0,0,0-.38-1.564,0.962,0.962,0,0,0-.87-0.608,2.907,2.907,0,0,0-.32.025c-0.13.016-.26,0.029-0.37,0.037l0.34-1.787c0.27-.066.5-0.118,0.71-0.155a3.319,3.319,0,0,1,.61-0.056,2.179,2.179,0,0,1,1.99,1.03,5.229,5.229,0,0,1,.79,2.308l1.31,11.654a3.914,3.914,0,0,0,.22,1.44,0.749,0.749,0,0,0,.64.583,0.835,0.835,0,0,0,.2,0l0.3-.05-0.5,1.874a4.181,4.181,0,0,1-.52.118,2.242,2.242,0,0,1-.48.031,1.978,1.978,0,0,1-1.79-.98,6.15,6.15,0,0,1-.7-2.532l-0.56-6.044-0.08-.013-0.28.708Zm11.47-.3a8.016,8.016,0,0,1,1.36-3.433,2.778,2.778,0,0,1,2.28-1.151,2.011,2.011,0,0,1,1.1.307,2.066,2.066,0,0,1,.76.869l0.32-1.01h1.44l-1.76,8.795a5.114,5.114,0,0,1-1.44,2.813,3.838,3.838,0,0,1-2.67.96,3.9,3.9,0,0,1-1.1-.178,3.351,3.351,0,0,1-1.02-.467l0.6-1.258a2.788,2.788,0,0,0,.81.4,3.1,3.1,0,0,0,.96.145,1.769,1.769,0,0,0,1.38-.65,3.862,3.862,0,0,0,.81-1.774l0.09-.455a2.877,2.877,0,0,1-.88.595,2.581,2.581,0,0,1-1.01.2,1.979,1.979,0,0,1-1.86-1.3,5.19,5.19,0,0,1-.21-3.231Zm1.63,0.174a5.3,5.3,0,0,0-.06,2.362,1.061,1.061,0,0,0,1.09.873,1.4,1.4,0,0,0,.87-0.31,2.97,2.97,0,0,0,.73-0.873l0.89-4.435a1.673,1.673,0,0,0-.46-0.781,1.209,1.209,0,0,0-.83-0.286,1.6,1.6,0,0,0-1.33.893,7.253,7.253,0,0,0-.86,2.383Zm12.01-7.2a22.535,22.535,0,0,1,2.88-8.284,12.8,12.8,0,0,1,4.15-4.536l0.07,0.012,0.23,1.328a12.739,12.739,0,0,0-2.95,4.269,26,26,0,0,0-2.12,7.186l-0.04.248a22.583,22.583,0,0,0-.22,7.235,9.25,9.25,0,0,0,1.6,4.27l-0.64,1.278h-0.08q-1.665-1.154-2.67-4.6a18.619,18.619,0,0,1-.23-8.2Zm15.19-9.444-0.67,3.338h1.98l-0.36,1.8h-1.99l-1.59,7.992a2.622,2.622,0,0,0-.02,1.52,0.7,0.7,0,0,0,.68.4,3.639,3.639,0,0,0,.52-0.038c0.18-.024.38-0.062,0.6-0.112l-0.1,1.738a5.859,5.859,0,0,1-.97.279,5.393,5.393,0,0,1-1.07.106,2.152,2.152,0,0,1-1.93-.95,3.99,3.99,0,0,1-.2-2.947l1.59-7.992h-1.65l0.36-1.8h1.65l0.68-3.338h2.49Zm9.67,9.655a22.324,22.324,0,0,1-2.91,8.272,12.93,12.93,0,0,1-4.2,4.523h-0.07l-0.26-1.266a13.48,13.48,0,0,0,2.96-4.3,26.249,26.249,0,0,0,2.13-7.2l0.04-.249a22.162,22.162,0,0,0,.17-7.247,9.772,9.772,0,0,0-1.56-4.282l0.67-1.266h0.07c1.11,0.753,2,2.3,2.69,4.648a18.479,18.479,0,0,1,.29,8.172Z" transform="translate(-1331 -801)"/>
</svg>
