<svg xmlns="http://www.w3.org/2000/svg" width="87" height="31.031" viewBox="0 0 87 31.031">
  <metadata><?xpacket begin="﻿" id="W5M0MpCehiHzreSzNTczkc9d"?>
<x:xmpmeta xmlns:x="adobe:ns:meta/" x:xmptk="Adobe XMP Core 5.6-c140 79.160451, 2017/05/06-01:08:21        ">
   <rdf:RDF xmlns:rdf="http://www.w3.org/1999/02/22-rdf-syntax-ns#">
      <rdf:Description rdf:about=""/>
   </rdf:RDF>
</x:xmpmeta>
                                                                                                    
                                                                                                    
                                                                                                    
                                                                                                    
                                                                                                    
                                                                                                    
                                                                                                    
                                                                                                    
                                                                                                    
                                                                                                    
                                                                                                    
                                                                                                    
                                                                                                    
                                                                                                    
                                                                                                    
                                                                                                    
                                                                                                    
                                                                                                    
                                                                                                    
                                                                                                    
                           
<?xpacket end="w"?></metadata>
<defs>
    <style>
      .cls-1 {
        fill: #212121;
        fill-rule: evenodd;
      }
    </style>
  </defs>
  <path id="Фигура_37" data-name="Фигура 37" class="cls-1" d="M947.2,580.818h-1.564l-3.063,19.748h1.565l-0.272,1.781H940l3.618-23.334h3.867Zm9.583,1.957-0.612,3.153h1.8l-0.329,1.7h-1.8l-1.452,7.548a2.648,2.648,0,0,0-.022,1.436,0.638,0.638,0,0,0,.624.38,3.187,3.187,0,0,0,.476-0.035q0.239-.035.544-0.105l-0.091,1.64a5.162,5.162,0,0,1-.884.264,4.716,4.716,0,0,1-.975.1,1.921,1.921,0,0,1-1.753-.9,3.919,3.919,0,0,1-.187-2.783l1.452-7.548h-1.509l0.33-1.7H953.9l0.612-3.153h2.268Zm7.394,15.381-1.746,9.032a4.119,4.119,0,0,1-.975,2.141,2.332,2.332,0,0,1-1.732.7,1.891,1.891,0,0,1-.374-0.035,2.625,2.625,0,0,1-.374-0.105l0.317-1.212a1.43,1.43,0,0,0,.254.079,1.171,1.171,0,0,0,.26.031,0.838,0.838,0,0,0,.658-0.4,2.886,2.886,0,0,0,.454-1.192l1.746-9.032h1.512Zm0.409-2.243h-1.52l0.287-1.492h1.52Zm10.732,2.415-2.087,3.457h-1.35l1.327-3.539,0.42-2.145h2.121Zm8.256-15.553-0.613,3.153h1.8l-0.329,1.7h-1.8l-1.451,7.548a2.651,2.651,0,0,0-.023,1.436,0.638,0.638,0,0,0,.624.38,3.177,3.177,0,0,0,.476-0.035q0.238-.035.544-0.105l-0.09,1.64a5.147,5.147,0,0,1-.885.264,4.7,4.7,0,0,1-.975.1,1.918,1.918,0,0,1-1.752-.9,3.913,3.913,0,0,1-.187-2.783l1.451-7.548h-1.508l0.329-1.7h1.508l0.613-3.153h2.268Zm9.635,15.381-1.746,9.032a4.119,4.119,0,0,1-.975,2.141,2.332,2.332,0,0,1-1.732.7,1.891,1.891,0,0,1-.374-0.035,2.625,2.625,0,0,1-.374-0.105l0.317-1.212a1.43,1.43,0,0,0,.254.079,1.171,1.171,0,0,0,.26.031,0.838,0.838,0,0,0,.658-0.4,2.872,2.872,0,0,0,.454-1.192l1.746-9.032h1.512Zm0.409-2.243H992.1l0.287-1.492h1.52Zm7.8,4.649h2.45l-0.27,1.36h-2.44l-0.68,3.547H999l0.688-3.547h-2.45l0.265-1.36h2.442l0.654-3.375h1.48Zm9.75,6.064h-1.51l1.9-9.806-2.07.148,0.2-1.024,3.68-.718Zm11.92-27.613h3.9l-3.61,23.334h-3.9l0.27-1.781h1.6l3.06-19.748h-1.6Z" transform="translate(-940 -579)"/>
</svg>
