<svg xmlns="http://www.w3.org/2000/svg" width="183" height="145" viewBox="0 0 183 145">
  <metadata><?xpacket begin="﻿" id="W5M0MpCehiHzreSzNTczkc9d"?>
<x:xmpmeta xmlns:x="adobe:ns:meta/" x:xmptk="Adobe XMP Core 5.6-c140 79.160451, 2017/05/06-01:08:21        ">
   <rdf:RDF xmlns:rdf="http://www.w3.org/1999/02/22-rdf-syntax-ns#">
      <rdf:Description rdf:about=""/>
   </rdf:RDF>
</x:xmpmeta>
                                                                                                    
                                                                                                    
                                                                                                    
                                                                                                    
                                                                                                    
                                                                                                    
                                                                                                    
                                                                                                    
                                                                                                    
                                                                                                    
                                                                                                    
                                                                                                    
                                                                                                    
                                                                                                    
                                                                                                    
                                                                                                    
                                                                                                    
                                                                                                    
                                                                                                    
                                                                                                    
                           
<?xpacket end="w"?></metadata>
<defs>
    <style>
      .cls-1 {
        fill: #212121;
        fill-rule: evenodd;
      }
    </style>
  </defs>
  <path id="Фигура_36" data-name="Фигура 36" class="cls-1" d="M1190.53,905.953H1188l6.04-12.209-0.22-1.58a3.859,3.859,0,0,0-.35-1.464,0.9,0.9,0,0,0-.81-0.569,2.845,2.845,0,0,0-.3.023c-0.13.016-.24,0.028-0.34,0.035l0.31-1.672c0.25-.062.47-0.11,0.66-0.146a3.231,3.231,0,0,1,.57-0.052,2.036,2.036,0,0,1,1.86.965,5.106,5.106,0,0,1,.73,2.16l1.22,10.908a3.676,3.676,0,0,0,.2,1.347,0.711,0.711,0,0,0,.6.546,0.673,0.673,0,0,0,.18,0c0.06-.008.15-0.023,0.28-0.046l-0.46,1.754a4.368,4.368,0,0,1-.48.11,2.091,2.091,0,0,1-.45.029,1.851,1.851,0,0,1-1.67-.918,5.8,5.8,0,0,1-.65-2.369l-0.52-5.658-0.07-.011-0.27.662Zm10.69-.279a7.517,7.517,0,0,1,1.26-3.214,2.593,2.593,0,0,1,2.13-1.076,1.858,1.858,0,0,1,1.02.286,1.949,1.949,0,0,1,.71.813l0.3-.945h1.34l-1.64,8.233a4.743,4.743,0,0,1-1.35,2.633,3.522,3.522,0,0,1-2.48.9,3.657,3.657,0,0,1-1.03-.167,3.339,3.339,0,0,1-.95-0.437l0.57-1.177a2.662,2.662,0,0,0,.75.375,2.9,2.9,0,0,0,.9.136,1.647,1.647,0,0,0,1.28-.608,3.477,3.477,0,0,0,.75-1.661l0.09-.426a2.766,2.766,0,0,1-.82.558,2.424,2.424,0,0,1-.94.185,1.823,1.823,0,0,1-1.73-1.219,4.771,4.771,0,0,1-.2-3.025Zm1.51,0.162a5.053,5.053,0,0,0-.05,2.212,0.98,0.98,0,0,0,1.01.817,1.322,1.322,0,0,0,.82-0.291,2.7,2.7,0,0,0,.67-0.817l0.83-4.151a1.512,1.512,0,0,0-.43-0.732,1.1,1.1,0,0,0-.77-0.267,1.5,1.5,0,0,0-1.24.836,6.782,6.782,0,0,0-.8,2.231Zm11.19-6.737a20.993,20.993,0,0,1,2.68-7.754,11.906,11.906,0,0,1,3.87-4.246l0.07,0.012,0.21,1.243a11.875,11.875,0,0,0-2.75,4,24.554,24.554,0,0,0-1.98,6.726l-0.03.232a21.413,21.413,0,0,0-.21,6.772,8.589,8.589,0,0,0,1.5,4l-0.61,1.2h-0.07q-1.545-1.08-2.49-4.309a17.646,17.646,0,0,1-.21-7.679Zm14.15-8.84-0.63,3.125h1.84l-0.33,1.684h-1.85l-1.48,7.481a2.6,2.6,0,0,0-.03,1.423,0.664,0.664,0,0,0,.64.378,3.4,3.4,0,0,0,.49-0.035c0.16-.023.35-0.058,0.56-0.105l-0.1,1.626a5.306,5.306,0,0,1-.9.262,5.062,5.062,0,0,1-1,.1,1.977,1.977,0,0,1-1.79-.889,3.764,3.764,0,0,1-.19-2.759l1.48-7.481h-1.54l0.34-1.684h1.54l0.63-3.125h2.32Zm9,9.038a20.8,20.8,0,0,1-2.71,7.742,12.091,12.091,0,0,1-3.9,4.234h-0.07l-0.25-1.185a12.456,12.456,0,0,0,2.76-4.025,24.455,24.455,0,0,0,1.99-6.743l0.03-.232a20.981,20.981,0,0,0,.16-6.784,8.986,8.986,0,0,0-1.46-4.008l0.63-1.185h0.07c1.03,0.705,1.86,2.155,2.51,4.35a17.371,17.371,0,0,1,.26,7.65Zm15.65,2.125h-8.11l0.37-1.858h8.11Zm0.97-4.855h-8.11l0.38-1.859h8.11Zm28.92-10.935h-2.53l6.03-12.208-0.22-1.58a3.85,3.85,0,0,0-.35-1.464,0.884,0.884,0,0,0-.81-0.57,2.644,2.644,0,0,0-.3.024c-0.12.016-.24,0.027-0.34,0.035l0.31-1.673q0.375-.093.66-0.145a3.139,3.139,0,0,1,.57-0.052,2.035,2.035,0,0,1,1.86.964,4.977,4.977,0,0,1,.73,2.16l1.22,10.908a3.908,3.908,0,0,0,.2,1.348,0.725,0.725,0,0,0,.6.546,0.861,0.861,0,0,0,.19,0l0.27-.047-0.46,1.754a3.376,3.376,0,0,1-.48.11,2.164,2.164,0,0,1-.45.03,1.855,1.855,0,0,1-1.67-.918,5.805,5.805,0,0,1-.65-2.37l-0.52-5.657-0.07-.012-0.27.663Zm-13.39,38.26a2.754,2.754,0,0,0-.24-2.114,5.4,5.4,0,0,0-2.07-1.533,7.388,7.388,0,0,1-3.15-2.1,3.988,3.988,0,0,1-.51-3.4,4.8,4.8,0,0,1,1.83-3.078,5.624,5.624,0,0,1,3.45-1.069,4.211,4.211,0,0,1,3.38,1.394,4.316,4.316,0,0,1,.71,3.81h-2.33a3.342,3.342,0,0,0-.28-2.474,2.02,2.02,0,0,0-1.84-.918,2.407,2.407,0,0,0-1.65.68,2.934,2.934,0,0,0-.93,1.632,2.743,2.743,0,0,0,.21,2.1,5.839,5.839,0,0,0,2.23,1.534,7.045,7.045,0,0,1,3.04,2.114,4.171,4.171,0,0,1,.47,3.392,4.814,4.814,0,0,1-1.86,3.1,5.885,5.885,0,0,1-3.52,1.034,5.309,5.309,0,0,1-3.61-1.248c-0.96-.833-1.24-2.124-0.86-3.874l0.03-.059h2.23c-0.25,1.27-.11,2.153.43,2.649a3.038,3.038,0,0,0,2.14.743,2.642,2.642,0,0,0,1.7-.668A2.789,2.789,0,0,0,1269.22,923.892Zm3.91,3.59a7.641,7.641,0,0,1,1.26-3.214,2.618,2.618,0,0,1,2.13-1.077,1.859,1.859,0,0,1,1.02.287,2.035,2.035,0,0,1,.72.813l0.29-.945h1.34l-1.64,8.232a4.792,4.792,0,0,1-1.34,2.633,3.556,3.556,0,0,1-2.48.9,3.7,3.7,0,0,1-1.04-.166,3.152,3.152,0,0,1-.94-0.438l0.56-1.177a2.638,2.638,0,0,0,.75.376,2.924,2.924,0,0,0,.9.135,1.635,1.635,0,0,0,1.28-.607,3.481,3.481,0,0,0,.75-1.662l0.09-.425a2.781,2.781,0,0,1-.82.557,2.425,2.425,0,0,1-.94.186,1.834,1.834,0,0,1-1.73-1.22,4.838,4.838,0,0,1-.2-3.024Zm1.51,0.162a5.048,5.048,0,0,0-.05,2.211,0.986,0.986,0,0,0,1.01.817,1.307,1.307,0,0,0,.82-0.29,2.883,2.883,0,0,0,.68-0.817l0.82-4.151a1.439,1.439,0,0,0-.43-0.732,1.1,1.1,0,0,0-.77-0.267,1.481,1.481,0,0,0-1.23.836,6.765,6.765,0,0,0-.81,2.231Zm11.2-6.737a20.814,20.814,0,0,1,2.68-7.754,11.885,11.885,0,0,1,3.86-4.246l0.07,0.012,0.21,1.242a12.016,12.016,0,0,0-2.75,4,24.222,24.222,0,0,0-1.97,6.725l-0.04.233a21.413,21.413,0,0,0-.21,6.772,8.589,8.589,0,0,0,1.5,4l-0.6,1.2h-0.07q-1.56-1.08-2.49-4.309a17.475,17.475,0,0,1-.22-7.678Zm14.14-8.84-0.63,3.124h1.85l-0.34,1.685h-1.84l-1.49,7.481a2.472,2.472,0,0,0-.02,1.423,0.646,0.646,0,0,0,.64.377,3.37,3.37,0,0,0,.48-0.035c0.16-.023.35-0.058,0.56-0.1l-0.09,1.626a5.333,5.333,0,0,1-.91.261,4.988,4.988,0,0,1-1,.1,1.975,1.975,0,0,1-1.79-.889,3.76,3.76,0,0,1-.19-2.758l1.48-7.481h-1.54l0.34-1.685h1.54l0.63-3.124h2.32Zm9,9.037a20.609,20.609,0,0,1-2.71,7.742,12.073,12.073,0,0,1-3.9,4.234h-0.07l-0.25-1.185a12.45,12.45,0,0,0,2.76-4.024,24.462,24.462,0,0,0,1.99-6.744l0.04-.232a21.564,21.564,0,0,0,.16-6.784,9.229,9.229,0,0,0-1.46-4.007l0.62-1.185h0.07q1.545,1.058,2.51,4.35a17.366,17.366,0,0,1,.26,7.649Zm2.82-23.02h-51.35v-1.549h51.35v1.549Zm0,5.948h-51.35v-1.549h51.35v1.549Zm14.95-1.948a2.8,2.8,0,0,0-.25-2.114,5.437,5.437,0,0,0-2.06-1.533,7.475,7.475,0,0,1-3.16-2.1,4.058,4.058,0,0,1-.51-3.4,4.8,4.8,0,0,1,1.83-3.078,5.63,5.63,0,0,1,3.45-1.069,4.2,4.2,0,0,1,3.38,1.394,4.349,4.349,0,0,1,.72,3.811h-2.34a3.342,3.342,0,0,0-.28-2.474,2.009,2.009,0,0,0-1.84-.918,2.382,2.382,0,0,0-1.64.679,2.95,2.95,0,0,0-.94,1.632,2.74,2.74,0,0,0,.22,2.1,5.879,5.879,0,0,0,2.22,1.533,7.085,7.085,0,0,1,3.05,2.114,4.211,4.211,0,0,1,.47,3.392,4.785,4.785,0,0,1-1.87,3.1,5.871,5.871,0,0,1-3.52,1.034,5.328,5.328,0,0,1-3.61-1.249c-0.95-.833-1.24-2.124-0.85-3.874l0.02-.058h2.24q-0.39,1.9.42,2.648a3.034,3.034,0,0,0,2.14.744,2.627,2.627,0,0,0,1.7-.668A2.854,2.854,0,0,0,1326.75,902.084Zm3.9,3.59a7.512,7.512,0,0,1,1.27-3.214,2.593,2.593,0,0,1,2.13-1.076,1.858,1.858,0,0,1,1.02.286,2.02,2.02,0,0,1,.71.813l0.29-.945h1.34l-1.64,8.233a4.735,4.735,0,0,1-1.34,2.633,3.539,3.539,0,0,1-2.48.9,3.6,3.6,0,0,1-1.03-.167,3.339,3.339,0,0,1-.95-0.437l0.57-1.177a2.477,2.477,0,0,0,.74.375,2.9,2.9,0,0,0,.9.136,1.667,1.667,0,0,0,1.29-.608,3.677,3.677,0,0,0,.75-1.661l0.08-.426a2.533,2.533,0,0,1-.82.558,2.34,2.34,0,0,1-.93.185,1.845,1.845,0,0,1-1.74-1.219,4.913,4.913,0,0,1-.2-3.025Zm1.52,0.162a4.764,4.764,0,0,0-.05,2.212,0.98,0.98,0,0,0,1.01.817,1.3,1.3,0,0,0,.81-0.291,2.715,2.715,0,0,0,.68-0.817l0.83-4.151a1.512,1.512,0,0,0-.43-0.732,1.121,1.121,0,0,0-.77-0.267,1.482,1.482,0,0,0-1.24.836,6.563,6.563,0,0,0-.8,2.231Zm11.19-6.737a20.993,20.993,0,0,1,2.68-7.754,11.985,11.985,0,0,1,3.86-4.246l0.07,0.012,0.21,1.243a12.169,12.169,0,0,0-2.75,4,24.563,24.563,0,0,0-1.97,6.726l-0.04.232a21.079,21.079,0,0,0-.2,6.772,8.7,8.7,0,0,0,1.49,4l-0.6,1.2h-0.07q-1.56-1.08-2.49-4.309a17.646,17.646,0,0,1-.21-7.679Zm14.14-8.84-0.62,3.125h1.84l-0.34,1.684h-1.84l-1.49,7.481a2.666,2.666,0,0,0-.02,1.423,0.664,0.664,0,0,0,.64.378,3.622,3.622,0,0,0,.49-0.035c0.16-.023.34-0.058,0.55-0.105l-0.09,1.626a5.59,5.59,0,0,1-.9.262,5.062,5.062,0,0,1-1,.1,1.977,1.977,0,0,1-1.79-.889,3.755,3.755,0,0,1-.2-2.759l1.49-7.481h-1.54l0.33-1.684h1.55l0.62-3.125h2.32Zm9.01,9.038a20.8,20.8,0,0,1-2.71,7.742,12.1,12.1,0,0,1-3.91,4.234h-0.07l-0.24-1.185a12.3,12.3,0,0,0,2.75-4.025,24.116,24.116,0,0,0,1.99-6.743l0.04-.232a21.268,21.268,0,0,0,.16-6.784,9.108,9.108,0,0,0-1.46-4.008l0.63-1.185h0.07c1.02,0.705,1.86,2.155,2.5,4.35a17.511,17.511,0,0,1,.27,7.65Zm-169.2,92a2.754,2.754,0,0,0-.24-2.114,5.406,5.406,0,0,0-2.07-1.533,7.494,7.494,0,0,1-3.16-2.1,4.058,4.058,0,0,1-.51-3.4,4.855,4.855,0,0,1,1.84-3.078,5.594,5.594,0,0,1,3.44-1.069,4.2,4.2,0,0,1,3.38,1.394,4.286,4.286,0,0,1,.72,3.81h-2.33a3.392,3.392,0,0,0-.28-2.474,2.026,2.026,0,0,0-1.85-.918,2.4,2.4,0,0,0-1.64.68,2.877,2.877,0,0,0-.93,1.632,2.7,2.7,0,0,0,.21,2.1,5.879,5.879,0,0,0,2.22,1.533,7.023,7.023,0,0,1,3.05,2.114,4.171,4.171,0,0,1,.47,3.392,4.816,4.816,0,0,1-1.86,3.1,5.913,5.913,0,0,1-3.52,1.033,5.309,5.309,0,0,1-3.61-1.248c-0.96-.833-1.25-2.124-0.86-3.874l0.02-.058h2.24c-0.25,1.27-.11,2.153.43,2.648a3.017,3.017,0,0,0,2.14.744,2.643,2.643,0,0,0,1.7-.669A2.836,2.836,0,0,0,1197.31,991.3Zm3.91,3.59a7.511,7.511,0,0,1,1.26-3.214,2.594,2.594,0,0,1,2.13-1.077,1.859,1.859,0,0,1,1.02.287,1.949,1.949,0,0,1,.71.813l0.3-.945h1.34l-1.64,8.232a4.752,4.752,0,0,1-1.35,2.637,3.512,3.512,0,0,1-2.48.89,3.7,3.7,0,0,1-1.03-.16,3.341,3.341,0,0,1-.95-0.44l0.57-1.18a2.647,2.647,0,0,0,.75.38,2.924,2.924,0,0,0,.9.13,1.658,1.658,0,0,0,1.28-.6,3.511,3.511,0,0,0,.75-1.664l0.09-.427a2.766,2.766,0,0,1-.82.558,2.425,2.425,0,0,1-.94.186,1.824,1.824,0,0,1-1.73-1.22,4.768,4.768,0,0,1-.2-3.024Zm1.51,0.162a5.048,5.048,0,0,0-.05,2.211,0.979,0.979,0,0,0,1.01.817,1.327,1.327,0,0,0,.82-0.29,2.708,2.708,0,0,0,.67-0.817l0.83-4.151a1.512,1.512,0,0,0-.43-0.732,1.1,1.1,0,0,0-.77-0.267,1.494,1.494,0,0,0-1.24.837,6.758,6.758,0,0,0-.8,2.23Zm11.19-6.737a20.993,20.993,0,0,1,2.68-7.754,11.9,11.9,0,0,1,3.87-4.246l0.07,0.012,0.21,1.243a11.875,11.875,0,0,0-2.75,4,24.554,24.554,0,0,0-1.98,6.726l-0.03.232a21.413,21.413,0,0,0-.21,6.772,8.58,8.58,0,0,0,1.5,4l-0.61,1.2h-0.07q-1.545-1.086-2.49-4.314a17.64,17.64,0,0,1-.21-7.678Zm14.15-8.84-0.63,3.125h1.84l-0.33,1.684h-1.85l-1.48,7.481a2.6,2.6,0,0,0-.03,1.423,0.663,0.663,0,0,0,.64.377,3.267,3.267,0,0,0,.49-0.035c0.16-.023.35-0.057,0.56-0.1l-0.1,1.626a5.306,5.306,0,0,1-.9.262,5.137,5.137,0,0,1-1,.1,1.977,1.977,0,0,1-1.79-.888,3.763,3.763,0,0,1-.19-2.759l1.48-7.481h-1.54l0.34-1.684h1.54l0.63-3.125h2.32Zm9,9.037a20.8,20.8,0,0,1-2.71,7.743,12.137,12.137,0,0,1-3.9,4.238h-0.07l-0.25-1.189a12.456,12.456,0,0,0,2.76-4.025,24.465,24.465,0,0,0,1.99-6.743l0.03-.233a20.98,20.98,0,0,0,.16-6.784,8.99,8.99,0,0,0-1.46-4.008l0.63-1.184h0.07c1.03,0.705,1.86,2.155,2.51,4.35a17.368,17.368,0,0,1,.26,7.649Zm15.65,2.126h-8.11l0.37-1.858h8.11Zm0.97-4.856h-8.11l0.38-1.858h8.11Zm24.81-21.613-6.76,7.992,0.02,0.058h8l-0.36,1.789h-10.8l0.29-1.464,7.2-8.538-3.77-8.561,0.29-1.476h10.31l-0.36,1.79h-7.6l3.6,8.1Zm36.81,48.844h-2.32l-3.49-12.42-0.07.01-2.47,12.41h-2.33L1308,996.1h2.33l3.51,12.375,0.07-.02,2.46-12.355h2.32Zm55.68-25.713h-109.6v-1.549h109.6V987.3Zm-161.72-13.051h-20.73V972.7h20.73v1.549Zm109.56-4.1a2.8,2.8,0,0,0-.25-2.115,5.437,5.437,0,0,0-2.06-1.533,7.484,7.484,0,0,1-3.16-2.1,4.059,4.059,0,0,1-.51-3.4,4.8,4.8,0,0,1,1.83-3.078,5.624,5.624,0,0,1,3.45-1.069,4.2,4.2,0,0,1,3.38,1.394,4.315,4.315,0,0,1,.71,3.81h-2.33a3.342,3.342,0,0,0-.28-2.474,2.009,2.009,0,0,0-1.84-.918,2.387,2.387,0,0,0-1.64.679,2.956,2.956,0,0,0-.94,1.633,2.737,2.737,0,0,0,.22,2.1,5.867,5.867,0,0,0,2.22,1.534,7.085,7.085,0,0,1,3.05,2.114,4.21,4.21,0,0,1,.47,3.392,4.785,4.785,0,0,1-1.87,3.1,5.871,5.871,0,0,1-3.52,1.034,5.323,5.323,0,0,1-3.61-1.249c-0.95-.832-1.24-2.123-0.85-3.874l0.02-.058h2.24q-0.39,1.9.42,2.649a3.038,3.038,0,0,0,2.14.743,2.627,2.627,0,0,0,1.7-.668A2.854,2.854,0,0,0,1318.83,970.15Zm3.9,3.589a7.512,7.512,0,0,1,1.27-3.214,2.593,2.593,0,0,1,2.13-1.076,1.859,1.859,0,0,1,1.02.287,2.007,2.007,0,0,1,.71.813l0.29-.945h1.34l-1.64,8.232a4.728,4.728,0,0,1-1.34,2.633,3.539,3.539,0,0,1-2.48.9,3.635,3.635,0,0,1-1.03-.166,3.34,3.34,0,0,1-.95-0.438l0.57-1.177a2.479,2.479,0,0,0,.74.376,2.924,2.924,0,0,0,.9.135,1.667,1.667,0,0,0,1.29-.608,3.672,3.672,0,0,0,.75-1.661l0.08-.426a2.533,2.533,0,0,1-.82.558,2.34,2.34,0,0,1-.93.186,1.846,1.846,0,0,1-1.74-1.22,4.911,4.911,0,0,1-.2-3.024Zm1.52,0.163a4.76,4.76,0,0,0-.05,2.211,0.979,0.979,0,0,0,1.01.817,1.3,1.3,0,0,0,.81-0.29,2.728,2.728,0,0,0,.68-0.817l0.83-4.151a1.512,1.512,0,0,0-.43-0.732,1.121,1.121,0,0,0-.77-0.267,1.48,1.48,0,0,0-1.24.836,6.549,6.549,0,0,0-.8,2.23Zm11.19-6.738a20.987,20.987,0,0,1,2.68-7.753,11.967,11.967,0,0,1,3.86-4.246l0.07,0.012,0.21,1.243a12.147,12.147,0,0,0-2.75,4,24.555,24.555,0,0,0-1.97,6.725l-0.04.232a21.086,21.086,0,0,0-.2,6.773,8.7,8.7,0,0,0,1.49,4l-0.6,1.2h-0.07q-1.56-1.08-2.49-4.309a17.645,17.645,0,0,1-.21-7.679Zm14.14-8.839-0.62,3.125h1.84l-0.34,1.684h-1.84l-1.49,7.481a2.565,2.565,0,0,0-.02,1.423,0.655,0.655,0,0,0,.64.377,3.622,3.622,0,0,0,.49-0.035c0.16-.023.34-0.058,0.55-0.1l-0.09,1.626a5.693,5.693,0,0,1-.9.261,5.062,5.062,0,0,1-1,.1,1.975,1.975,0,0,1-1.79-.889,3.753,3.753,0,0,1-.2-2.758l1.49-7.481h-1.54l0.33-1.684h1.55l0.62-3.125h2.32Zm14.06,9.037a20.443,20.443,0,0,1-2.71,7.742,12.082,12.082,0,0,1-3.9,4.234h-0.07l-0.24-1.185a12.45,12.45,0,0,0,2.75-4.024,24.462,24.462,0,0,0,1.99-6.744l0.04-.232a21.268,21.268,0,0,0,.16-6.784,9.1,9.1,0,0,0-1.46-4.007l0.62-1.185h0.07q1.545,1.056,2.51,4.35a17.505,17.505,0,0,1,.27,7.649Zm-10.13,10.621h-1.55l1.67-8.379h1.55Zm2.11-10.578h-1.55l0.3-1.5h1.55Zm-63.01-3.134h-1.55l-2.32-8.279-0.05.008-1.65,8.271h-1.55L1287.74,953h1.55l2.34,8.247,0.05-.007,1.63-8.24h1.55Zm-8.47,16.542h-1.55l1.67-8.38h1.55Zm2.11-10.579h-1.55l0.3-1.5h1.55Zm11.51,9.353h-8.11l0.37-1.858h8.11Zm0.98-4.855h-8.11l0.37-1.859h8.11Zm5.4,6.1h-1.55l1.94-9.719-2.11.147,0.2-1.014,3.77-.713Z" transform="translate(-1188 -868)"/>
</svg>
