<svg xmlns="http://www.w3.org/2000/svg" width="11" height="20" viewBox="0 0 11 20">
  <metadata><?xpacket begin="﻿" id="W5M0MpCehiHzreSzNTczkc9d"?>
<x:xmpmeta xmlns:x="adobe:ns:meta/" x:xmptk="Adobe XMP Core 5.6-c140 79.160451, 2017/05/06-01:08:21        ">
   <rdf:RDF xmlns:rdf="http://www.w3.org/1999/02/22-rdf-syntax-ns#">
      <rdf:Description rdf:about=""/>
   </rdf:RDF>
</x:xmpmeta>
                                                                                                    
                                                                                                    
                                                                                                    
                                                                                                    
                                                                                                    
                                                                                                    
                                                                                                    
                                                                                                    
                                                                                                    
                                                                                                    
                                                                                                    
                                                                                                    
                                                                                                    
                                                                                                    
                                                                                                    
                                                                                                    
                                                                                                    
                                                                                                    
                                                                                                    
                                                                                                    
                           
<?xpacket end="w"?></metadata>
<defs>
    <style>
      .cls-1 {
        fill: #212121;
        fill-rule: evenodd;
      }
    </style>
  </defs>
  <path id="Фигура_43" data-name="Фигура 43" class="cls-1" d="M1576.62,821.841H1574l6.25-13.736-0.23-1.777a4.548,4.548,0,0,0-.36-1.647,0.928,0.928,0,0,0-.84-0.641,2.483,2.483,0,0,0-.31.027c-0.13.017-.25,0.03-0.35,0.039l0.32-1.882c0.26-.07.48-0.125,0.68-0.164a3.026,3.026,0,0,1,.59-0.058,2.079,2.079,0,0,1,1.93,1.084,6.106,6.106,0,0,1,.75,2.431l1.26,12.273a4.588,4.588,0,0,0,.21,1.516,0.765,0.765,0,0,0,.62.614,0.668,0.668,0,0,0,.19,0c0.06-.008.15-0.026,0.29-0.052l-0.48,1.973a3.729,3.729,0,0,1-.5.125,1.926,1.926,0,0,1-.46.032,1.886,1.886,0,0,1-1.73-1.032,7.14,7.14,0,0,1-.67-2.667l-0.54-6.365-0.07-.012-0.28.744Z" transform="translate(-1574 -802)"/>
</svg>
