<svg xmlns="http://www.w3.org/2000/svg" width="21" height="26" viewBox="0 0 21 26">
  <metadata><?xpacket begin="﻿" id="W5M0MpCehiHzreSzNTczkc9d"?>
<x:xmpmeta xmlns:x="adobe:ns:meta/" x:xmptk="Adobe XMP Core 5.6-c140 79.160451, 2017/05/06-01:08:21        ">
   <rdf:RDF xmlns:rdf="http://www.w3.org/1999/02/22-rdf-syntax-ns#">
      <rdf:Description rdf:about=""/>
   </rdf:RDF>
</x:xmpmeta>
                                                                                                    
                                                                                                    
                                                                                                    
                                                                                                    
                                                                                                    
                                                                                                    
                                                                                                    
                                                                                                    
                                                                                                    
                                                                                                    
                                                                                                    
                                                                                                    
                                                                                                    
                                                                                                    
                                                                                                    
                                                                                                    
                                                                                                    
                                                                                                    
                                                                                                    
                                                                                                    
                           
<?xpacket end="w"?></metadata>
<defs>
    <style>
      .cls-1 {
        fill: #212121;
        fill-rule: evenodd;
      }
    </style>
  </defs>
  <path id="Фигура_40" data-name="Фигура 40" class="cls-1" d="M1645.79,784.771l0.02,0.828,0.08,0.014,4.96-10.626h3.12l-8.74,17.25a10.358,10.358,0,0,1-1.94,2.622,3.858,3.858,0,0,1-2.8,1.09,3.757,3.757,0,0,1-.72-0.076c-0.27-.05-0.52-0.108-0.77-0.172l0.75-2.07c0.1,0.018.24,0.037,0.4,0.055s0.3,0.028.4,0.028a1.853,1.853,0,0,0,1.38-.725,6.477,6.477,0,0,0,1.08-1.621l0.79-1.491-1.46-14.89h3.12Zm5.85,7.172a8.957,8.957,0,0,1,1.56-3.818,3.27,3.27,0,0,1,2.63-1.279,2.4,2.4,0,0,1,1.27.34,2.332,2.332,0,0,1,.87.967l0.37-1.123h1.65l-2.03,9.779a5.536,5.536,0,0,1-1.65,3.128,4.465,4.465,0,0,1-3.06,1.067,4.676,4.676,0,0,1-1.28-.2,4.158,4.158,0,0,1-1.17-.52l0.7-1.4a3.2,3.2,0,0,0,.92.447,3.776,3.776,0,0,0,1.11.161,2.076,2.076,0,0,0,1.59-.722,4.073,4.073,0,0,0,.92-1.974l0.11-.506a3.263,3.263,0,0,1-1.01.663,3.088,3.088,0,0,1-1.16.22,2.271,2.271,0,0,1-2.14-1.449,5.646,5.646,0,0,1-.25-3.592Zm1.87,0.193a5.6,5.6,0,0,0-.06,2.626,1.207,1.207,0,0,0,1.25.971,1.667,1.667,0,0,0,1.01-.345,3.421,3.421,0,0,0,.83-0.97l1.02-4.932a1.683,1.683,0,0,0-.53-0.869,1.388,1.388,0,0,0-.95-0.317,1.859,1.859,0,0,0-1.53.993,7.791,7.791,0,0,0-.99,2.65Z" transform="translate(-1639 -775)"/>
</svg>
