<svg xmlns="http://www.w3.org/2000/svg" width="50.97" height="31" viewBox="0 0 50.97 31">
  <metadata><?xpacket begin="﻿" id="W5M0MpCehiHzreSzNTczkc9d"?>
<x:xmpmeta xmlns:x="adobe:ns:meta/" x:xmptk="Adobe XMP Core 5.6-c140 79.160451, 2017/05/06-01:08:21        ">
   <rdf:RDF xmlns:rdf="http://www.w3.org/1999/02/22-rdf-syntax-ns#">
      <rdf:Description rdf:about=""/>
   </rdf:RDF>
</x:xmpmeta>
                                                                                                    
                                                                                                    
                                                                                                    
                                                                                                    
                                                                                                    
                                                                                                    
                                                                                                    
                                                                                                    
                                                                                                    
                                                                                                    
                                                                                                    
                                                                                                    
                                                                                                    
                                                                                                    
                                                                                                    
                                                                                                    
                                                                                                    
                                                                                                    
                                                                                                    
                                                                                                    
                           
<?xpacket end="w"?></metadata>
<defs>
    <style>
      .cls-1 {
        fill: #212121;
        fill-rule: evenodd;
      }
    </style>
  </defs>
  <path id="Фигура_42" data-name="Фигура 42" class="cls-1" d="M1642.25,846.339a2.859,2.859,0,0,0-.26-2.2,5.585,5.585,0,0,0-2.15-1.593,7.739,7.739,0,0,1-3.3-2.179,4.166,4.166,0,0,1-.53-3.53,4.989,4.989,0,0,1,1.91-3.2,5.883,5.883,0,0,1,3.6-1.11,4.1,4.1,0,0,1,4.27,5.407h-2.43a3.489,3.489,0,0,0-.29-2.571,2.117,2.117,0,0,0-1.93-.953,2.5,2.5,0,0,0-1.71.706,3.04,3.04,0,0,0-.98,1.7,2.843,2.843,0,0,0,.23,2.184,6.116,6.116,0,0,0,2.32,1.594,7.424,7.424,0,0,1,3.18,2.2,4.353,4.353,0,0,1,.49,3.525,4.971,4.971,0,0,1-1.95,3.223,6.153,6.153,0,0,1-3.67,1.074,5.563,5.563,0,0,1-3.77-1.3q-1.5-1.3-.89-4.026l0.02-.06h2.34c-0.27,1.319-.12,2.237.44,2.751a3.172,3.172,0,0,0,2.23.773,2.745,2.745,0,0,0,1.78-.694A2.943,2.943,0,0,0,1642.25,846.339Zm4.07,3.73a7.823,7.823,0,0,1,1.32-3.34,2.727,2.727,0,0,1,2.23-1.118,1.919,1.919,0,0,1,1.06.3,2.083,2.083,0,0,1,.75.845l0.3-.982h1.4l-1.71,8.553a4.959,4.959,0,0,1-1.4,2.736,3.714,3.714,0,0,1-2.59.934,3.805,3.805,0,0,1-1.08-.173,3.437,3.437,0,0,1-.99-0.455l0.59-1.223a2.8,2.8,0,0,0,.78.39,3.063,3.063,0,0,0,.94.141,1.725,1.725,0,0,0,1.34-.632,3.8,3.8,0,0,0,.79-1.725l0.08-.443a2.77,2.77,0,0,1-.85.579,2.5,2.5,0,0,1-.98.193,1.925,1.925,0,0,1-1.81-1.267,5.056,5.056,0,0,1-.21-3.142Zm1.59,0.169a5.015,5.015,0,0,0-.06,2.3,1.025,1.025,0,0,0,1.06.849,1.38,1.38,0,0,0,.85-0.3,2.877,2.877,0,0,0,.71-0.85l0.86-4.313a1.532,1.532,0,0,0-.45-0.76,1.154,1.154,0,0,0-.8-0.278,1.536,1.536,0,0,0-1.29.869,6.73,6.73,0,0,0-.84,2.318Zm11.68-7a21.675,21.675,0,0,1,2.8-8.057,12.364,12.364,0,0,1,4.03-4.411l0.07,0.012,0.22,1.291a12.519,12.519,0,0,0-2.87,4.152,25.478,25.478,0,0,0-2.06,6.989l-0.04.241a21.894,21.894,0,0,0-.21,7.037,8.88,8.88,0,0,0,1.56,4.153l-0.63,1.242h-0.07c-1.09-.748-1.95-2.24-2.6-4.477a18.211,18.211,0,0,1-.23-7.979Zm14.76-9.185-0.65,3.247h1.92l-0.35,1.75h-1.92l-1.55,7.773a2.6,2.6,0,0,0-.03,1.478,0.684,0.684,0,0,0,.67.393,3.5,3.5,0,0,0,.51-0.037c0.17-.024.36-0.06,0.58-0.108l-0.1,1.69a5.69,5.69,0,0,1-.94.271,5.24,5.24,0,0,1-1.04.1,2.085,2.085,0,0,1-1.88-.923,3.935,3.935,0,0,1-.2-2.867l1.56-7.773h-1.62l0.36-1.75h1.61l0.65-3.247h2.42Zm9.4,9.39a21.463,21.463,0,0,1-2.83,8.045,12.562,12.562,0,0,1-4.07,4.4h-0.07l-0.26-1.231a12.949,12.949,0,0,0,2.88-4.182,25.038,25.038,0,0,0,2.07-7.007l0.04-.241a22.081,22.081,0,0,0,.17-7.049,9.368,9.368,0,0,0-1.53-4.164l0.66-1.231h0.07c1.07,0.732,1.95,2.239,2.62,4.52a18.084,18.084,0,0,1,.28,7.948Zm-29.02-14.821h-21.64v-1.609h21.64v1.609Z" transform="translate(-1633.09 -827)"/>
</svg>
