<svg xmlns="http://www.w3.org/2000/svg" width="14" height="29" viewBox="0 0 14 29">
  <metadata><?xpacket begin="﻿" id="W5M0MpCehiHzreSzNTczkc9d"?>
<x:xmpmeta xmlns:x="adobe:ns:meta/" x:xmptk="Adobe XMP Core 5.6-c140 79.160451, 2017/05/06-01:08:21        ">
   <rdf:RDF xmlns:rdf="http://www.w3.org/1999/02/22-rdf-syntax-ns#">
      <rdf:Description rdf:about=""/>
   </rdf:RDF>
</x:xmpmeta>
                                                                                                    
                                                                                                    
                                                                                                    
                                                                                                    
                                                                                                    
                                                                                                    
                                                                                                    
                                                                                                    
                                                                                                    
                                                                                                    
                                                                                                    
                                                                                                    
                                                                                                    
                                                                                                    
                                                                                                    
                                                                                                    
                                                                                                    
                                                                                                    
                                                                                                    
                                                                                                    
                           
<?xpacket end="w"?></metadata>
<defs>
    <style>
      .cls-1 {
        fill: #212121;
        fill-rule: evenodd;
      }
    </style>
  </defs>
  <path id="ξ" class="cls-1" d="M1416.46,1053.99l-0.47,2.43h2.59a4.711,4.711,0,0,0-1.5,1.48,6,6,0,0,0-.83,2.15,3.26,3.26,0,0,0,.31,2.32,3.94,3.94,0,0,0,1.82,1.63,7.13,7.13,0,0,0-3.4,2.1,8.216,8.216,0,0,0-1.79,3.89,5.627,5.627,0,0,0,.83,4.85,5,5,0,0,0,4.11,1.78h0.85a1.373,1.373,0,0,1,1.2.43,1.7,1.7,0,0,1,.14,1.32,3.012,3.012,0,0,1-.89,1.64,7.252,7.252,0,0,1-1.52,1.08l0.61,1.91a7.872,7.872,0,0,0,3.07-1.88,6.042,6.042,0,0,0,1.65-3.07,3.023,3.023,0,0,0-.6-2.8,3.627,3.627,0,0,0-2.75-1h-1.19a2.337,2.337,0,0,1-2.2-1.09,4.332,4.332,0,0,1-.24-3.1,6.03,6.03,0,0,1,1.87-3.55,5.03,5.03,0,0,1,3.41-1.21h1.77l0.13-.62,0.23-1.12,0.14-.68h-1.84a2.216,2.216,0,0,1-2.56-3.07,4.33,4.33,0,0,1,1.17-2.31,3.628,3.628,0,0,1,2.24-1.08h3.7l0.48-2.43h-10.54Z" transform="translate(-1413 -1054)"/>
</svg>
