<svg xmlns="http://www.w3.org/2000/svg" width="264" height="67" viewBox="0 0 264 67">
  <metadata><?xpacket begin="﻿" id="W5M0MpCehiHzreSzNTczkc9d"?>
<x:xmpmeta xmlns:x="adobe:ns:meta/" x:xmptk="Adobe XMP Core 5.6-c140 79.160451, 2017/05/06-01:08:21        ">
   <rdf:RDF xmlns:rdf="http://www.w3.org/1999/02/22-rdf-syntax-ns#">
      <rdf:Description rdf:about=""/>
   </rdf:RDF>
</x:xmpmeta>
                                                                                                    
                                                                                                    
                                                                                                    
                                                                                                    
                                                                                                    
                                                                                                    
                                                                                                    
                                                                                                    
                                                                                                    
                                                                                                    
                                                                                                    
                                                                                                    
                                                                                                    
                                                                                                    
                                                                                                    
                                                                                                    
                                                                                                    
                                                                                                    
                                                                                                    
                                                                                                    
                           
<?xpacket end="w"?></metadata>
<defs>
    <style>
      .cls-1 {
        fill: #212121;
        fill-rule: evenodd;
      }
    </style>
  </defs>
  <path id="Фигура_35" data-name="Фигура 35" class="cls-1" d="M1214.49,620.111h-0.53l-0.67,3.319h-1.34l2.09-10.419h1.34l-1.22,6.071h0.53l2.04-2.878h1.52l0.02,0.033-2.6,3.213,1.47,3.98h-1.56Zm13.45-1.022h-5.85l0.27-1.029h5.85Zm6.96,4.354h-1.34l1.68-8.381-1.83.127,0.18-.875,3.26-.615Zm-83.73,25.725-1.15,5.75H1148l2.92-14.586h4.62a3.23,3.23,0,0,1,2.76,1.242,3.859,3.859,0,0,1,.55,3.176,5.619,5.619,0,0,1-1.75,3.27,4.88,4.88,0,0,1-3.32,1.148h-2.61Zm0.31-1.563h2.61a2.287,2.287,0,0,0,1.74-.826,4.088,4.088,0,0,0,1-2.009,3.374,3.374,0,0,0-.12-2.094,1.493,1.493,0,0,0-1.48-.781h-2.6Zm11.11,6.925-1.55,7.721a3.531,3.531,0,0,1-.86,1.83,2.119,2.119,0,0,1-1.54.594,1.84,1.84,0,0,1-.33-0.029,3,3,0,0,1-.33-0.091l0.28-1.035a1.343,1.343,0,0,0,.23.067,1.071,1.071,0,0,0,.23.027,0.747,0.747,0,0,0,.58-0.344,2.431,2.431,0,0,0,.4-1.019l1.55-7.721h1.34Zm0.36-1.916h-1.35l0.26-1.275h1.34Zm6.5-3.606a17.893,17.893,0,0,1,2.32-6.687,10.278,10.278,0,0,1,3.34-3.662l0.06,0.01,0.18,1.072a10.432,10.432,0,0,0-2.38,3.446,21.66,21.66,0,0,0-1.71,5.8l-0.03.2a18.407,18.407,0,0,0-.18,5.84,7.566,7.566,0,0,0,1.3,3.446l-0.52,1.032h-0.06a6.633,6.633,0,0,1-2.16-3.716,15.045,15.045,0,0,1-.18-6.622Zm12.24-7.624-0.54,2.695h1.6l-0.29,1.452h-1.6l-1.29,6.452a2.262,2.262,0,0,0-.02,1.227,0.567,0.567,0,0,0,.55.326,3.155,3.155,0,0,0,.43-0.03c0.14-.021.3-0.051,0.48-0.091l-0.08,1.4a4.815,4.815,0,0,1-.78.225,4.425,4.425,0,0,1-.87.085,1.716,1.716,0,0,1-1.55-.766,3.25,3.25,0,0,1-.17-2.379l1.29-6.452h-1.34l0.29-1.452h1.34l0.54-2.695h2.01Zm7.8,7.794a17.737,17.737,0,0,1-2.35,6.677,10.38,10.38,0,0,1-3.38,3.651h-0.06l-0.21-1.021a10.866,10.866,0,0,0,2.39-3.472,21.178,21.178,0,0,0,1.72-5.815l0.03-.2a18.293,18.293,0,0,0,.14-5.85,7.758,7.758,0,0,0-1.27-3.456l0.55-1.022h0.06a6.74,6.74,0,0,1,2.17,3.751,15.086,15.086,0,0,1,.23,6.6Zm13.55,1.833h-7.02l0.32-1.6h7.02Zm0.84-4.187h-7.02l0.32-1.6h7.02Zm20.08,0.3-13.85,16.538,0.04,0.112h16.79l-0.48,2.36h-19.89L1207,664l14.19-17.169-7.28-17.3,0.43-2.158H1233l-0.47,2.36H1216.8l7.28,16.831Zm-17.44,32.724h-1.34l1.44-7.226h1.34Zm1.82-9.123H1207l0.27-1.3h1.33Zm8.02,6.519h-4.68l0.21-1.069h4.68Zm0.56-2.792h-4.68l0.22-1.069h4.68Zm9.35,1.636a6.2,6.2,0,0,1-1.28,2.955,2.759,2.759,0,0,1-2.09.945,1.754,1.754,0,0,1-1.65-1.025,4.358,4.358,0,0,1-.17-2.875l0.44-2.2a5.969,5.969,0,0,1,1.28-2.955,2.737,2.737,0,0,1,2.09-.952,1.754,1.754,0,0,1,1.65,1.032,4.438,4.438,0,0,1,.16,2.875Zm-0.87-2.391a4.537,4.537,0,0,0,.09-2.034,0.73,0.73,0,0,0-.79-0.591l-0.04-.007a1.233,1.233,0,0,0-1.02.655,5.388,5.388,0,0,0-.74,1.977l-0.51,2.578a4.456,4.456,0,0,0-.1,2.04,0.736,0.736,0,0,0,.81.6l0.04,0.006a1.2,1.2,0,0,0,1.01-.654,5.457,5.457,0,0,0,.74-1.99Zm17.62-18.782c-0.01-.267-0.02-0.514-0.02-0.741a0.966,0.966,0,1,0-1.26.5,2.841,2.841,0,0,1-1.5.45,2.091,2.091,0,0,1-1.84-.881,2.822,2.822,0,0,1-.33-2.3,3.869,3.869,0,0,1,1.49-2.49,5.046,5.046,0,0,1,3.03-.836H1244l0.22-1.112a2.459,2.459,0,0,0-.09-1.578,1.092,1.092,0,0,0-1.06-.526,1.645,1.645,0,0,0-1.16.506,2.273,2.273,0,0,0-.68,1.247l-1.92-.01-0.02-.06a3.611,3.611,0,0,1,1.41-2.269,4.352,4.352,0,0,1,2.8-.937,2.79,2.79,0,0,1,2.26.962,3.059,3.059,0,0,1,.48,2.685l-1.02,5.029a10.1,10.1,0,0,0-.17,1.222,7.272,7.272,0,0,0,.01,1.142h-2.04Zm-2.01-1.352a2.255,2.255,0,0,0,1.25-.421,3.377,3.377,0,0,0,1.03-1.042l0.44-2.224h-1.42a1.991,1.991,0,0,0-1.43.611,2.746,2.746,0,0,0-.78,1.442,1.745,1.745,0,0,0,.07,1.208A0.862,0.862,0,0,0,1241.01,653.566Zm10.09,8.191h-1.34l1.45-7.227h1.33Zm1.83-9.123h-1.34l0.26-1.295h1.34Zm6.06-11.915a11.989,11.989,0,0,1,1.54-4.458,6.924,6.924,0,0,1,2.23-2.441l0.04,0.007,0.13,0.715a6.8,6.8,0,0,0-1.59,2.3,13.989,13.989,0,0,0-1.14,3.867l-0.02.133a12.178,12.178,0,0,0-.12,3.894,4.94,4.94,0,0,0,.86,2.3l-0.35.688h-0.04a4.479,4.479,0,0,1-1.43-2.478,10.169,10.169,0,0,1-.13-4.415Zm9.04-3.286-1.55,7.721a3.531,3.531,0,0,1-.86,1.83,2.123,2.123,0,0,1-1.54.594,1.841,1.841,0,0,1-.33-0.03,2.774,2.774,0,0,1-.33-0.09l0.28-1.035a1.261,1.261,0,0,0,.23.066,1.071,1.071,0,0,0,.23.027,0.746,0.746,0,0,0,.58-0.343,2.431,2.431,0,0,0,.4-1.019l1.55-7.721h1.34Zm0.36-1.917h-1.35l0.26-1.275h1.34Zm5.85,5.317a11.711,11.711,0,0,1-1.56,4.451,7.038,7.038,0,0,1-2.25,2.435h-0.04l-0.14-.682a7.328,7.328,0,0,0,1.59-2.314,14.137,14.137,0,0,0,1.14-3.877l0.02-.133a12.131,12.131,0,0,0,.1-3.9,5.172,5.172,0,0,0-.85-2.3l0.37-.681h0.04a4.491,4.491,0,0,1,1.44,2.5,10.1,10.1,0,0,1,.16,4.4Zm1.55,8.175a17.893,17.893,0,0,1,2.32-6.687,10.278,10.278,0,0,1,3.34-3.662l0.06,0.01,0.18,1.072a10.432,10.432,0,0,0-2.38,3.446,21.3,21.3,0,0,0-1.71,5.8l-0.03.2a18.407,18.407,0,0,0-.18,5.84,7.454,7.454,0,0,0,1.3,3.446l-0.52,1.032h-0.06a6.633,6.633,0,0,1-2.16-3.716,15.045,15.045,0,0,1-.18-6.622Zm12.24-7.624-0.54,2.695h1.6l-0.3,1.452h-1.59l-1.29,6.452a2.165,2.165,0,0,0-.02,1.227,0.567,0.567,0,0,0,.55.326,3.271,3.271,0,0,0,.43-0.03c0.14-.021.3-0.051,0.48-0.091l-0.08,1.4a4.658,4.658,0,0,1-.79.225,4.252,4.252,0,0,1-.86.085,1.716,1.716,0,0,1-1.55-.766,3.25,3.25,0,0,1-.17-2.379l1.29-6.452h-1.34l0.29-1.452h1.34l0.54-2.695h2.01Zm15.91,7.022h-8.79l0.41-1.542h8.79Zm10.72-7.022-0.54,2.695h1.6l-0.29,1.452h-1.6l-1.29,6.452a2.262,2.262,0,0,0-.02,1.227,0.572,0.572,0,0,0,.56.326,3.122,3.122,0,0,0,.42-0.03c0.14-.021.3-0.051,0.48-0.091l-0.08,1.4a4.815,4.815,0,0,1-.78.225,4.425,4.425,0,0,1-.87.085,1.716,1.716,0,0,1-1.55-.766,3.25,3.25,0,0,1-.17-2.379l1.29-6.452h-1.34l0.29-1.452h1.34l0.54-2.695h2.01Zm12.18,7.794a17.737,17.737,0,0,1-2.35,6.677,10.38,10.38,0,0,1-3.38,3.651h-0.06l-0.21-1.021a10.866,10.866,0,0,0,2.39-3.472,21.178,21.178,0,0,0,1.72-5.815l0.03-.2a18.293,18.293,0,0,0,.14-5.85,7.758,7.758,0,0,0-1.27-3.456l0.55-1.022h0.06a6.74,6.74,0,0,1,2.17,3.751,15.086,15.086,0,0,1,.23,6.6Zm11.86,5.5-1.85,2.955h-1.19l1.17-3.025,0.38-1.834h1.87Zm10.25-4.739h-0.81l-0.99,4.979h-2.01l3.14-15.628h2l-1.82,9.106h0.78l3.06-4.317h2.28l0.03,0.05-3.89,4.818,2.21,5.971h-2.34Zm20.18-1.533h-8.79l0.4-1.542h8.79Zm10.43,6.532h-2.01l2.52-12.572-2.74.19,0.26-1.312,4.89-.922Zm17.06-3.927h-7.03l0.33-1.6h7.02Zm0.84-4.187h-7.02l0.32-1.6h7.02Zm8.84,0.322,0.07-.423h1.36a1.777,1.777,0,0,0,1.45-.681,3.967,3.967,0,0,0,.74-1.823,3.223,3.223,0,0,0-.15-1.883,1.243,1.243,0,0,0-1.22-.651,1.893,1.893,0,0,0-1.39.681,3.258,3.258,0,0,0-.8,1.773h-1.91l-0.02-.06a4.549,4.549,0,0,1,1.46-2.861,4.167,4.167,0,0,1,2.87-1.1,3.125,3.125,0,0,1,2.57,1.088,3.692,3.692,0,0,1,.6,3.032,4.608,4.608,0,0,1-.8,1.9,4.037,4.037,0,0,1-1.61,1.333,2.457,2.457,0,0,1,1.33,1.346,3.847,3.847,0,0,1,.19,2.077,5.022,5.022,0,0,1-1.61,3.144,4.565,4.565,0,0,1-3.06,1.091,3.274,3.274,0,0,1-2.56-1.092,3.456,3.456,0,0,1-.66-3.045h2a2.779,2.779,0,0,0,.22,1.9,1.37,1.37,0,0,0,1.27.7,2.007,2.007,0,0,0,1.52-.7,3.745,3.745,0,0,0,.86-1.97,3.066,3.066,0,0,0-.16-2.035,1.5,1.5,0,0,0-1.39-.615h-1.35Zm-87.12,7.384-1.55,7.721a3.531,3.531,0,0,1-.86,1.83,2.119,2.119,0,0,1-1.54.594,1.84,1.84,0,0,1-.33-0.029,2.136,2.136,0,0,1-.33-0.091l0.28-1.035a1.531,1.531,0,0,0,.22.067,1.161,1.161,0,0,0,.24.027,0.762,0.762,0,0,0,.58-0.344,2.431,2.431,0,0,0,.4-1.019l1.55-7.721h1.34Zm0.36-1.916h-1.35l0.26-1.275h1.34Zm13.15-7.954h-1.34l1.45-7.227h1.34Zm1.83-9.123h-1.34l0.26-1.3h1.34Z" transform="translate(-1148 -613)"/>
</svg>
