<svg xmlns="http://www.w3.org/2000/svg" width="228.81" height="178.156" viewBox="0 0 228.81 178.156">
  <metadata><?xpacket begin="﻿" id="W5M0MpCehiHzreSzNTczkc9d"?>
<x:xmpmeta xmlns:x="adobe:ns:meta/" x:xmptk="Adobe XMP Core 5.6-c138 79.159824, 2016/09/14-01:09:01        ">
   <rdf:RDF xmlns:rdf="http://www.w3.org/1999/02/22-rdf-syntax-ns#">
      <rdf:Description rdf:about=""/>
   </rdf:RDF>
</x:xmpmeta>
                                                                                                    
                                                                                                    
                                                                                                    
                                                                                                    
                                                                                                    
                                                                                                    
                                                                                                    
                                                                                                    
                                                                                                    
                                                                                                    
                                                                                                    
                                                                                                    
                                                                                                    
                                                                                                    
                                                                                                    
                                                                                                    
                                                                                                    
                                                                                                    
                                                                                                    
                                                                                                    
                           
<?xpacket end="w"?></metadata>
<defs>
    <style>
      .cls-1 {
        fill: #fda700;
        fill-rule: evenodd;
      }
    </style>
  </defs>
  <path id="Figure_testnet" data-name="Figure testnet" class="cls-1" d="M1519.68,930.473l-5.53,3.793,1.45,2.023,31.7-21.763,27.1,4.856-0.62-2.607-26.06-4.669-22.56-31.522-2.04,1.4,14.42,20.147,3.67,5.127,3.02,4.226-9.31-1.669h0l-2.69-.482-13.38-2.4-0.42,2.42,25.39,4.549Zm216.69,3.718,6.6-1.2-0.5-2.438-37.82,6.936L1681.89,922l-0.5,2.632,21.89,14.9,7.74,37.983,2.43-.445-4.95-24.276-1.25-6.178-1.04-5.091,7.82,5.324h0l2.26,1.536,11.24,7.646,1.37-2.039-21.33-14.511Zm-50.39-84.848-5.72,1.522-4.71,1.253,4.31-7.59h0l1.11-1.967,35.12-9.35-0.64-2.24L1693,836.948l-5.72,1.522-4.69,1.251,4.69-8.285v0l0.84-1.488,6.18-10.9-2.05-1.159-25.86,45.6,2.53,0.315,4.32-7.624,0.01,0,0.69-1.222,35.13-9.353-0.64-2.241ZM1638.85,874.3l1.63-1.59-36.15-37.578-1.63,1.59Zm-36.15-37.578-0.31,22.634,2.28,0.042,0.28-20.336Zm1.63-1.59,22.47,0.4-0.03,2.3-20.19-.358ZM1720.08,913l0.95-.837-19.87-22.2-0.96.837,0.04-1.261-24.53-.769,4.59-13.347-1.21-.406,1.06-.708-9.64-14.1-1.06.707-1.1-.622-14.79,25.839-13.32-43.889-1.22.363-0.95-.842-21.11,23.36,0.95,0.842-1.28.017,0.28,19.562L1568.15,836l-0.91.882-1.13.576,23.25,44.949-9.21,14.694-35.01-5.691-0.21,1.246-0.93.859,22.9,24.428,16.47,21.981-28.51,28.7,0.91,0.885,0.54,1.145,36.49-16.828,25.07,8.706,1.63,32.924,1.28-.061,1.1,0.634,15.33-26.16,28.31,23.752,0.83-.963,1.27,0.022,0.71-40.02,4.92,6.653,1.03-.747h1.28V942.6l14.28-13.055-0.87-.928,0.76-1.016-19.42-14.21,49.75,0.877Zm-2.88-1.314-46.58-.82,29.35-18.426Zm-148.68,4.268L1548.4,894.5l31.73,5.157,18.78,21.312Zm49.71-27.261-0.52,1.155,20.28,8.895-19.62,6.615-26.53-23.68-19.61-37.919,45.09,45.816Zm24.21,46.71-0.17-9.95,12.03,8.506V954.17Zm-24.23-26.957,20.5,14.489-20.48,16.106-14.3-16.219Zm-15.96,12.469-17.94-20.356,31.24,6.966Zm18.58-13.722,18.47-6.227,0.34,19.52Zm18.89,18.174,0.18,10.34-3.85,28.795-16.26-23.465Zm15.39,6.056-12.89-9.112-0.37-21.713,22.8,11.992Zm-11.23-32.612-0.22-.647,0.87,0.922,9.16-8.483,18.49,0.58-6.56,19.061Zm-0.89-1.755-1.21.407-1.23-45.427,11.2,36.9Zm-4.42-23.909-18.52-7.663,17.78-19.67Zm0.08,2.768,0.56,20.6-19.72-8.649-0.28-20Zm-47.55,8.5,22.5,20.088-30.79-6.863Zm24.89,55.932-54.37,25.071,40.52-40.788Zm19.38,27.638-13.53,23.082-2.28-45.9Zm6.6-28.562,12.44,19.677,9.41,29.782-25.59-21.47Zm24-23.809,7.04,26.6v12.5l-15.94-21.523Zm9.01,24.077-6.48-24.49,18.47,13.523Zm21.04-47.758-27.3,17.138,6.13-17.8Zm-26.47-28.623,8.13,11.9-4.64,13.481-17.69-.555Zm-98.77,55.58,28.77,4.742-14.37,14.47Zm25.33,33.409,20.78-9.58,0.85,17.089Zm69.1,32.531-8.36-26.457V937.168l8.99,12.129Z" transform="translate(-1514.16 -817.875)"/>
</svg>
