<?xml version="1.0" encoding="utf-8"?>
<!-- Generator: Adobe Illustrator 21.0.0, SVG Export Plug-In . SVG Version: 6.00 Build 0)  -->
<svg version="1.1" id="Слой_1" xmlns="http://www.w3.org/2000/svg" xmlns:xlink="http://www.w3.org/1999/xlink" x="0px" y="0px"
	 viewBox="0 0 228.8 178.2" style="enable-background:new 0 0 228.8 178.2;" xml:space="preserve">
<style type="text/css">
	.st0{fill:#FDA700;}
</style>
<path class="st0" d="M228.8,115.1l-0.5-2.4l-37.8,6.9l-20.1-13.7l-14.2-10.4l49.8,0.9l0-1.3l0.9-0.8L187,72.1l-0.9-0.4l-24.5-0.8
	l4.6-13.3l-0.1-1.1l-9.4-13.7l2.5-4.4h0l0.7-1.2l35.1-9.4l-0.6-2.2l-22.4,6l-5.7,1.5l-4.7,1.3l4.3-7.6l1.1-2l35.1-9.3l-0.6-2.2
	l-22.5,6l-5.7,1.5l-4.7,1.3l4.7-8.3l0.8-1.5l6.2-10.9L178.1,0l-25.9,45.6l0.1,0l-13,22.6l-13.3-43.9l-2.2-0.5l-13.3,14.7l-18.2-19
	l0,0l0,0l20.2,0.4l0-2.3l-22.5-0.4l0,0l-1.6,1.6l0,0l-0.3,22.6l2.3,0l0.3-20.3l18.3,19.1l-6.3,7l-0.3,0.9l0.3,19.6L54,18.1L53.1,19
	l-1.1,0.6l23.2,44.9L66,79.2l-35-5.7l-0.2,1.2l-0.9,0.9L50,97.2l-16.5-3L11,62.7l-2,1.4l14.4,20.1l3.7,5.1l3,4.2l-9.3-1.7l-2.7-0.5
	L4.7,89.1l-0.4,2.4L29.7,96L5.5,112.6L0,116.4l1.4,2l31.7-21.8l19.7,3.5L69.2,122l-28.5,28.7l0.9,0.9l0.5,1.1L78.6,136l25.1,8.7
	l1.6,32.9l1.3-0.1l1.1,0.6L123,152l28.3,23.8l0.8-1l1.3,0l0.7-40l4.9,6.7l1-0.7h1.3v-16l13.8-12.6l14,9.5l7.7,38l2.4-0.4l-4.9-24.3
	l-1.2-6.2l-1-5.1l7.8,5.3l2.3,1.5l11.2,7.6l1.4-2l-21.3-14.5l28.8-5.3L228.8,115.1z M203,93.8L156.5,93l29.3-18.4L203,93.8z
	 M181.9,74.1l-27.3,17.1l6.1-17.8L181.9,74.1z M155.4,45.4l8.1,11.9l-4.6,13.5l-17.7-0.6L155.4,45.4z M139.5,72.7l18.5,0.6
	l-6.6,19.1l-21.1-11.2L139.5,72.7z M128.1,104.4l-0.4-21.7l22.8,12l-9.5,18.8L128.1,104.4z M140.1,116.1v20.2l-11.9-18.8l-0.2-10
	L140.1,116.1z M137.6,71.1l-8.8,8.1l-1.2,0.4l-1.2-45.4L137.6,71.1z M125.5,102.6l-18.8-13.3l18.5-6.2L125.5,102.6z M123.7,27.9
	l0.7,24.8l-11.9-12.4L123.7,27.9z M110.9,42.1L123,54.7l-17.1-7.1L110.9,42.1z M124.5,58l0.6,20.6L105.3,70L105,50L124.5,58z
	 M58.1,25.9l45.1,45.8l20.7,9.2l-19.6,6.6L77.7,63.8L58.1,25.9z M76.9,66.5l22.5,20.1l-30.8-6.9L76.9,66.5z M101.4,89.7L88.1,103
	L70.2,82.7L101.4,89.7z M34.2,76.6L66,81.8l18.8,21.3l-25.1-4.1l0,0l-5.4-1L34.2,76.6z M56.6,101l28.8,4.7L71,120.2L56.6,101z
	 M47.5,147.5L88,106.8l13.8,15.7L47.5,147.5z M81.9,134.4l20.8-9.6l0.8,17.1L81.9,134.4z M104.1,121.2l-14.3-16.2L104,90.6
	l20.5,14.5L104.1,121.2z M107.7,173.2l-2.3-45.9l15.8,22.8L107.7,173.2z M121.9,146.6l-16.3-23.5l19.9-15.7l0.2,10.3L121.9,146.6z
	 M124.1,149.5l3.7-28l12.4,19.7l9.4,29.8L124.1,149.5z M151,167l-8.4-26.5v-21.2l9,12.1L151,167z M158.8,136.8l-15.9-21.5l8.9-17.6
	l7,26.6V136.8z M160.8,121.8l-6.5-24.5l18.5,13.5L160.8,121.8z"/>
</svg>
