
<svg 
 xmlns="http://www.w3.org/2000/svg"
 xmlns:xlink="http://www.w3.org/1999/xlink" height="45px" width="160px">
<path fill-rule="evenodd"  fill="rgb(253, 167, 0)"
 d="M159.426,24.756 C159.043,24.950 158.504,25.047 157.810,25.047 L152.609,25.047 C152.615,25.639 152.737,26.160 152.974,26.612 C153.211,27.064 153.526,27.404 153.919,27.634 C154.311,27.862 154.745,27.977 155.219,27.977 C155.537,27.977 155.828,27.941 156.091,27.867 C156.354,27.794 156.608,27.679 156.855,27.523 C157.102,27.368 157.329,27.201 157.537,27.023 C157.745,26.844 158.014,26.602 158.345,26.297 C158.482,26.183 158.677,26.125 158.930,26.125 C159.202,26.125 159.423,26.199 159.592,26.345 C159.761,26.491 159.845,26.698 159.845,26.965 C159.845,27.201 159.751,27.476 159.563,27.791 C159.375,28.106 159.090,28.408 158.711,28.697 C158.331,28.987 157.853,29.227 157.279,29.418 C156.704,29.609 156.043,29.704 155.297,29.704 C153.589,29.704 152.261,29.227 151.313,28.272 C150.365,27.318 149.891,26.024 149.891,24.388 C149.891,23.618 150.008,22.904 150.242,22.246 C150.476,21.587 150.816,21.022 151.265,20.552 C151.713,20.081 152.264,19.720 152.920,19.468 C153.576,19.216 154.303,19.091 155.102,19.091 C156.141,19.091 157.032,19.306 157.776,19.735 C158.519,20.165 159.076,20.720 159.446,21.401 C159.816,22.082 160.001,22.775 160.001,23.482 C160.001,24.137 159.810,24.561 159.426,24.756 ZM156.695,21.568 C156.269,21.126 155.709,20.905 155.014,20.905 C154.352,20.905 153.808,21.129 153.383,21.578 C152.958,22.026 152.699,22.689 152.609,23.568 L157.430,23.568 C157.365,22.677 157.120,22.010 156.695,21.568 ZM148.515,21.706 C148.418,21.706 148.183,21.648 147.809,21.529 C147.436,21.412 147.106,21.353 146.820,21.353 C146.431,21.353 146.113,21.454 145.866,21.654 C145.619,21.854 145.428,22.151 145.291,22.546 C145.155,22.941 145.061,23.410 145.009,23.954 C144.957,24.498 144.931,25.161 144.931,25.944 L144.931,28.120 C144.931,28.648 144.804,29.044 144.551,29.308 C144.298,29.572 143.976,29.704 143.587,29.704 C143.204,29.704 142.889,29.571 142.642,29.304 C142.395,29.036 142.272,28.642 142.272,28.120 L142.272,20.867 C142.272,19.696 142.704,19.110 143.567,19.110 C144.009,19.110 144.327,19.247 144.522,19.521 C144.717,19.794 144.824,20.198 144.843,20.733 C145.161,20.198 145.488,19.794 145.822,19.521 C146.157,19.247 146.603,19.110 147.161,19.110 C147.720,19.110 148.262,19.247 148.788,19.521 C149.314,19.794 149.577,20.157 149.577,20.609 C149.577,20.927 149.465,21.190 149.241,21.396 C149.017,21.603 148.775,21.706 148.515,21.706 ZM137.893,25.047 L132.692,25.047 C132.699,25.639 132.820,26.160 133.058,26.612 C133.294,27.064 133.609,27.404 134.002,27.634 C134.395,27.862 134.828,27.977 135.303,27.977 C135.621,27.977 135.911,27.941 136.174,27.867 C136.437,27.794 136.692,27.679 136.939,27.523 C137.186,27.368 137.413,27.201 137.621,27.023 C137.828,26.844 138.098,26.602 138.429,26.297 C138.565,26.183 138.760,26.125 139.013,26.125 C139.286,26.125 139.507,26.199 139.676,26.345 C139.844,26.491 139.929,26.698 139.929,26.965 C139.929,27.201 139.835,27.476 139.647,27.791 C139.458,28.106 139.174,28.408 138.794,28.697 C138.414,28.987 137.937,29.227 137.362,29.418 C136.788,29.609 136.127,29.704 135.380,29.704 C133.673,29.704 132.345,29.227 131.397,28.272 C130.449,27.318 129.975,26.024 129.975,24.388 C129.975,23.618 130.092,22.904 130.325,22.246 C130.559,21.587 130.900,21.022 131.348,20.552 C131.796,20.081 132.348,19.720 133.004,19.468 C133.660,19.216 134.387,19.091 135.186,19.091 C136.224,19.091 137.116,19.306 137.859,19.735 C138.603,20.165 139.160,20.720 139.530,21.401 C139.900,22.082 140.085,22.775 140.085,23.482 C140.085,24.137 139.893,24.561 139.510,24.756 C139.127,24.950 138.588,25.047 137.893,25.047 ZM136.778,21.568 C136.353,21.126 135.793,20.905 135.098,20.905 C134.436,20.905 133.892,21.129 133.467,21.578 C133.041,22.026 132.783,22.689 132.692,23.568 L137.514,23.568 C137.449,22.677 137.203,22.010 136.778,21.568 ZM126.558,29.704 C125.682,29.704 125.244,29.176 125.244,28.120 L125.244,23.720 C125.244,22.887 125.117,22.246 124.864,21.797 C124.610,21.348 124.130,21.124 123.422,21.124 C122.948,21.124 122.521,21.256 122.141,21.521 C121.762,21.784 121.477,22.145 121.289,22.604 C121.146,22.992 121.075,23.682 121.075,24.675 L121.075,28.120 C121.075,28.635 120.956,29.028 120.719,29.299 C120.482,29.569 120.153,29.704 119.731,29.704 C118.854,29.704 118.416,29.176 118.416,28.120 L118.416,16.820 C118.416,16.292 118.531,15.896 118.762,15.631 C118.992,15.368 119.315,15.235 119.731,15.235 C120.153,15.235 120.482,15.369 120.719,15.636 C120.956,15.904 121.075,16.298 121.075,16.820 L121.075,20.685 C121.413,20.303 121.742,20.001 122.063,19.779 C122.385,19.556 122.740,19.389 123.130,19.277 C123.520,19.166 123.938,19.110 124.386,19.110 C125.062,19.110 125.661,19.250 126.183,19.531 C126.706,19.810 127.117,20.218 127.416,20.752 C127.604,21.064 127.730,21.412 127.795,21.797 C127.860,22.182 127.893,22.626 127.893,23.128 L127.893,28.120 C127.893,28.642 127.771,29.036 127.528,29.304 C127.284,29.571 126.961,29.704 126.558,29.704 ZM115.161,28.287 C114.758,28.742 114.283,29.092 113.734,29.337 C113.185,29.582 112.596,29.704 111.966,29.704 C111.207,29.704 110.569,29.555 110.053,29.256 C109.536,28.957 109.044,28.518 108.577,27.939 L108.577,31.852 C108.577,32.997 108.152,33.570 107.301,33.570 C106.801,33.570 106.470,33.422 106.307,33.126 C106.145,32.830 106.064,32.399 106.064,31.832 L106.064,20.590 C106.064,20.093 106.174,19.723 106.395,19.478 C106.616,19.233 106.918,19.110 107.301,19.110 C107.678,19.110 107.984,19.237 108.221,19.487 C108.458,19.739 108.577,20.100 108.577,20.571 L108.577,20.885 C109.077,20.281 109.596,19.837 110.135,19.554 C110.674,19.271 111.285,19.130 111.966,19.130 C112.785,19.130 113.538,19.336 114.226,19.750 C114.914,20.163 115.458,20.768 115.858,21.563 C116.257,22.358 116.457,23.300 116.457,24.388 C116.457,25.190 116.341,25.926 116.111,26.598 C115.880,27.269 115.564,27.832 115.161,28.287 ZM113.466,22.589 C113.252,22.096 112.955,21.718 112.575,21.454 C112.195,21.190 111.775,21.057 111.314,21.057 C110.580,21.057 109.961,21.340 109.458,21.907 C108.955,22.473 108.704,23.306 108.704,24.407 C108.704,25.445 108.953,26.251 109.454,26.827 C109.953,27.402 110.574,27.691 111.314,27.691 C111.755,27.691 112.164,27.565 112.541,27.313 C112.918,27.062 113.219,26.685 113.447,26.183 C113.674,25.680 113.788,25.073 113.788,24.360 C113.788,23.672 113.681,23.082 113.466,22.589 ZM101.809,29.308 C101.111,29.572 100.262,29.704 99.262,29.704 C98.308,29.704 97.490,29.561 96.808,29.275 C96.126,28.989 95.623,28.630 95.298,28.201 C94.973,27.771 94.811,27.340 94.811,26.908 C94.811,26.621 94.915,26.377 95.123,26.173 C95.331,25.969 95.594,25.867 95.912,25.867 C96.191,25.867 96.405,25.935 96.555,26.068 C96.704,26.202 96.847,26.389 96.983,26.631 C97.256,27.095 97.582,27.442 97.962,27.672 C98.342,27.901 98.860,28.015 99.516,28.015 C100.048,28.015 100.485,27.899 100.826,27.667 C101.167,27.435 101.337,27.169 101.337,26.869 C101.337,26.412 101.160,26.078 100.806,25.867 C100.452,25.658 99.869,25.457 99.058,25.266 C98.142,25.044 97.397,24.810 96.822,24.565 C96.248,24.320 95.788,23.997 95.444,23.596 C95.100,23.195 94.928,22.702 94.928,22.117 C94.928,21.595 95.087,21.102 95.405,20.637 C95.723,20.173 96.193,19.802 96.813,19.526 C97.433,19.249 98.181,19.110 99.058,19.110 C99.746,19.110 100.365,19.180 100.913,19.320 C101.462,19.460 101.920,19.648 102.287,19.883 C102.653,20.119 102.933,20.379 103.124,20.666 C103.316,20.952 103.412,21.232 103.412,21.506 C103.412,21.805 103.309,22.050 103.105,22.241 C102.900,22.431 102.610,22.527 102.233,22.527 C101.960,22.527 101.728,22.451 101.537,22.298 C101.345,22.145 101.126,21.917 100.879,21.611 C100.678,21.356 100.441,21.153 100.168,21.000 C99.896,20.847 99.525,20.771 99.058,20.771 C98.577,20.771 98.178,20.871 97.860,21.071 C97.542,21.272 97.383,21.521 97.383,21.821 C97.383,22.094 97.499,22.319 97.733,22.494 C97.967,22.669 98.282,22.813 98.678,22.928 C99.074,23.042 99.619,23.183 100.314,23.348 C101.139,23.545 101.813,23.781 102.335,24.054 C102.858,24.328 103.254,24.651 103.524,25.023 C103.793,25.395 103.928,25.819 103.928,26.297 C103.928,27.016 103.749,27.632 103.392,28.144 C103.035,28.656 102.507,29.044 101.809,29.308 ZM91.882,28.243 C91.414,28.715 90.856,29.076 90.207,29.327 C89.557,29.579 88.827,29.704 88.015,29.704 C87.210,29.704 86.486,29.577 85.843,29.323 C85.200,29.068 84.643,28.704 84.173,28.230 C83.702,27.756 83.345,27.196 83.101,26.550 C82.858,25.904 82.736,25.190 82.736,24.407 C82.736,23.618 82.859,22.896 83.106,22.241 C83.353,21.585 83.707,21.025 84.168,20.561 C84.629,20.097 85.187,19.739 85.843,19.487 C86.499,19.237 87.223,19.110 88.015,19.110 C88.820,19.110 89.551,19.238 90.207,19.493 C90.862,19.747 91.424,20.109 91.892,20.580 C92.359,21.051 92.715,21.611 92.958,22.260 C93.202,22.909 93.323,23.624 93.323,24.407 C93.323,25.184 93.200,25.900 92.953,26.555 C92.706,27.210 92.349,27.773 91.882,28.243 ZM89.939,21.926 C89.461,21.334 88.820,21.039 88.015,21.039 C87.496,21.039 87.038,21.171 86.642,21.434 C86.246,21.698 85.941,22.088 85.726,22.604 C85.512,23.119 85.405,23.720 85.405,24.407 C85.405,25.088 85.510,25.683 85.721,26.192 C85.932,26.701 86.234,27.091 86.627,27.361 C87.020,27.632 87.483,27.767 88.015,27.767 C88.820,27.767 89.461,27.469 89.939,26.874 C90.416,26.280 90.655,25.457 90.655,24.407 C90.655,23.345 90.416,22.517 89.939,21.926 ZM79.885,28.243 C79.417,28.715 78.859,29.076 78.209,29.327 C77.560,29.579 76.830,29.704 76.018,29.704 C75.213,29.704 74.489,29.577 73.846,29.323 C73.203,29.068 72.646,28.704 72.176,28.230 C71.705,27.756 71.348,27.196 71.104,26.550 C70.861,25.904 70.739,25.190 70.739,24.407 C70.739,23.618 70.862,22.896 71.109,22.241 C71.356,21.585 71.709,21.025 72.171,20.561 C72.632,20.097 73.190,19.739 73.846,19.487 C74.502,19.237 75.226,19.110 76.018,19.110 C76.823,19.110 77.553,19.238 78.209,19.493 C78.865,19.747 79.427,20.109 79.894,20.580 C80.362,21.051 80.717,21.611 80.961,22.260 C81.204,22.909 81.326,23.624 81.326,24.407 C81.326,25.184 81.203,25.900 80.956,26.555 C80.709,27.210 80.352,27.773 79.885,28.243 ZM77.942,21.926 C77.464,21.334 76.823,21.039 76.018,21.039 C75.498,21.039 75.041,21.171 74.645,21.434 C74.248,21.698 73.943,22.088 73.729,22.604 C73.515,23.119 73.408,23.720 73.408,24.407 C73.408,25.088 73.513,25.683 73.724,26.192 C73.935,26.701 74.237,27.091 74.630,27.361 C75.023,27.632 75.485,27.767 76.018,27.767 C76.823,27.767 77.464,27.469 77.942,26.874 C78.419,26.280 78.657,25.457 78.657,24.407 C78.657,23.345 78.419,22.517 77.942,21.926 ZM66.977,29.704 C66.717,29.704 66.483,29.668 66.276,29.595 C66.068,29.522 65.873,29.405 65.691,29.246 C65.509,29.087 65.341,28.901 65.185,28.688 C65.029,28.475 64.873,28.257 64.717,28.034 L59.292,19.883 L59.292,28.082 C59.292,28.616 59.166,29.020 58.912,29.294 C58.659,29.567 58.334,29.704 57.938,29.704 C57.529,29.704 57.201,29.566 56.955,29.289 C56.708,29.012 56.584,28.610 56.584,28.082 L56.584,17.287 C56.584,16.830 56.636,16.470 56.740,16.209 C56.864,15.923 57.068,15.689 57.354,15.508 C57.640,15.326 57.948,15.235 58.279,15.235 C58.539,15.235 58.761,15.277 58.946,15.359 C59.131,15.442 59.294,15.554 59.433,15.694 C59.573,15.834 59.716,16.015 59.862,16.238 C60.008,16.460 60.159,16.692 60.315,16.934 L65.876,25.180 L65.876,16.858 C65.876,16.318 65.995,15.912 66.232,15.641 C66.469,15.371 66.789,15.235 67.191,15.235 C67.607,15.235 67.935,15.371 68.175,15.641 C68.415,15.912 68.535,16.318 68.535,16.858 L68.535,27.862 C68.535,29.090 68.016,29.704 66.977,29.704 ZM22.969,45.000 C10.284,45.000 -0.000,34.926 -0.000,22.500 C-0.000,10.074 10.284,0.000 22.969,0.000 C35.654,0.000 45.937,10.074 45.937,22.500 C45.937,34.926 35.654,45.000 22.969,45.000 Z"/>
<path fill-rule="evenodd"  fill="rgb(9, 19, 31)"
 d="M31.594,36.844 L14.344,36.844 C13.567,36.844 12.938,36.214 12.938,35.437 C12.938,34.661 13.567,34.031 14.344,34.031 L31.594,34.031 C32.370,34.031 33.000,34.661 33.000,35.437 C33.000,36.214 32.370,36.844 31.594,36.844 ZM29.625,29.721 C29.240,29.721 28.893,29.666 28.586,29.558 C28.278,29.449 27.989,29.277 27.720,29.041 C27.451,28.806 27.201,28.530 26.970,28.214 C26.739,27.899 26.508,27.576 26.277,27.246 L18.240,15.171 L18.240,27.317 C18.240,28.109 18.052,28.707 17.677,29.112 C17.302,29.517 16.821,29.721 16.234,29.721 C15.628,29.721 15.142,29.515 14.777,29.105 C14.411,28.695 14.228,28.099 14.228,27.317 L14.228,11.325 C14.228,10.646 14.305,10.113 14.459,9.727 C14.642,9.303 14.945,8.957 15.368,8.688 C15.791,8.419 16.249,8.285 16.739,8.285 C17.124,8.285 17.453,8.346 17.728,8.468 C18.002,8.592 18.242,8.757 18.449,8.964 C18.656,9.171 18.867,9.440 19.084,9.770 C19.300,10.100 19.524,10.444 19.755,10.802 L27.994,23.018 L27.994,10.689 C27.994,9.888 28.169,9.286 28.521,8.886 C28.872,8.485 29.346,8.285 29.942,8.285 C30.558,8.285 31.043,8.485 31.399,8.886 C31.755,9.286 31.933,9.888 31.933,10.689 L31.933,26.991 C31.933,28.811 31.164,29.721 29.625,29.721 Z"/>
</svg>