<svg xmlns="http://www.w3.org/2000/svg" width="30.47" height="26.219"><path id="Фигура_11" data-name="Фигура 11" d="M1040.29 698.7a22 22 0 0 0-3.93.35 8.212 8.212 0 0 0-6.58-3.274c-2.03 0-3.18.636-4.98 1.434l1.4 1.142a6.047 6.047 0 0 1 2.21 4.3 8.31 8.31 0 0 0-3.1 6.242 8.41 8.41 0 0 0 3.19 6.313 6.063 6.063 0 0 1-2.21 4.225l-1.4 1.143 1.65.73a8.233 8.233 0 0 0 9.9-2.558 21.747 21.747 0 0 0 3.85.338c8.12 0 14.98-4.388 14.98-10.191s-6.86-10.194-14.98-10.194zm9.21 15.686a16.962 16.962 0 0 1-9.21 2.48 20.78 20.78 0 0 1-4.88-.6l-.41.66a6.006 6.006 0 0 1-5.95 2.8 8.356 8.356 0 0 0 1.68-5.056l-.01-.525-.42-.329a6.482 6.482 0 0 1-2.78-4.934c0-2.039 1.27-3.991 3.56-5.5a18.342 18.342 0 0 1 18.42 0c2.3 1.5 3.56 3.456 3.56 5.5s-1.26 3.995-3.56 5.499zm-9.43-7.179a1.728 1.728 0 1 1-1.72 1.728 1.724 1.724 0 0 1 1.72-1.735zm-5.85 0a1.728 1.728 0 1 1-1.73 1.728 1.724 1.724 0 0 1 1.73-1.735zm11.75 0a1.728 1.728 0 1 1-1.72 1.728 1.733 1.733 0 0 1 1.72-1.735z" transform="translate(-1024.81 -695.781)" fill="#6e6e6e" fill-rule="evenodd"/></svg>