<svg xmlns="http://www.w3.org/2000/svg" width="24" height="24" viewBox="0 0 24 24">
  <metadata><?xpacket begin="﻿" id="W5M0MpCehiHzreSzNTczkc9d"?>
<x:xmpmeta xmlns:x="adobe:ns:meta/" x:xmptk="Adobe XMP Core 5.6-c138 79.159824, 2016/09/14-01:09:01        ">
   <rdf:RDF xmlns:rdf="http://www.w3.org/1999/02/22-rdf-syntax-ns#">
      <rdf:Description rdf:about=""/>
   </rdf:RDF>
</x:xmpmeta>
                                                                                                    
                                                                                                    
                                                                                                    
                                                                                                    
                                                                                                    
                                                                                                    
                                                                                                    
                                                                                                    
                                                                                                    
                                                                                                    
                                                                                                    
                                                                                                    
                                                                                                    
                                                                                                    
                                                                                                    
                                                                                                    
                                                                                                    
                                                                                                    
                                                                                                    
                                                                                                    
                           
<?xpacket end="w"?></metadata>
<defs>
    <style>
      .cls-1 {
        fill: #6e6e6e;
        fill-rule: evenodd;
      }
    </style>
  </defs>
  <path id="LinkedIn" class="cls-1" d="M916.829,587H897.171A2.171,2.171,0,0,0,895,589.171v19.658A2.171,2.171,0,0,0,897.171,611h19.658A2.171,2.171,0,0,0,919,608.829V589.171A2.171,2.171,0,0,0,916.829,587Zm-14.4,20.723a0.632,0.632,0,0,1-.632.632h-2.689a0.632,0.632,0,0,1-.632-0.632V596.449a0.633,0.633,0,0,1,.632-0.632H901.8a0.633,0.633,0,0,1,.632.632v11.274Zm-1.977-12.968a2.555,2.555,0,1,1,2.555-2.555A2.555,2.555,0,0,1,900.45,594.755Zm16.031,13.019a0.581,0.581,0,0,1-.581.581h-2.885a0.581,0.581,0,0,1-.581-0.581v-5.288c0-.789.231-3.457-2.062-3.457-1.779,0-2.139,1.826-2.212,2.646v6.1a0.581,0.581,0,0,1-.581.581h-2.791a0.581,0.581,0,0,1-.581-0.581V596.4a0.582,0.582,0,0,1,.581-0.582h2.791a0.582,0.582,0,0,1,.581.582v0.983a3.965,3.965,0,0,1,3.727-1.754c4.621,0,4.594,4.318,4.594,6.689v5.457h0Z" transform="translate(-895 -587)"/>
</svg>
