<svg xmlns="http://www.w3.org/2000/svg" width="25.88" height="23.157"><path id="Фигура_9" data-name="Фигура 9" d="M1078.58 708.411l5.97 2.286 2.31 7.624a.7.7 0 0 0 1.12.344l3.32-2.783a.973.973 0 0 1 1.21-.034l6 4.471a.7.7 0 0 0 1.1-.437l4.4-21.7a.71.71 0 0 0-.94-.821l-24.49 9.7a.73.73 0 0 0 0 1.351zm7.91 1.069l11.66-7.372a.208.208 0 0 1 .25.33l-9.63 9.182a2.055 2.055 0 0 0-.62 1.226l-.32 2.493a.3.3 0 0 1-.59.044l-1.26-4.547a1.207 1.207 0 0 1 .51-1.356zm0 0" transform="translate(-1078.12 -697.312)" fill="#6e6e6e" fill-rule="evenodd"/></svg>